G75*
%MOIN*%
%OFA0B0*%
%FSLAX24Y24*%
%IPPOS*%
%LPD*%
%AMOC8*
5,1,8,0,0,1.08239X$1,22.5*
%
%ADD10C,0.0650*%
%ADD11R,0.0650X0.0650*%
%ADD12R,0.0870X0.0240*%
%ADD13R,0.0394X0.0433*%
%ADD14R,0.0433X0.0394*%
%ADD15C,0.0600*%
%ADD16R,0.0250X0.0500*%
%ADD17R,0.0118X0.0394*%
%ADD18R,0.0354X0.0276*%
%ADD19R,0.0276X0.0354*%
%ADD20R,0.0120X0.0260*%
%ADD21R,0.1220X0.0390*%
%ADD22R,0.0740X0.0740*%
%ADD23C,0.0740*%
%ADD24R,0.0551X0.0157*%
%ADD25R,0.0709X0.0709*%
%ADD26C,0.0472*%
%ADD27C,0.0787*%
%ADD28C,0.0800*%
%ADD29R,0.0800X0.0800*%
%ADD30R,0.0120X0.0390*%
%ADD31R,0.0500X0.0250*%
%ADD32R,0.2441X0.2126*%
%ADD33R,0.0630X0.0394*%
%ADD34C,0.0120*%
%ADD35C,0.0100*%
%ADD36C,0.0400*%
%ADD37C,0.0160*%
%ADD38C,0.0240*%
%ADD39C,0.0400*%
D10*
X004973Y028003D03*
X004973Y029003D03*
X005973Y029003D03*
X005973Y028003D03*
X006973Y028003D03*
X006973Y029003D03*
X007973Y029003D03*
X008973Y029003D03*
X008973Y028003D03*
X007973Y028003D03*
X009973Y028003D03*
X009973Y029003D03*
X010973Y029003D03*
X010973Y028003D03*
X011973Y028003D03*
X011973Y029003D03*
X012973Y029003D03*
X012973Y028003D03*
X013973Y028003D03*
X013973Y029003D03*
X014973Y029003D03*
X014973Y028003D03*
X015973Y028003D03*
X015973Y029003D03*
X016973Y029003D03*
X016973Y028003D03*
X017973Y028003D03*
X017973Y029003D03*
X018973Y029003D03*
X018973Y028003D03*
X019973Y028003D03*
X019973Y029003D03*
X020973Y029003D03*
X021973Y029003D03*
X021973Y028003D03*
X020973Y028003D03*
X022973Y028003D03*
X022973Y029003D03*
X003973Y029003D03*
D11*
X003973Y028003D03*
D12*
X020203Y023353D03*
X020203Y022853D03*
X020203Y022353D03*
X020203Y021853D03*
X022853Y021853D03*
X022853Y022353D03*
X022853Y022853D03*
X022853Y023353D03*
D13*
X022228Y021188D03*
X022228Y020479D03*
X021078Y020479D03*
X021078Y021188D03*
X019278Y021279D03*
X019278Y021988D03*
X018878Y017888D03*
X018878Y017179D03*
X021328Y014638D03*
X021928Y014638D03*
X021928Y013929D03*
X021328Y013929D03*
X017028Y011938D03*
X017028Y011229D03*
X016028Y011229D03*
X016028Y011938D03*
X015028Y011938D03*
X015028Y011229D03*
X014028Y011229D03*
X014028Y011938D03*
X013828Y016829D03*
X013828Y017538D03*
X013828Y018129D03*
X013828Y018838D03*
X014878Y018888D03*
X014878Y018179D03*
X014878Y017538D03*
X014878Y016829D03*
X006528Y012388D03*
X006528Y011679D03*
D14*
X019333Y023943D03*
X020042Y023943D03*
D15*
X020428Y026333D03*
X019428Y026333D03*
X018428Y026333D03*
X017428Y026333D03*
X016428Y026333D03*
X015428Y026333D03*
X014428Y026333D03*
X013428Y026333D03*
X012428Y026333D03*
X011428Y026333D03*
X010428Y026333D03*
X009428Y026333D03*
X008428Y026333D03*
X007428Y026333D03*
X006428Y026333D03*
X005428Y026333D03*
X004428Y026333D03*
X003428Y026333D03*
X002428Y026333D03*
X021428Y026333D03*
X022428Y026333D03*
X023428Y026333D03*
X024428Y026333D03*
X025428Y026333D03*
D16*
X023505Y020533D03*
X023150Y020533D03*
D17*
X009471Y016540D03*
X009274Y016540D03*
X009078Y016540D03*
X008881Y016540D03*
X008684Y016540D03*
X008684Y014926D03*
X008881Y014926D03*
X009078Y014926D03*
X009274Y014926D03*
X009471Y014926D03*
D18*
X010028Y015077D03*
X010028Y015589D03*
X010678Y015589D03*
X010678Y015077D03*
X011778Y015077D03*
X011778Y015589D03*
X012328Y015589D03*
X012328Y015077D03*
D19*
X009133Y017983D03*
X008622Y017983D03*
D20*
X019388Y014733D03*
X019578Y014733D03*
X019778Y014733D03*
X019978Y014733D03*
X020178Y014733D03*
X020368Y014733D03*
X020368Y013933D03*
X020178Y013933D03*
X019978Y013933D03*
X019778Y013933D03*
X019578Y013933D03*
X019388Y013933D03*
D21*
X019878Y014333D03*
D22*
X017028Y008333D03*
X016028Y008333D03*
X015028Y008333D03*
X014028Y008333D03*
X004828Y008333D03*
X004828Y009333D03*
X004828Y010333D03*
X003628Y011683D03*
X003628Y018383D03*
X003628Y024233D03*
X025728Y019483D03*
X025728Y011733D03*
D23*
X025728Y012733D03*
X025728Y013733D03*
X025728Y014733D03*
X025728Y015733D03*
X025728Y016733D03*
X025728Y020483D03*
X025728Y021483D03*
X025728Y022483D03*
X025728Y023483D03*
X025728Y024483D03*
X017028Y010333D03*
X017028Y009333D03*
X016028Y009333D03*
X016028Y010333D03*
X015028Y010333D03*
X015028Y009333D03*
X014028Y009333D03*
X014028Y010333D03*
X011828Y010333D03*
X011828Y009333D03*
X011828Y008333D03*
X010828Y008333D03*
X009828Y008333D03*
X009828Y009333D03*
X010828Y009333D03*
X010828Y010333D03*
X009828Y010333D03*
X008828Y010333D03*
X008828Y009333D03*
X008828Y008333D03*
X007828Y008333D03*
X007828Y009333D03*
X007828Y010333D03*
X006828Y010333D03*
X006828Y009333D03*
X006828Y008333D03*
X005828Y008333D03*
X005828Y009333D03*
X005828Y010333D03*
X003628Y012683D03*
X003628Y013683D03*
X003628Y014683D03*
X003628Y015683D03*
X003628Y016683D03*
X003628Y019383D03*
X003628Y020383D03*
X003628Y021383D03*
X003628Y023233D03*
D24*
X002271Y023682D03*
X002271Y023937D03*
X002271Y024193D03*
X002271Y024449D03*
X002271Y024705D03*
D25*
X001228Y024646D03*
X001228Y023741D03*
D26*
X002330Y023239D03*
X002330Y025148D03*
D27*
X001228Y025615D03*
X001228Y022772D03*
D28*
X020861Y008733D03*
X023617Y008733D03*
D29*
X022239Y008733D03*
X019483Y008733D03*
D30*
X017291Y013435D03*
X017035Y013435D03*
X016779Y013435D03*
X016523Y013435D03*
X016267Y013435D03*
X016011Y013435D03*
X015756Y013435D03*
X015500Y013435D03*
X015244Y013435D03*
X014988Y013435D03*
X014732Y013435D03*
X014476Y013435D03*
X014220Y013435D03*
X013964Y013435D03*
X013964Y015732D03*
X014220Y015732D03*
X014476Y015732D03*
X014732Y015732D03*
X014988Y015732D03*
X015244Y015732D03*
X015500Y015732D03*
X015756Y015732D03*
X016011Y015732D03*
X016267Y015732D03*
X016523Y015732D03*
X016779Y015732D03*
X017035Y015732D03*
X017291Y015732D03*
D31*
X017978Y017156D03*
X017978Y017510D03*
X012128Y013960D03*
X012128Y013606D03*
X010778Y013606D03*
X010778Y013960D03*
X009378Y013960D03*
X009378Y013606D03*
X007978Y013606D03*
X007978Y013960D03*
X006578Y013960D03*
X006578Y013606D03*
D32*
X008612Y022333D03*
D33*
X005738Y021436D03*
X005738Y023231D03*
D34*
X002570Y008039D02*
X002332Y007978D01*
X004298Y007978D01*
X004298Y008293D01*
X004788Y008293D01*
X004788Y008373D01*
X004298Y008373D01*
X004298Y008724D01*
X004308Y008765D01*
X004330Y008802D01*
X004359Y008831D01*
X004380Y008843D01*
X004318Y008905D01*
X004318Y009073D01*
X004176Y009073D01*
X004080Y009113D01*
X004007Y009186D01*
X003968Y009282D01*
X003968Y009282D01*
X002836Y010413D01*
X002708Y010542D01*
X002708Y012074D01*
X003146Y012513D01*
X003118Y012582D01*
X003118Y012785D01*
X003195Y012972D01*
X003339Y013116D01*
X003502Y013183D01*
X003339Y013251D01*
X003195Y013394D01*
X003118Y013582D01*
X003118Y013785D01*
X003195Y013972D01*
X003339Y014116D01*
X003502Y014183D01*
X003339Y014251D01*
X003195Y014394D01*
X003118Y014582D01*
X003118Y014785D01*
X003195Y014972D01*
X003339Y015116D01*
X003502Y015183D01*
X003339Y015251D01*
X003195Y015394D01*
X003118Y015582D01*
X003118Y015785D01*
X003195Y015972D01*
X003339Y016116D01*
X003502Y016183D01*
X003339Y016251D01*
X003195Y016394D01*
X003118Y016582D01*
X003118Y016785D01*
X003195Y016972D01*
X003339Y017116D01*
X003526Y017193D01*
X003729Y017193D01*
X003916Y017116D01*
X004060Y016972D01*
X004138Y016785D01*
X004138Y016582D01*
X004071Y016422D01*
X004310Y016183D01*
X009088Y016183D01*
X009088Y016184D01*
X009078Y016184D01*
X009078Y016283D01*
X009078Y016283D01*
X009078Y016283D01*
X009078Y016184D01*
X008997Y016184D01*
X008957Y016194D01*
X008941Y016204D01*
X008567Y016204D01*
X008485Y016286D01*
X008485Y016471D01*
X008432Y016524D01*
X008432Y017666D01*
X008426Y017666D01*
X008344Y017748D01*
X008344Y018218D01*
X008426Y018300D01*
X008817Y018300D01*
X008865Y018253D01*
X008868Y018259D01*
X008897Y018289D01*
X008934Y018310D01*
X008975Y018320D01*
X009125Y018320D01*
X009125Y017992D01*
X009142Y017992D01*
X009142Y018320D01*
X009292Y018320D01*
X009333Y018310D01*
X009369Y018289D01*
X009399Y018259D01*
X009420Y018222D01*
X009431Y018182D01*
X009431Y017992D01*
X009142Y017992D01*
X009142Y017974D01*
X009142Y017646D01*
X009292Y017646D01*
X009333Y017657D01*
X009369Y017678D01*
X009399Y017708D01*
X009420Y017744D01*
X009431Y017785D01*
X009431Y017974D01*
X009142Y017974D01*
X009125Y017974D01*
X009125Y017646D01*
X008975Y017646D01*
X008934Y017657D01*
X008897Y017678D01*
X008868Y017708D01*
X008865Y017713D01*
X008817Y017666D01*
X008812Y017666D01*
X008812Y016877D01*
X008941Y016877D01*
X008957Y016886D01*
X008997Y016897D01*
X009078Y016897D01*
X009078Y016797D01*
X009078Y016797D01*
X009078Y016797D01*
X009078Y016897D01*
X009158Y016897D01*
X009198Y016886D01*
X009214Y016877D01*
X009588Y016877D01*
X009670Y016795D01*
X009670Y016286D01*
X009661Y016277D01*
X009661Y015798D01*
X009550Y015687D01*
X009528Y015665D01*
X009578Y015616D01*
X009578Y015602D01*
X009668Y015512D01*
X009668Y015184D01*
X009670Y015181D01*
X009670Y014703D01*
X009808Y014703D01*
X009808Y014800D01*
X009792Y014800D01*
X009710Y014882D01*
X009710Y015273D01*
X009757Y015320D01*
X009752Y015323D01*
X009722Y015353D01*
X009701Y015390D01*
X009690Y015430D01*
X009690Y015580D01*
X010019Y015580D01*
X010019Y015598D01*
X010019Y015887D01*
X009829Y015887D01*
X009789Y015876D01*
X009752Y015855D01*
X009722Y015825D01*
X009701Y015789D01*
X009690Y015748D01*
X009690Y015598D01*
X010019Y015598D01*
X010036Y015598D01*
X010036Y015887D01*
X010226Y015887D01*
X010266Y015876D01*
X010303Y015855D01*
X010333Y015825D01*
X010353Y015791D01*
X010372Y015825D01*
X010402Y015855D01*
X010439Y015876D01*
X010479Y015887D01*
X010669Y015887D01*
X010669Y015598D01*
X010686Y015598D01*
X010686Y015887D01*
X010876Y015887D01*
X010916Y015876D01*
X010953Y015855D01*
X010983Y015825D01*
X011004Y015789D01*
X011015Y015748D01*
X011015Y015598D01*
X010686Y015598D01*
X010686Y015580D01*
X011015Y015580D01*
X011015Y015430D01*
X011004Y015390D01*
X010983Y015353D01*
X010953Y015323D01*
X010948Y015320D01*
X010995Y015273D01*
X010995Y014882D01*
X010913Y014800D01*
X010442Y014800D01*
X010385Y014857D01*
X010320Y014857D01*
X010263Y014800D01*
X010248Y014800D01*
X010248Y014492D01*
X010148Y014392D01*
X010019Y014263D01*
X009374Y014263D01*
X009408Y014225D01*
X009686Y014225D01*
X009731Y014180D01*
X010425Y014180D01*
X010470Y014225D01*
X011086Y014225D01*
X011131Y014180D01*
X011775Y014180D01*
X011820Y014225D01*
X012055Y014225D01*
X012039Y014241D01*
X011988Y014366D01*
X011988Y014501D01*
X012039Y014626D01*
X012128Y014714D01*
X012128Y014800D01*
X012092Y014800D01*
X012053Y014839D01*
X012013Y014800D01*
X011542Y014800D01*
X011460Y014882D01*
X011460Y015273D01*
X011507Y015320D01*
X011502Y015323D01*
X011472Y015353D01*
X011451Y015390D01*
X011440Y015430D01*
X011440Y015580D01*
X011769Y015580D01*
X011769Y015598D01*
X011769Y015887D01*
X011579Y015887D01*
X011539Y015876D01*
X011502Y015855D01*
X011472Y015825D01*
X011451Y015789D01*
X011440Y015748D01*
X011440Y015598D01*
X011769Y015598D01*
X011786Y015598D01*
X011786Y015887D01*
X011976Y015887D01*
X012016Y015876D01*
X012053Y015855D01*
X012089Y015876D01*
X012129Y015887D01*
X012319Y015887D01*
X012319Y015598D01*
X012336Y015598D01*
X012336Y015887D01*
X012526Y015887D01*
X012566Y015876D01*
X012603Y015855D01*
X012617Y015841D01*
X012698Y015922D01*
X013764Y015922D01*
X013764Y016472D01*
X013573Y016472D01*
X013491Y016554D01*
X013491Y017104D01*
X013563Y017176D01*
X013532Y017193D01*
X013503Y017223D01*
X013482Y017259D01*
X013471Y017300D01*
X013471Y017499D01*
X013789Y017499D01*
X013789Y017576D01*
X013471Y017576D01*
X013471Y017775D01*
X013482Y017816D01*
X013499Y017846D01*
X013491Y017854D01*
X013491Y018404D01*
X013563Y018476D01*
X013532Y018493D01*
X013503Y018523D01*
X013482Y018559D01*
X013471Y018600D01*
X013471Y018799D01*
X013789Y018799D01*
X013789Y018876D01*
X013471Y018876D01*
X013471Y019075D01*
X013482Y019116D01*
X013503Y019152D01*
X013532Y019182D01*
X013569Y019203D01*
X013610Y019214D01*
X013789Y019214D01*
X013789Y018876D01*
X013866Y018876D01*
X014184Y018876D01*
X014184Y019075D01*
X014173Y019116D01*
X014152Y019152D01*
X014123Y019182D01*
X014086Y019203D01*
X014045Y019214D01*
X013866Y019214D01*
X013866Y018876D01*
X013866Y018799D01*
X014184Y018799D01*
X014184Y018600D01*
X014173Y018559D01*
X014152Y018523D01*
X014123Y018493D01*
X014092Y018476D01*
X014164Y018404D01*
X014164Y018129D01*
X014353Y017941D01*
X014541Y018129D01*
X014541Y018454D01*
X014613Y018526D01*
X014582Y018543D01*
X014553Y018573D01*
X014532Y018609D01*
X014521Y018650D01*
X014521Y018849D01*
X014839Y018849D01*
X014839Y018926D01*
X014521Y018926D01*
X014521Y019125D01*
X014532Y019166D01*
X014553Y019202D01*
X014582Y019232D01*
X014619Y019253D01*
X014660Y019264D01*
X014839Y019264D01*
X014839Y018926D01*
X014916Y018926D01*
X015234Y018926D01*
X015234Y019125D01*
X015223Y019166D01*
X015202Y019202D01*
X015173Y019232D01*
X015136Y019253D01*
X015095Y019264D01*
X014916Y019264D01*
X014916Y018926D01*
X014916Y018849D01*
X015234Y018849D01*
X015234Y018650D01*
X015223Y018609D01*
X015202Y018573D01*
X015173Y018543D01*
X015142Y018526D01*
X015214Y018454D01*
X015214Y017904D01*
X015182Y017872D01*
X015202Y017852D01*
X015223Y017816D01*
X015234Y017775D01*
X015234Y017576D01*
X014916Y017576D01*
X014916Y017499D01*
X015234Y017499D01*
X015234Y017300D01*
X015223Y017259D01*
X015202Y017223D01*
X015173Y017193D01*
X015142Y017176D01*
X015214Y017104D01*
X015214Y016554D01*
X015132Y016472D01*
X014928Y016472D01*
X014928Y016067D01*
X015044Y016067D01*
X015044Y016282D01*
X015161Y016399D01*
X015495Y016733D01*
X019710Y016733D01*
X019828Y016616D01*
X019988Y016456D01*
X019988Y016955D01*
X019953Y016989D01*
X019214Y016989D01*
X019214Y016904D01*
X019132Y016822D01*
X018623Y016822D01*
X018541Y016904D01*
X018541Y016979D01*
X018368Y016979D01*
X018368Y016973D01*
X018286Y016891D01*
X017670Y016891D01*
X017588Y016973D01*
X017588Y017308D01*
X017578Y017324D01*
X017568Y017364D01*
X017568Y017508D01*
X017975Y017508D01*
X017975Y017513D01*
X017568Y017513D01*
X017568Y017657D01*
X017578Y017697D01*
X017600Y017734D01*
X017629Y017764D01*
X017666Y017785D01*
X017706Y017795D01*
X017975Y017795D01*
X017975Y017513D01*
X017980Y017513D01*
X017980Y017795D01*
X018249Y017795D01*
X018289Y017785D01*
X018326Y017764D01*
X018356Y017734D01*
X018377Y017697D01*
X018388Y017657D01*
X018388Y017513D01*
X017980Y017513D01*
X017980Y017508D01*
X018388Y017508D01*
X018388Y017379D01*
X018541Y017379D01*
X018541Y017454D01*
X018621Y017533D01*
X018541Y017613D01*
X018541Y017913D01*
X018441Y018013D01*
X016238Y018013D01*
X016170Y017945D01*
X016045Y017893D01*
X015910Y017893D01*
X015785Y017945D01*
X015689Y018041D01*
X015638Y018166D01*
X015638Y018301D01*
X015689Y018426D01*
X015785Y018522D01*
X015910Y018573D01*
X016045Y018573D01*
X016170Y018522D01*
X016238Y018453D01*
X018623Y018453D01*
X018752Y018324D01*
X018752Y018324D01*
X018832Y018244D01*
X019132Y018244D01*
X019214Y018162D01*
X019214Y018108D01*
X020214Y018108D01*
X020348Y017974D01*
X020348Y017963D01*
X020448Y017883D01*
X020460Y017883D01*
X020511Y017833D01*
X020567Y017788D01*
X020569Y017775D01*
X020578Y017766D01*
X020578Y017694D01*
X020585Y017623D01*
X020578Y017613D01*
X020578Y016350D01*
X020568Y016340D01*
X020568Y015017D01*
X020571Y015013D01*
X020568Y014939D01*
X020568Y014667D01*
X020586Y014656D01*
X020616Y014627D01*
X020618Y014623D01*
X020618Y017926D01*
X019620Y018923D01*
X017848Y018923D01*
X017820Y018895D01*
X017695Y018843D01*
X017560Y018843D01*
X017435Y018895D01*
X017339Y018991D01*
X017288Y019116D01*
X017288Y019251D01*
X017339Y019376D01*
X017368Y019404D01*
X017368Y023426D01*
X017170Y023623D01*
X006085Y023623D01*
X006030Y023568D01*
X006111Y023568D01*
X006193Y023486D01*
X006193Y022976D01*
X006111Y022894D01*
X005365Y022894D01*
X005283Y022976D01*
X005283Y023011D01*
X004087Y023011D01*
X004060Y022944D01*
X003916Y022801D01*
X003729Y022723D01*
X003526Y022723D01*
X003339Y022801D01*
X003195Y022944D01*
X003148Y023059D01*
X003148Y022674D01*
X003219Y022603D01*
X007251Y022603D01*
X007251Y023454D01*
X007333Y023536D01*
X009890Y023536D01*
X009972Y023454D01*
X009972Y021212D01*
X009890Y021130D01*
X007333Y021130D01*
X007251Y021212D01*
X007251Y022163D01*
X003036Y022163D01*
X002908Y022292D01*
X002908Y022292D01*
X002708Y022492D01*
X002708Y023342D01*
X002685Y023365D01*
X002706Y023313D01*
X002706Y023164D01*
X002649Y023025D01*
X002543Y022920D01*
X002405Y022862D01*
X002255Y022862D01*
X002117Y022920D01*
X002011Y023025D01*
X001954Y023164D01*
X001954Y023313D01*
X002011Y023452D01*
X002022Y023463D01*
X001937Y023463D01*
X001855Y023545D01*
X001855Y024549D01*
X001846Y024565D01*
X001835Y024605D01*
X001835Y024705D01*
X002271Y024705D01*
X002271Y024705D01*
X001835Y024705D01*
X001835Y024805D01*
X001846Y024846D01*
X001867Y024882D01*
X001897Y024912D01*
X001934Y024933D01*
X001974Y024944D01*
X002007Y024944D01*
X001954Y025073D01*
X001954Y025223D01*
X002011Y025361D01*
X002113Y025463D01*
X001986Y025463D01*
X001836Y025613D01*
X001761Y025689D01*
X001761Y025508D01*
X001680Y025312D01*
X001530Y025162D01*
X001477Y025140D01*
X001640Y025140D01*
X001722Y025058D01*
X001722Y024234D01*
X001681Y024193D01*
X001722Y024153D01*
X001722Y023328D01*
X001640Y023246D01*
X001477Y023246D01*
X001530Y023225D01*
X001680Y023074D01*
X001761Y022878D01*
X001761Y022666D01*
X001680Y022470D01*
X001559Y022348D01*
X002360Y022348D01*
X002557Y022266D01*
X002558Y022266D01*
X002709Y022115D01*
X002709Y022115D01*
X002791Y021917D01*
X002791Y015797D01*
X002709Y015599D01*
X002709Y015599D01*
X002558Y015448D01*
X002557Y015448D01*
X002360Y015365D01*
X001071Y015365D01*
X001023Y015361D01*
X000933Y015324D01*
X000864Y015255D01*
X000827Y015165D01*
X000823Y015117D01*
X000823Y009496D01*
X000844Y009627D01*
X001045Y009998D01*
X001355Y010283D01*
X001741Y010453D01*
X002161Y010487D01*
X002570Y010384D01*
X002923Y010153D01*
X003182Y009821D01*
X003319Y009422D01*
X003319Y009001D01*
X003182Y008602D01*
X002923Y008269D01*
X002570Y008039D01*
X002618Y008070D02*
X004298Y008070D01*
X004298Y008189D02*
X002800Y008189D01*
X002952Y008307D02*
X004788Y008307D01*
X004868Y008307D02*
X005788Y008307D01*
X005788Y008293D02*
X005298Y008293D01*
X004868Y008293D01*
X004868Y008373D01*
X005788Y008373D01*
X005788Y008293D01*
X005868Y008293D02*
X005868Y008373D01*
X006788Y008373D01*
X006788Y008293D01*
X006358Y008293D01*
X005868Y008293D01*
X005868Y008307D02*
X006788Y008307D01*
X006868Y008307D02*
X007788Y008307D01*
X007788Y008293D02*
X007298Y008293D01*
X006868Y008293D01*
X006868Y008373D01*
X007788Y008373D01*
X007788Y008293D01*
X007868Y008293D02*
X007868Y008373D01*
X008788Y008373D01*
X008788Y008293D01*
X008298Y008293D01*
X007868Y008293D01*
X007868Y008307D02*
X008788Y008307D01*
X008868Y008307D02*
X009788Y008307D01*
X009788Y008293D02*
X009298Y008293D01*
X008868Y008293D01*
X008868Y008373D01*
X009788Y008373D01*
X009788Y008293D01*
X009868Y008293D02*
X009868Y008373D01*
X010788Y008373D01*
X010788Y008293D01*
X010298Y008293D01*
X009868Y008293D01*
X009868Y008307D02*
X010788Y008307D01*
X010868Y008307D02*
X011788Y008307D01*
X011788Y008293D02*
X011298Y008293D01*
X010868Y008293D01*
X010868Y008373D01*
X011788Y008373D01*
X011788Y008293D01*
X011868Y008293D02*
X011868Y008373D01*
X012358Y008373D01*
X012358Y008375D01*
X012344Y008457D01*
X012319Y008537D01*
X012281Y008611D01*
X012232Y008679D01*
X012173Y008738D01*
X012105Y008787D01*
X012031Y008825D01*
X011975Y008843D01*
X012116Y008901D01*
X012260Y009044D01*
X012338Y009232D01*
X012338Y009435D01*
X012260Y009622D01*
X012116Y009766D01*
X011953Y009833D01*
X012116Y009901D01*
X012260Y010044D01*
X012338Y010232D01*
X012338Y010435D01*
X012260Y010622D01*
X012116Y010766D01*
X011929Y010843D01*
X011726Y010843D01*
X011539Y010766D01*
X011395Y010622D01*
X011383Y010593D01*
X011272Y010593D01*
X011260Y010622D01*
X011116Y010766D01*
X010929Y010843D01*
X010726Y010843D01*
X010539Y010766D01*
X010395Y010622D01*
X010383Y010593D01*
X010272Y010593D01*
X010260Y010622D01*
X010116Y010766D01*
X009929Y010843D01*
X009726Y010843D01*
X009539Y010766D01*
X009395Y010622D01*
X009383Y010593D01*
X009272Y010593D01*
X009260Y010622D01*
X009116Y010766D01*
X008929Y010843D01*
X008726Y010843D01*
X008539Y010766D01*
X008395Y010622D01*
X008383Y010593D01*
X008272Y010593D01*
X008260Y010622D01*
X008116Y010766D01*
X007929Y010843D01*
X007726Y010843D01*
X007539Y010766D01*
X007395Y010622D01*
X007383Y010593D01*
X007272Y010593D01*
X007260Y010622D01*
X007116Y010766D01*
X006929Y010843D01*
X006726Y010843D01*
X006539Y010766D01*
X006395Y010622D01*
X006383Y010593D01*
X006272Y010593D01*
X006260Y010622D01*
X006116Y010766D01*
X005929Y010843D01*
X005726Y010843D01*
X005539Y010766D01*
X005395Y010622D01*
X005383Y010593D01*
X005338Y010593D01*
X005338Y010761D01*
X005256Y010843D01*
X004400Y010843D01*
X004318Y010761D01*
X004318Y009905D01*
X004390Y009833D01*
X004318Y009761D01*
X004318Y009593D01*
X004279Y009593D01*
X003148Y010724D01*
X003148Y011197D01*
X003159Y011185D01*
X003196Y011164D01*
X003236Y011153D01*
X003588Y011153D01*
X003588Y011643D01*
X003668Y011643D01*
X003668Y011723D01*
X004158Y011723D01*
X004158Y012074D01*
X004147Y012115D01*
X004126Y012152D01*
X004096Y012181D01*
X004059Y012202D01*
X004019Y012213D01*
X003826Y012213D01*
X003916Y012251D01*
X004060Y012394D01*
X004138Y012582D01*
X004138Y012785D01*
X004116Y012836D01*
X005091Y013740D01*
X006188Y013740D01*
X006188Y013423D01*
X006270Y013341D01*
X006388Y013341D01*
X006388Y012744D01*
X006273Y012744D01*
X006191Y012662D01*
X006191Y012113D01*
X006263Y012041D01*
X006232Y012024D01*
X006203Y011994D01*
X006182Y011957D01*
X006171Y011917D01*
X006171Y011717D01*
X006489Y011717D01*
X006489Y011641D01*
X006171Y011641D01*
X006171Y011441D01*
X006182Y011401D01*
X006203Y011364D01*
X006232Y011334D01*
X006269Y011313D01*
X006310Y011302D01*
X006489Y011302D01*
X006489Y011641D01*
X006566Y011641D01*
X006566Y011717D01*
X006884Y011717D01*
X006884Y011917D01*
X006873Y011957D01*
X006852Y011994D01*
X006823Y012024D01*
X006792Y012041D01*
X006864Y012113D01*
X006864Y012543D01*
X007657Y012543D01*
X007589Y012476D01*
X007538Y012351D01*
X007538Y012216D01*
X007589Y012091D01*
X007685Y011995D01*
X007810Y011943D01*
X007945Y011943D01*
X008038Y011982D01*
X008038Y011866D01*
X008089Y011741D01*
X008185Y011645D01*
X008310Y011593D01*
X008445Y011593D01*
X008570Y011645D01*
X008658Y011733D01*
X013010Y011733D01*
X013910Y012633D01*
X014360Y012633D01*
X014478Y012750D01*
X014676Y012949D01*
X014676Y013080D01*
X014732Y013080D01*
X014813Y013080D01*
X014854Y013090D01*
X014870Y013100D01*
X014870Y013100D01*
X015106Y013100D01*
X015122Y013090D01*
X015163Y013080D01*
X015244Y013080D01*
X015300Y013080D01*
X015300Y012683D01*
X014845Y012683D01*
X014364Y012203D01*
X014364Y012212D01*
X014282Y012294D01*
X013773Y012294D01*
X013691Y012212D01*
X013691Y011663D01*
X013771Y011583D01*
X013691Y011504D01*
X013691Y010954D01*
X013768Y010878D01*
X013768Y010778D01*
X013739Y010766D01*
X013595Y010622D01*
X013518Y010435D01*
X013518Y010232D01*
X013595Y010044D01*
X013739Y009901D01*
X013902Y009833D01*
X013739Y009766D01*
X013595Y009622D01*
X013518Y009435D01*
X013518Y009232D01*
X013595Y009044D01*
X013739Y008901D01*
X013830Y008863D01*
X013636Y008863D01*
X013596Y008852D01*
X013559Y008831D01*
X013530Y008802D01*
X013508Y008765D01*
X013498Y008724D01*
X013498Y008373D01*
X013988Y008373D01*
X013988Y008293D01*
X013498Y008293D01*
X013498Y007978D01*
X012222Y007978D01*
X012232Y007988D01*
X012281Y008056D01*
X012319Y008130D01*
X012344Y008209D01*
X012358Y008292D01*
X012358Y008293D01*
X011868Y008293D01*
X011868Y008307D02*
X013988Y008307D01*
X014068Y008307D02*
X014988Y008307D01*
X014988Y008293D02*
X014498Y008293D01*
X014068Y008293D01*
X014068Y008373D01*
X014988Y008373D01*
X014988Y008293D01*
X015068Y008293D02*
X015068Y008373D01*
X015988Y008373D01*
X015988Y008293D01*
X015498Y008293D01*
X015068Y008293D01*
X015068Y008307D02*
X015988Y008307D01*
X016068Y008307D02*
X016988Y008307D01*
X016988Y008293D02*
X016498Y008293D01*
X016068Y008293D01*
X016068Y008373D01*
X016988Y008373D01*
X016988Y008293D01*
X017068Y008293D02*
X017068Y008373D01*
X017558Y008373D01*
X017558Y008724D01*
X017547Y008765D01*
X017526Y008802D01*
X017496Y008831D01*
X017459Y008852D01*
X017419Y008863D01*
X017226Y008863D01*
X017316Y008901D01*
X017460Y009044D01*
X017481Y009095D01*
X017525Y009113D01*
X017775Y009363D01*
X017848Y009436D01*
X017860Y009466D01*
X017860Y008802D01*
X017942Y008606D01*
X018092Y008456D01*
X018288Y008374D01*
X018500Y008374D01*
X018696Y008456D01*
X018696Y008456D01*
X018847Y008606D01*
X018928Y008802D01*
X018928Y015420D01*
X018847Y015616D01*
X018719Y015743D01*
X019198Y015743D01*
X019198Y014931D01*
X019188Y014921D01*
X019188Y014667D01*
X019169Y014656D01*
X019140Y014627D01*
X019118Y014590D01*
X019108Y014549D01*
X019108Y014371D01*
X019840Y014371D01*
X019840Y014296D01*
X019108Y014296D01*
X019108Y014117D01*
X019118Y014077D01*
X019140Y014040D01*
X019168Y014012D01*
X019168Y013933D01*
X019168Y013782D01*
X019178Y013742D01*
X019200Y013705D01*
X019229Y013675D01*
X019266Y013654D01*
X019306Y013643D01*
X019388Y013643D01*
X019388Y013735D01*
X019388Y010176D01*
X019378Y010166D01*
X019378Y009273D01*
X019025Y009273D01*
X018943Y009191D01*
X018943Y008275D01*
X019025Y008193D01*
X019941Y008193D01*
X020023Y008275D01*
X020023Y009155D01*
X020326Y008852D01*
X020321Y008841D01*
X020321Y008626D01*
X020403Y008427D01*
X020555Y008276D01*
X020754Y008193D01*
X020968Y008193D01*
X021167Y008276D01*
X021319Y008427D01*
X021401Y008626D01*
X021401Y008841D01*
X021319Y009039D01*
X021167Y009191D01*
X021162Y009193D01*
X021510Y009193D01*
X021699Y009005D01*
X021699Y008275D01*
X021781Y008193D01*
X022697Y008193D01*
X022779Y008275D01*
X022779Y009090D01*
X023088Y008868D01*
X023077Y008841D01*
X023077Y008626D01*
X023159Y008427D01*
X023311Y008276D01*
X023510Y008193D01*
X023724Y008193D01*
X023923Y008276D01*
X023980Y008333D01*
X024190Y008139D01*
X024557Y007978D01*
X017558Y007978D01*
X017558Y008293D01*
X017068Y008293D01*
X017068Y008307D02*
X018943Y008307D01*
X018943Y008426D02*
X018624Y008426D01*
X018785Y008544D02*
X018943Y008544D01*
X018847Y008606D02*
X018847Y008606D01*
X018870Y008663D02*
X018943Y008663D01*
X018943Y008781D02*
X018919Y008781D01*
X018928Y008900D02*
X018943Y008900D01*
X018928Y009018D02*
X018943Y009018D01*
X018928Y009137D02*
X018943Y009137D01*
X018928Y009255D02*
X019007Y009255D01*
X018928Y009374D02*
X019378Y009374D01*
X019378Y009492D02*
X018928Y009492D01*
X018928Y009611D02*
X019378Y009611D01*
X019378Y009729D02*
X018928Y009729D01*
X018928Y009848D02*
X019378Y009848D01*
X019378Y009966D02*
X018928Y009966D01*
X018928Y010085D02*
X019378Y010085D01*
X019388Y010203D02*
X018928Y010203D01*
X018928Y010322D02*
X019388Y010322D01*
X019388Y010440D02*
X018928Y010440D01*
X018928Y010559D02*
X019388Y010559D01*
X019388Y010677D02*
X018928Y010677D01*
X018928Y010796D02*
X019388Y010796D01*
X019388Y010914D02*
X018928Y010914D01*
X018928Y011033D02*
X019388Y011033D01*
X019388Y011151D02*
X018928Y011151D01*
X018928Y011270D02*
X019388Y011270D01*
X019388Y011388D02*
X018928Y011388D01*
X018928Y011507D02*
X019388Y011507D01*
X019388Y011625D02*
X018928Y011625D01*
X018928Y011744D02*
X019388Y011744D01*
X019388Y011862D02*
X018928Y011862D01*
X018928Y011981D02*
X019388Y011981D01*
X019388Y012099D02*
X018928Y012099D01*
X018928Y012218D02*
X019388Y012218D01*
X019388Y012336D02*
X018928Y012336D01*
X018928Y012455D02*
X019388Y012455D01*
X019388Y012573D02*
X018928Y012573D01*
X018928Y012692D02*
X019388Y012692D01*
X019388Y012810D02*
X018928Y012810D01*
X018928Y012929D02*
X019388Y012929D01*
X019388Y013047D02*
X018928Y013047D01*
X018928Y013166D02*
X019388Y013166D01*
X019388Y013284D02*
X018928Y013284D01*
X018928Y013403D02*
X019388Y013403D01*
X019388Y013521D02*
X018928Y013521D01*
X018928Y013640D02*
X019388Y013640D01*
X019388Y013735D02*
X019388Y013735D01*
X019378Y013933D02*
X019168Y013933D01*
X019378Y013933D01*
X019378Y013933D01*
X019168Y013877D02*
X018928Y013877D01*
X018928Y013995D02*
X019168Y013995D01*
X019108Y014114D02*
X018928Y014114D01*
X018928Y014232D02*
X019108Y014232D01*
X018928Y014351D02*
X019840Y014351D01*
X019778Y013933D02*
X019778Y009683D01*
X019828Y009633D01*
X019953Y009508D01*
X020728Y008733D01*
X020861Y008733D01*
X021221Y009137D02*
X021567Y009137D01*
X021685Y009018D02*
X021327Y009018D01*
X021377Y008900D02*
X021699Y008900D01*
X021699Y008781D02*
X021401Y008781D01*
X021401Y008663D02*
X021699Y008663D01*
X021699Y008544D02*
X021367Y008544D01*
X021317Y008426D02*
X021699Y008426D01*
X021699Y008307D02*
X021199Y008307D01*
X020523Y008307D02*
X020023Y008307D01*
X020023Y008426D02*
X020405Y008426D01*
X020355Y008544D02*
X020023Y008544D01*
X020023Y008663D02*
X020321Y008663D01*
X020321Y008781D02*
X020023Y008781D01*
X020023Y008900D02*
X020278Y008900D01*
X020160Y009018D02*
X020023Y009018D01*
X020023Y009137D02*
X020041Y009137D01*
X019578Y008828D02*
X019483Y008733D01*
X019578Y008828D02*
X019578Y010083D01*
X020178Y010733D02*
X021278Y009633D01*
X022367Y009633D01*
X023617Y008733D01*
X023428Y008733D01*
X023328Y008833D01*
X023328Y009983D01*
X023578Y010233D01*
X023567Y017172D01*
X025728Y019483D01*
X025524Y018973D02*
X026123Y018973D01*
X026123Y017087D01*
X026073Y017138D01*
X026005Y017187D01*
X025931Y017225D01*
X025852Y017250D01*
X025769Y017263D01*
X025768Y017263D01*
X025768Y016773D01*
X025688Y016773D01*
X025688Y016693D01*
X025198Y016693D01*
X025198Y016692D01*
X025211Y016609D01*
X025236Y016530D01*
X025274Y016456D01*
X025323Y016388D01*
X025382Y016329D01*
X025450Y016280D01*
X025524Y016242D01*
X025580Y016224D01*
X025439Y016166D01*
X025295Y016022D01*
X025218Y015835D01*
X025218Y015632D01*
X025295Y015444D01*
X025439Y015301D01*
X025602Y015233D01*
X025439Y015166D01*
X025295Y015022D01*
X025218Y014835D01*
X025218Y014632D01*
X025295Y014444D01*
X025439Y014301D01*
X025602Y014233D01*
X025439Y014166D01*
X025295Y014022D01*
X025218Y013835D01*
X025218Y013632D01*
X025295Y013444D01*
X025439Y013301D01*
X025602Y013233D01*
X025439Y013166D01*
X023773Y013166D01*
X023773Y013284D02*
X025479Y013284D01*
X025439Y013166D02*
X025295Y013022D01*
X025218Y012835D01*
X025218Y012632D01*
X025295Y012444D01*
X025439Y012301D01*
X025578Y012243D01*
X025300Y012243D01*
X025218Y012161D01*
X025218Y011305D01*
X025300Y011223D01*
X026123Y011223D01*
X026123Y009510D01*
X026016Y009821D01*
X025757Y010153D01*
X025405Y010384D01*
X024996Y010487D01*
X024576Y010453D01*
X024190Y010283D01*
X023880Y009998D01*
X023679Y009627D01*
X023620Y009273D01*
X023528Y009273D01*
X023528Y009900D01*
X023661Y010033D01*
X023719Y010092D01*
X023778Y010150D01*
X023778Y010151D01*
X023778Y010234D01*
X023778Y010316D01*
X023777Y010316D01*
X023767Y017094D01*
X025524Y018973D01*
X025524Y018972D02*
X026123Y018972D01*
X026123Y018854D02*
X025413Y018854D01*
X025302Y018735D02*
X026123Y018735D01*
X026123Y018617D02*
X025191Y018617D01*
X025080Y018498D02*
X026123Y018498D01*
X026123Y018380D02*
X024970Y018380D01*
X024859Y018261D02*
X026123Y018261D01*
X026123Y018143D02*
X024748Y018143D01*
X024637Y018024D02*
X026123Y018024D01*
X026123Y017906D02*
X024526Y017906D01*
X024415Y017787D02*
X026123Y017787D01*
X026123Y017669D02*
X024305Y017669D01*
X024194Y017550D02*
X026123Y017550D01*
X026123Y017432D02*
X024083Y017432D01*
X023972Y017313D02*
X026123Y017313D01*
X026123Y017195D02*
X025989Y017195D01*
X025768Y017195D02*
X025688Y017195D01*
X025688Y017263D02*
X025686Y017263D01*
X025603Y017250D01*
X025524Y017225D01*
X025450Y017187D01*
X025382Y017138D01*
X025323Y017079D01*
X025274Y017011D01*
X025236Y016937D01*
X025211Y016857D01*
X025198Y016775D01*
X025198Y016773D01*
X025688Y016773D01*
X025688Y017263D01*
X025688Y017076D02*
X025768Y017076D01*
X025768Y016958D02*
X025688Y016958D01*
X025688Y016839D02*
X025768Y016839D01*
X025688Y016721D02*
X023767Y016721D01*
X023767Y016839D02*
X025208Y016839D01*
X025247Y016958D02*
X023767Y016958D01*
X023767Y017076D02*
X025322Y017076D01*
X025466Y017195D02*
X023861Y017195D01*
X023767Y016602D02*
X025213Y016602D01*
X025260Y016484D02*
X023768Y016484D01*
X023768Y016365D02*
X025346Y016365D01*
X025515Y016247D02*
X023768Y016247D01*
X023768Y016128D02*
X025401Y016128D01*
X025290Y016010D02*
X023768Y016010D01*
X023769Y015891D02*
X025241Y015891D01*
X025218Y015773D02*
X023769Y015773D01*
X023769Y015654D02*
X025218Y015654D01*
X025257Y015536D02*
X023769Y015536D01*
X023769Y015417D02*
X025322Y015417D01*
X025444Y015299D02*
X023770Y015299D01*
X023770Y015180D02*
X025474Y015180D01*
X025335Y015062D02*
X023770Y015062D01*
X023770Y014943D02*
X025263Y014943D01*
X025218Y014825D02*
X023770Y014825D01*
X023770Y014706D02*
X025218Y014706D01*
X025236Y014588D02*
X023771Y014588D01*
X023771Y014469D02*
X025285Y014469D01*
X025389Y014351D02*
X023771Y014351D01*
X023771Y014232D02*
X025600Y014232D01*
X025387Y014114D02*
X023771Y014114D01*
X023772Y013995D02*
X025284Y013995D01*
X025235Y013877D02*
X023772Y013877D01*
X023772Y013758D02*
X025218Y013758D01*
X025218Y013640D02*
X023772Y013640D01*
X023772Y013521D02*
X025263Y013521D01*
X025337Y013403D02*
X023773Y013403D01*
X023773Y013047D02*
X025320Y013047D01*
X025257Y012929D02*
X023773Y012929D01*
X023773Y012810D02*
X025218Y012810D01*
X025218Y012692D02*
X023774Y012692D01*
X023774Y012573D02*
X025242Y012573D01*
X025291Y012455D02*
X023774Y012455D01*
X023774Y012336D02*
X025403Y012336D01*
X025274Y012218D02*
X023774Y012218D01*
X023775Y012099D02*
X025218Y012099D01*
X025218Y011981D02*
X023775Y011981D01*
X023775Y011862D02*
X025218Y011862D01*
X025218Y011744D02*
X023775Y011744D01*
X023775Y011625D02*
X025218Y011625D01*
X025218Y011507D02*
X023776Y011507D01*
X023776Y011388D02*
X025218Y011388D01*
X025253Y011270D02*
X023776Y011270D01*
X023776Y011151D02*
X026123Y011151D01*
X026123Y011033D02*
X023776Y011033D01*
X023776Y010914D02*
X026123Y010914D01*
X026123Y010796D02*
X023777Y010796D01*
X023777Y010677D02*
X026123Y010677D01*
X026123Y010559D02*
X023777Y010559D01*
X023777Y010440D02*
X024548Y010440D01*
X024278Y010322D02*
X023777Y010322D01*
X023778Y010203D02*
X024103Y010203D01*
X023974Y010085D02*
X023712Y010085D01*
X023661Y010033D02*
X023661Y010033D01*
X023593Y009966D02*
X023863Y009966D01*
X023799Y009848D02*
X023528Y009848D01*
X023528Y009729D02*
X023734Y009729D01*
X023676Y009611D02*
X023528Y009611D01*
X023528Y009492D02*
X023657Y009492D01*
X023637Y009374D02*
X023528Y009374D01*
X023043Y008900D02*
X022779Y008900D01*
X022779Y009018D02*
X022879Y009018D01*
X022779Y008781D02*
X023077Y008781D01*
X023077Y008663D02*
X022779Y008663D01*
X022779Y008544D02*
X023111Y008544D01*
X023161Y008426D02*
X022779Y008426D01*
X022779Y008307D02*
X023279Y008307D01*
X023955Y008307D02*
X024007Y008307D01*
X024136Y008189D02*
X017558Y008189D01*
X017558Y008070D02*
X024347Y008070D01*
X025995Y009848D02*
X026123Y009848D01*
X026123Y009966D02*
X025903Y009966D01*
X025811Y010085D02*
X026123Y010085D01*
X026123Y010203D02*
X025681Y010203D01*
X025500Y010322D02*
X026123Y010322D01*
X026123Y010440D02*
X025182Y010440D01*
X026048Y009729D02*
X026123Y009729D01*
X026123Y009611D02*
X026088Y009611D01*
X023778Y010151D02*
X023778Y010151D01*
X021828Y010983D02*
X021828Y011983D01*
X022428Y012583D01*
X022428Y017133D01*
X025728Y020483D01*
X025256Y020289D02*
X022286Y017274D01*
X022228Y017216D01*
X022228Y017215D01*
X022227Y017215D01*
X022228Y017133D01*
X022228Y014977D01*
X022223Y014982D01*
X022186Y015003D01*
X022145Y015014D01*
X021966Y015014D01*
X021966Y014676D01*
X021889Y014676D01*
X021889Y014599D01*
X021366Y014599D01*
X021366Y014676D01*
X021684Y014676D01*
X021889Y014676D01*
X021889Y015014D01*
X021710Y015014D01*
X021669Y015003D01*
X021632Y014982D01*
X021628Y014977D01*
X021623Y014982D01*
X021586Y015003D01*
X021545Y015014D01*
X021366Y015014D01*
X021366Y014676D01*
X021289Y014676D01*
X021289Y015014D01*
X021138Y015014D01*
X021138Y018085D01*
X021098Y018181D01*
X021025Y018254D01*
X019875Y019404D01*
X019779Y019443D01*
X017888Y019443D01*
X017888Y023585D01*
X017848Y023681D01*
X017498Y024031D01*
X017425Y024104D01*
X017329Y024143D01*
X016317Y024143D01*
X016367Y024263D01*
X019014Y024263D01*
X018989Y024238D01*
X018968Y024202D01*
X018957Y024161D01*
X018957Y023982D01*
X019295Y023982D01*
X019295Y024300D01*
X019206Y024300D01*
X019519Y024613D01*
X019648Y024742D01*
X019648Y025948D01*
X019677Y025960D01*
X019728Y026011D01*
X019728Y025050D01*
X019838Y024940D01*
X019838Y024816D01*
X019889Y024691D01*
X019985Y024595D01*
X020110Y024543D01*
X020245Y024543D01*
X020370Y024595D01*
X020466Y024691D01*
X020518Y024816D01*
X020518Y024951D01*
X020466Y025076D01*
X020370Y025172D01*
X020245Y025223D01*
X020128Y025223D01*
X020128Y026011D01*
X020178Y025960D01*
X020340Y025893D01*
X020515Y025893D01*
X020677Y025960D01*
X020801Y026084D01*
X020868Y026246D01*
X020868Y026421D01*
X020801Y026583D01*
X020677Y026706D01*
X020515Y026773D01*
X020456Y026773D01*
X019668Y027562D01*
X019668Y027650D01*
X019709Y027608D01*
X019880Y027538D01*
X019955Y027538D01*
X021012Y026480D01*
X020988Y026421D01*
X020988Y026246D01*
X021055Y026084D01*
X021178Y025960D01*
X021340Y025893D01*
X021515Y025893D01*
X021677Y025960D01*
X021801Y026084D01*
X021868Y026246D01*
X021868Y026421D01*
X021801Y026583D01*
X021677Y026706D01*
X021515Y026773D01*
X021340Y026773D01*
X021281Y026749D01*
X020329Y027701D01*
X020367Y027739D01*
X020438Y027910D01*
X020438Y028095D01*
X020367Y028266D01*
X020236Y028397D01*
X020065Y028468D01*
X019880Y028468D01*
X019709Y028397D01*
X019668Y028355D01*
X019668Y028562D01*
X019403Y028826D01*
X019438Y028910D01*
X019438Y029095D01*
X019367Y029266D01*
X019236Y029397D01*
X019065Y029468D01*
X018880Y029468D01*
X018709Y029397D01*
X018579Y029266D01*
X018508Y029095D01*
X018508Y028910D01*
X018579Y028739D01*
X018709Y028608D01*
X018880Y028538D01*
X019065Y028538D01*
X019128Y028564D01*
X019288Y028405D01*
X019288Y028346D01*
X019236Y028397D01*
X019065Y028468D01*
X018880Y028468D01*
X018709Y028397D01*
X018678Y028365D01*
X018678Y028466D01*
X018560Y028583D01*
X018460Y028683D01*
X018339Y028683D01*
X018343Y028687D01*
X018388Y028748D01*
X018422Y028816D01*
X018446Y028889D01*
X018458Y028963D01*
X018013Y028963D01*
X018013Y029043D01*
X017933Y029043D01*
X017933Y029487D01*
X017859Y029476D01*
X017787Y029452D01*
X017719Y029417D01*
X017657Y029373D01*
X017603Y029319D01*
X017558Y029257D01*
X017523Y029189D01*
X017500Y029116D01*
X017488Y029043D01*
X017933Y029043D01*
X017933Y028963D01*
X017488Y028963D01*
X017500Y028889D01*
X017523Y028816D01*
X017558Y028748D01*
X017603Y028687D01*
X017606Y028683D01*
X017575Y028683D01*
X017412Y028847D01*
X017438Y028910D01*
X017438Y029095D01*
X017367Y029266D01*
X017236Y029397D01*
X017065Y029468D01*
X016880Y029468D01*
X016709Y029397D01*
X016579Y029266D01*
X016508Y029095D01*
X016508Y028972D01*
X016438Y029042D01*
X016438Y029095D01*
X016367Y029266D01*
X016236Y029397D01*
X016065Y029468D01*
X015880Y029468D01*
X015709Y029397D01*
X015579Y029266D01*
X015508Y029095D01*
X015508Y028972D01*
X015438Y029042D01*
X015438Y029095D01*
X015367Y029266D01*
X015236Y029397D01*
X015065Y029468D01*
X014880Y029468D01*
X014709Y029397D01*
X014579Y029266D01*
X014508Y029095D01*
X014508Y028910D01*
X014579Y028739D01*
X014709Y028608D01*
X014880Y028538D01*
X015065Y028538D01*
X015236Y028608D01*
X015285Y028657D01*
X015288Y028655D01*
X015288Y028346D01*
X015236Y028397D01*
X015065Y028468D01*
X014880Y028468D01*
X014709Y028397D01*
X014579Y028266D01*
X014508Y028095D01*
X014508Y027910D01*
X014579Y027739D01*
X014709Y027608D01*
X014783Y027578D01*
X014783Y026709D01*
X014894Y026598D01*
X015012Y026480D01*
X014988Y026421D01*
X014988Y026246D01*
X015055Y026084D01*
X015178Y025960D01*
X015340Y025893D01*
X015515Y025893D01*
X015677Y025960D01*
X015801Y026084D01*
X015868Y026246D01*
X015868Y026421D01*
X015801Y026583D01*
X015677Y026706D01*
X015515Y026773D01*
X015340Y026773D01*
X015281Y026749D01*
X015163Y026867D01*
X015163Y027578D01*
X015236Y027608D01*
X015288Y027660D01*
X015288Y027205D01*
X015399Y027093D01*
X016012Y026480D01*
X015988Y026421D01*
X015988Y026246D01*
X016055Y026084D01*
X016178Y025960D01*
X016340Y025893D01*
X016515Y025893D01*
X016677Y025960D01*
X016801Y026084D01*
X016868Y026246D01*
X016868Y026421D01*
X016801Y026583D01*
X016677Y026706D01*
X016515Y026773D01*
X016340Y026773D01*
X016281Y026749D01*
X015668Y027362D01*
X015668Y027625D01*
X015719Y027588D01*
X015787Y027553D01*
X015859Y027530D01*
X015933Y027518D01*
X015933Y027963D01*
X016013Y027963D01*
X016013Y027518D01*
X016086Y027530D01*
X016159Y027553D01*
X016227Y027588D01*
X016288Y027632D01*
X016288Y027205D01*
X016399Y027093D01*
X017012Y026480D01*
X016988Y026421D01*
X016988Y026246D01*
X017055Y026084D01*
X017178Y025960D01*
X017340Y025893D01*
X017515Y025893D01*
X017677Y025960D01*
X017801Y026084D01*
X017868Y026246D01*
X017868Y026421D01*
X017801Y026583D01*
X017677Y026706D01*
X017515Y026773D01*
X017340Y026773D01*
X017281Y026749D01*
X016668Y027362D01*
X016668Y027650D01*
X016709Y027608D01*
X016880Y027538D01*
X017065Y027538D01*
X017236Y027608D01*
X017367Y027739D01*
X017438Y027910D01*
X017438Y028095D01*
X017367Y028266D01*
X017236Y028397D01*
X017065Y028468D01*
X016880Y028468D01*
X016709Y028397D01*
X016668Y028355D01*
X016668Y028650D01*
X016709Y028608D01*
X016880Y028538D01*
X017065Y028538D01*
X017129Y028564D01*
X017292Y028400D01*
X017409Y028283D01*
X017596Y028283D01*
X017579Y028266D01*
X017508Y028095D01*
X017508Y027910D01*
X017579Y027739D01*
X017709Y027608D01*
X017880Y027538D01*
X018065Y027538D01*
X018236Y027608D01*
X018278Y027650D01*
X018278Y027450D01*
X018778Y026950D01*
X018895Y026833D01*
X019345Y026833D01*
X019405Y026773D01*
X019340Y026773D01*
X019178Y026706D01*
X019055Y026583D01*
X018988Y026421D01*
X018988Y026246D01*
X019055Y026084D01*
X019178Y025960D01*
X019208Y025948D01*
X019208Y024924D01*
X018986Y024703D01*
X017109Y024703D01*
X018311Y025905D01*
X018340Y025893D01*
X018515Y025893D01*
X018677Y025960D01*
X018801Y026084D01*
X018868Y026246D01*
X018868Y026421D01*
X018801Y026583D01*
X018677Y026706D01*
X018515Y026773D01*
X018340Y026773D01*
X018178Y026706D01*
X018055Y026583D01*
X017988Y026421D01*
X017988Y026246D01*
X018000Y026217D01*
X016836Y025053D01*
X015738Y025053D01*
X015670Y025122D01*
X015545Y025173D01*
X015410Y025173D01*
X015285Y025122D01*
X015189Y025026D01*
X015138Y024901D01*
X015138Y024766D01*
X015189Y024641D01*
X015285Y024545D01*
X015410Y024493D01*
X015545Y024493D01*
X015670Y024545D01*
X015738Y024613D01*
X015827Y024613D01*
X015739Y024526D01*
X015688Y024401D01*
X015688Y024266D01*
X015738Y024143D01*
X005926Y024143D01*
X005830Y024104D01*
X005591Y023864D01*
X005517Y023791D01*
X005478Y023695D01*
X005478Y023568D01*
X005365Y023568D01*
X005283Y023486D01*
X005283Y023451D01*
X004089Y023451D01*
X004060Y023522D01*
X003916Y023666D01*
X003777Y023723D01*
X004056Y023723D01*
X004138Y023805D01*
X004138Y024661D01*
X004056Y024743D01*
X003200Y024743D01*
X003118Y024661D01*
X003118Y024454D01*
X002998Y024574D01*
X002998Y025524D01*
X002748Y025774D01*
X002619Y025903D01*
X002539Y025903D01*
X002677Y025960D01*
X002801Y026084D01*
X002868Y026246D01*
X002868Y026421D01*
X002847Y026470D01*
X003660Y027283D01*
X004095Y027283D01*
X003564Y026753D01*
X003515Y026773D01*
X003340Y026773D01*
X003178Y026706D01*
X003055Y026583D01*
X002988Y026421D01*
X002988Y026246D01*
X003055Y026084D01*
X003178Y025960D01*
X003340Y025893D01*
X003515Y025893D01*
X003677Y025960D01*
X003801Y026084D01*
X003868Y026246D01*
X003868Y026421D01*
X003847Y026470D01*
X004460Y027083D01*
X005710Y027083D01*
X006056Y027429D01*
X006173Y027546D01*
X006173Y027582D01*
X006236Y027608D01*
X006288Y027660D01*
X006288Y027462D01*
X005574Y026749D01*
X005515Y026773D01*
X005340Y026773D01*
X005178Y026706D01*
X005055Y026583D01*
X004988Y026421D01*
X004988Y026246D01*
X005055Y026084D01*
X005178Y025960D01*
X005340Y025893D01*
X005515Y025893D01*
X005677Y025960D01*
X005801Y026084D01*
X005868Y026246D01*
X005868Y026421D01*
X005843Y026480D01*
X006556Y027193D01*
X006668Y027305D01*
X006668Y027650D01*
X006709Y027608D01*
X006880Y027538D01*
X007065Y027538D01*
X007236Y027608D01*
X007367Y027739D01*
X007438Y027910D01*
X007438Y028095D01*
X007367Y028266D01*
X007290Y028343D01*
X007628Y028343D01*
X007603Y028319D01*
X007558Y028257D01*
X007523Y028189D01*
X007500Y028116D01*
X007488Y028043D01*
X007933Y028043D01*
X007933Y028420D01*
X008051Y028538D01*
X008065Y028538D01*
X008236Y028608D01*
X008367Y028739D01*
X008438Y028910D01*
X008438Y029095D01*
X008367Y029266D01*
X008236Y029397D01*
X008065Y029468D01*
X007880Y029468D01*
X007709Y029397D01*
X007579Y029266D01*
X007508Y029095D01*
X007508Y028910D01*
X007579Y028739D01*
X007595Y028723D01*
X007351Y028723D01*
X007367Y028739D01*
X007438Y028910D01*
X007438Y029095D01*
X007367Y029266D01*
X007236Y029397D01*
X007065Y029468D01*
X006880Y029468D01*
X006709Y029397D01*
X006579Y029266D01*
X006508Y029095D01*
X006508Y028910D01*
X006579Y028739D01*
X006595Y028723D01*
X006549Y028723D01*
X006438Y028612D01*
X006399Y028573D01*
X006399Y028573D01*
X006288Y028462D01*
X006288Y028346D01*
X006236Y028397D01*
X006065Y028468D01*
X005880Y028468D01*
X005709Y028397D01*
X005579Y028266D01*
X005508Y028095D01*
X005508Y027910D01*
X005579Y027739D01*
X005690Y027628D01*
X005545Y027483D01*
X004910Y027483D01*
X004965Y027538D01*
X005065Y027538D01*
X005236Y027608D01*
X005367Y027739D01*
X005438Y027910D01*
X005438Y028095D01*
X005367Y028266D01*
X005236Y028397D01*
X005065Y028468D01*
X004880Y028468D01*
X004709Y028397D01*
X004579Y028266D01*
X004508Y028095D01*
X004508Y027910D01*
X004579Y027739D01*
X004590Y027728D01*
X004545Y027683D01*
X004438Y027683D01*
X004438Y028386D01*
X004356Y028468D01*
X003648Y028468D01*
X003648Y028670D01*
X003709Y028608D01*
X003880Y028538D01*
X004065Y028538D01*
X004236Y028608D01*
X004367Y028739D01*
X004385Y028783D01*
X004561Y028783D01*
X004579Y028739D01*
X004709Y028608D01*
X004880Y028538D01*
X005065Y028538D01*
X005236Y028608D01*
X005367Y028739D01*
X005438Y028910D01*
X005438Y029095D01*
X005367Y029266D01*
X005236Y029397D01*
X005065Y029468D01*
X004880Y029468D01*
X004709Y029397D01*
X004579Y029266D01*
X004561Y029223D01*
X004385Y029223D01*
X004367Y029266D01*
X004236Y029397D01*
X004065Y029468D01*
X003880Y029468D01*
X003709Y029397D01*
X003579Y029266D01*
X003561Y029223D01*
X003456Y029223D01*
X003327Y029094D01*
X003223Y028990D01*
X003182Y029112D01*
X002923Y029445D01*
X002570Y029675D01*
X002332Y029736D01*
X024557Y029736D01*
X024190Y029575D01*
X023880Y029289D01*
X023679Y028918D01*
X023671Y028872D01*
X023458Y029085D01*
X023430Y029114D01*
X023367Y029266D01*
X023236Y029397D01*
X023065Y029468D01*
X022880Y029468D01*
X022709Y029397D01*
X022579Y029266D01*
X022508Y029095D01*
X022508Y028910D01*
X022579Y028739D01*
X022709Y028608D01*
X022880Y028538D01*
X023065Y028538D01*
X023236Y028608D01*
X023278Y028650D01*
X023278Y028381D01*
X023227Y028417D01*
X023159Y028452D01*
X023086Y028476D01*
X023013Y028487D01*
X023013Y028043D01*
X022933Y028043D01*
X022933Y028487D01*
X022859Y028476D01*
X022787Y028452D01*
X022719Y028417D01*
X022668Y028380D01*
X022668Y028577D01*
X022407Y028837D01*
X022438Y028910D01*
X022438Y029095D01*
X022367Y029266D01*
X022236Y029397D01*
X022065Y029468D01*
X021880Y029468D01*
X021709Y029397D01*
X021579Y029266D01*
X021516Y029114D01*
X021437Y029193D01*
X021397Y029193D01*
X021367Y029266D01*
X021236Y029397D01*
X021065Y029468D01*
X020880Y029468D01*
X020709Y029397D01*
X020579Y029266D01*
X020508Y029095D01*
X020508Y028910D01*
X020579Y028739D01*
X020709Y028608D01*
X020880Y028538D01*
X021065Y028538D01*
X021236Y028608D01*
X021288Y028660D01*
X021288Y028346D01*
X021236Y028397D01*
X021065Y028468D01*
X020880Y028468D01*
X020709Y028397D01*
X020579Y028266D01*
X020508Y028095D01*
X020508Y027910D01*
X020579Y027739D01*
X020709Y027608D01*
X020880Y027538D01*
X021065Y027538D01*
X021236Y027608D01*
X021288Y027660D01*
X021288Y027205D01*
X021399Y027093D01*
X022012Y026480D01*
X021988Y026421D01*
X021988Y026246D01*
X022055Y026084D01*
X022178Y025960D01*
X022340Y025893D01*
X022515Y025893D01*
X022677Y025960D01*
X022801Y026084D01*
X022868Y026246D01*
X022868Y026421D01*
X022801Y026583D01*
X022677Y026706D01*
X022515Y026773D01*
X022340Y026773D01*
X022281Y026749D01*
X021668Y027362D01*
X021668Y027650D01*
X021709Y027608D01*
X021880Y027538D01*
X022065Y027538D01*
X022236Y027608D01*
X022288Y027660D01*
X022288Y027605D01*
X022399Y027493D01*
X022599Y027293D01*
X023199Y027293D01*
X024012Y026480D01*
X023988Y026421D01*
X023988Y026246D01*
X024055Y026084D01*
X024178Y025960D01*
X024228Y025940D01*
X024228Y023700D01*
X024345Y023583D01*
X025254Y022674D01*
X025218Y022585D01*
X025218Y022382D01*
X025295Y022194D01*
X025439Y022051D01*
X025602Y021983D01*
X025439Y021916D01*
X025295Y021772D01*
X025218Y021585D01*
X025218Y021484D01*
X024958Y021224D01*
X023350Y021224D01*
X023350Y021243D02*
X023233Y021360D01*
X023160Y021433D01*
X022564Y021433D01*
X022564Y021462D01*
X022482Y021544D01*
X022428Y021544D01*
X022428Y021573D01*
X022853Y021573D01*
X023309Y021573D01*
X023350Y021584D01*
X023386Y021605D01*
X023416Y021634D01*
X023437Y021671D01*
X023448Y021712D01*
X023448Y021853D01*
X023448Y021994D01*
X023437Y022034D01*
X023416Y022071D01*
X023386Y022101D01*
X023383Y022103D01*
X023386Y022105D01*
X023416Y022134D01*
X023437Y022171D01*
X023448Y022212D01*
X023448Y022353D01*
X023448Y022494D01*
X023437Y022534D01*
X023416Y022571D01*
X023386Y022601D01*
X023383Y022603D01*
X023386Y022605D01*
X023416Y022634D01*
X023437Y022671D01*
X023448Y022712D01*
X023448Y022853D01*
X023448Y022994D01*
X023437Y023034D01*
X023416Y023071D01*
X023386Y023101D01*
X023383Y023103D01*
X023386Y023105D01*
X023416Y023134D01*
X023437Y023171D01*
X023448Y023212D01*
X023448Y023353D01*
X023448Y023494D01*
X023437Y023534D01*
X023416Y023571D01*
X023386Y023601D01*
X023350Y023622D01*
X023309Y023633D01*
X022853Y023633D01*
X022853Y023353D01*
X022853Y023353D01*
X023448Y023353D01*
X022853Y023353D01*
X022853Y023353D01*
X022853Y023633D01*
X022397Y023633D01*
X022356Y023622D01*
X022320Y023601D01*
X022290Y023571D01*
X022269Y023534D01*
X022258Y023494D01*
X022258Y023353D01*
X022853Y023353D01*
X022853Y023353D01*
X022853Y022853D01*
X022853Y022853D01*
X023448Y022853D01*
X022853Y022853D01*
X022853Y022853D01*
X022853Y023133D01*
X022853Y023353D01*
X022853Y023353D01*
X022258Y023353D01*
X022258Y023212D01*
X022269Y023171D01*
X022290Y023134D01*
X022320Y023105D01*
X022323Y023103D01*
X022320Y023101D01*
X022290Y023071D01*
X022269Y023034D01*
X022258Y022994D01*
X022258Y022853D01*
X022853Y022853D01*
X022853Y022853D01*
X022853Y022353D01*
X022853Y022353D01*
X023448Y022353D01*
X022853Y022353D01*
X022853Y022353D01*
X022853Y022633D01*
X022853Y022853D01*
X022853Y022853D01*
X022258Y022853D01*
X022258Y022736D01*
X021960Y023033D01*
X020775Y023033D01*
X020706Y023103D01*
X020778Y023175D01*
X020778Y023531D01*
X020696Y023613D01*
X020323Y023613D01*
X020398Y023688D01*
X020398Y024198D01*
X020316Y024280D01*
X019767Y024280D01*
X019695Y024208D01*
X019678Y024238D01*
X019648Y024268D01*
X019612Y024289D01*
X019571Y024300D01*
X019372Y024300D01*
X019372Y023982D01*
X019295Y023982D01*
X019295Y023905D01*
X019372Y023905D01*
X019372Y023586D01*
X019571Y023586D01*
X019612Y023597D01*
X019648Y023618D01*
X019678Y023648D01*
X019695Y023679D01*
X019761Y023613D01*
X019710Y023613D01*
X019631Y023533D01*
X018345Y023533D01*
X018195Y023383D01*
X018078Y023266D01*
X018078Y021300D01*
X018182Y021196D01*
X018299Y021079D01*
X018941Y021079D01*
X018941Y021004D01*
X019023Y020922D01*
X019351Y020922D01*
X019738Y020536D01*
X019738Y020411D01*
X019789Y020286D01*
X019885Y020191D01*
X020010Y020139D01*
X020145Y020139D01*
X020270Y020191D01*
X020358Y020279D01*
X020741Y020279D01*
X020741Y020204D01*
X020823Y020122D01*
X021332Y020122D01*
X021414Y020204D01*
X021414Y020279D01*
X021891Y020279D01*
X021891Y020204D01*
X021973Y020122D01*
X022008Y020122D01*
X022008Y019292D01*
X022108Y019192D01*
X022236Y019063D01*
X023969Y019063D01*
X025238Y020333D01*
X025256Y020289D01*
X025242Y020276D02*
X025181Y020276D01*
X025126Y020157D02*
X025063Y020157D01*
X025009Y020039D02*
X024944Y020039D01*
X024892Y019920D02*
X024826Y019920D01*
X024776Y019802D02*
X024707Y019802D01*
X024659Y019683D02*
X024589Y019683D01*
X024542Y019565D02*
X024470Y019565D01*
X024425Y019446D02*
X024352Y019446D01*
X024309Y019328D02*
X024233Y019328D01*
X024192Y019209D02*
X024115Y019209D01*
X024075Y019091D02*
X023996Y019091D01*
X023958Y018972D02*
X020306Y018972D01*
X020425Y018854D02*
X023842Y018854D01*
X023725Y018735D02*
X020543Y018735D01*
X020662Y018617D02*
X023608Y018617D01*
X023491Y018498D02*
X020780Y018498D01*
X020899Y018380D02*
X023375Y018380D01*
X023258Y018261D02*
X021017Y018261D01*
X021114Y018143D02*
X023141Y018143D01*
X023025Y018024D02*
X021138Y018024D01*
X021138Y017906D02*
X022908Y017906D01*
X022791Y017787D02*
X021138Y017787D01*
X021138Y017669D02*
X022674Y017669D01*
X022558Y017550D02*
X021138Y017550D01*
X021138Y017432D02*
X022441Y017432D01*
X022324Y017313D02*
X021138Y017313D01*
X021138Y017195D02*
X022227Y017195D01*
X022228Y017076D02*
X021138Y017076D01*
X021138Y016958D02*
X022228Y016958D01*
X022228Y016839D02*
X021138Y016839D01*
X021138Y016721D02*
X022228Y016721D01*
X022228Y016602D02*
X021138Y016602D01*
X021138Y016484D02*
X022228Y016484D01*
X022228Y016365D02*
X021138Y016365D01*
X021138Y016247D02*
X022228Y016247D01*
X022228Y016128D02*
X021138Y016128D01*
X021138Y016010D02*
X022228Y016010D01*
X022228Y015891D02*
X021138Y015891D01*
X021138Y015773D02*
X022228Y015773D01*
X022228Y015654D02*
X021138Y015654D01*
X021138Y015536D02*
X022228Y015536D01*
X022228Y015417D02*
X021138Y015417D01*
X021138Y015299D02*
X022228Y015299D01*
X022228Y015180D02*
X021138Y015180D01*
X021138Y015062D02*
X022228Y015062D01*
X021966Y014943D02*
X021889Y014943D01*
X021889Y014825D02*
X021966Y014825D01*
X021966Y014706D02*
X021889Y014706D01*
X021366Y014706D02*
X021289Y014706D01*
X021289Y014825D02*
X021366Y014825D01*
X021366Y014943D02*
X021289Y014943D01*
X020618Y014943D02*
X020568Y014943D01*
X020568Y014825D02*
X020618Y014825D01*
X020618Y014706D02*
X020568Y014706D01*
X020568Y015062D02*
X020618Y015062D01*
X020618Y015180D02*
X020568Y015180D01*
X020568Y015299D02*
X020618Y015299D01*
X020618Y015417D02*
X020568Y015417D01*
X020568Y015536D02*
X020618Y015536D01*
X020618Y015654D02*
X020568Y015654D01*
X020568Y015773D02*
X020618Y015773D01*
X020618Y015891D02*
X020568Y015891D01*
X020568Y016010D02*
X020618Y016010D01*
X020618Y016128D02*
X020568Y016128D01*
X020568Y016247D02*
X020618Y016247D01*
X020618Y016365D02*
X020578Y016365D01*
X020578Y016484D02*
X020618Y016484D01*
X020618Y016602D02*
X020578Y016602D01*
X020578Y016721D02*
X020618Y016721D01*
X020618Y016839D02*
X020578Y016839D01*
X020578Y016958D02*
X020618Y016958D01*
X020618Y017076D02*
X020578Y017076D01*
X020578Y017195D02*
X020618Y017195D01*
X020618Y017313D02*
X020578Y017313D01*
X020578Y017432D02*
X020618Y017432D01*
X020618Y017550D02*
X020578Y017550D01*
X020580Y017669D02*
X020618Y017669D01*
X020618Y017787D02*
X020567Y017787D01*
X020618Y017906D02*
X020420Y017906D01*
X020519Y018024D02*
X020298Y018024D01*
X020400Y018143D02*
X019214Y018143D01*
X018815Y018261D02*
X020282Y018261D01*
X020163Y018380D02*
X018696Y018380D01*
X018541Y017906D02*
X016075Y017906D01*
X015880Y017906D02*
X015214Y017906D01*
X015214Y018024D02*
X015706Y018024D01*
X015647Y018143D02*
X015214Y018143D01*
X015214Y018261D02*
X015638Y018261D01*
X015670Y018380D02*
X015214Y018380D01*
X015170Y018498D02*
X015762Y018498D01*
X016193Y018498D02*
X020045Y018498D01*
X019926Y018617D02*
X015225Y018617D01*
X015234Y018735D02*
X019808Y018735D01*
X019689Y018854D02*
X017721Y018854D01*
X017535Y018854D02*
X014916Y018854D01*
X014839Y018854D02*
X013866Y018854D01*
X013789Y018854D02*
X004123Y018854D01*
X004126Y018852D02*
X004096Y018881D01*
X004059Y018902D01*
X004019Y018913D01*
X003826Y018913D01*
X003916Y018951D01*
X004060Y019094D01*
X004068Y019113D01*
X010767Y019113D01*
X010835Y019045D01*
X010960Y018993D01*
X011095Y018993D01*
X011220Y019045D01*
X011316Y019141D01*
X011368Y019266D01*
X011368Y019401D01*
X011316Y019526D01*
X011220Y019622D01*
X011095Y019673D01*
X010960Y019673D01*
X010835Y019622D01*
X010767Y019553D01*
X004109Y019553D01*
X004060Y019672D01*
X003916Y019816D01*
X003753Y019883D01*
X003916Y019951D01*
X004060Y020094D01*
X004088Y020163D01*
X010767Y020163D01*
X010835Y020095D01*
X010960Y020043D01*
X011095Y020043D01*
X011220Y020095D01*
X011316Y020191D01*
X011368Y020316D01*
X011368Y020451D01*
X011316Y020576D01*
X011220Y020672D01*
X011095Y020723D01*
X010960Y020723D01*
X010835Y020672D01*
X010767Y020603D01*
X004088Y020603D01*
X004060Y020672D01*
X003916Y020816D01*
X003753Y020883D01*
X003916Y020951D01*
X004060Y021094D01*
X004138Y021282D01*
X004138Y021485D01*
X004060Y021672D01*
X003916Y021816D01*
X003729Y021893D01*
X003526Y021893D01*
X003339Y021816D01*
X003195Y021672D01*
X003118Y021485D01*
X003118Y021282D01*
X003195Y021094D01*
X003339Y020951D01*
X003502Y020883D01*
X003339Y020816D01*
X003195Y020672D01*
X003118Y020485D01*
X003118Y020282D01*
X003195Y020094D01*
X003339Y019951D01*
X003502Y019883D01*
X003339Y019816D01*
X003195Y019672D01*
X003118Y019485D01*
X003118Y019282D01*
X003195Y019094D01*
X003339Y018951D01*
X003430Y018913D01*
X003236Y018913D01*
X003196Y018902D01*
X003159Y018881D01*
X003130Y018852D01*
X003108Y018815D01*
X003098Y018774D01*
X003098Y018423D01*
X003588Y018423D01*
X003588Y018343D01*
X003668Y018343D01*
X003668Y018423D01*
X004158Y018423D01*
X004158Y018774D01*
X004147Y018815D01*
X004126Y018852D01*
X004158Y018735D02*
X013471Y018735D01*
X013471Y018617D02*
X004158Y018617D01*
X004158Y018498D02*
X013527Y018498D01*
X013491Y018380D02*
X003668Y018380D01*
X003668Y018343D02*
X004158Y018343D01*
X004158Y017992D01*
X004147Y017952D01*
X004126Y017915D01*
X004096Y017885D01*
X004059Y017864D01*
X004019Y017853D01*
X003668Y017853D01*
X003668Y018343D01*
X003588Y018343D02*
X003588Y017853D01*
X003236Y017853D01*
X003196Y017864D01*
X003159Y017885D01*
X003130Y017915D01*
X003108Y017952D01*
X003098Y017992D01*
X003098Y018343D01*
X003588Y018343D01*
X003588Y018380D02*
X002791Y018380D01*
X002791Y018498D02*
X003098Y018498D01*
X003098Y018617D02*
X002791Y018617D01*
X002791Y018735D02*
X003098Y018735D01*
X003132Y018854D02*
X002791Y018854D01*
X002791Y018972D02*
X003317Y018972D01*
X003199Y019091D02*
X002791Y019091D01*
X002791Y019209D02*
X003148Y019209D01*
X003118Y019328D02*
X002791Y019328D01*
X002791Y019446D02*
X003118Y019446D01*
X003151Y019565D02*
X002791Y019565D01*
X002791Y019683D02*
X003206Y019683D01*
X003325Y019802D02*
X002791Y019802D01*
X002791Y019920D02*
X003413Y019920D01*
X003251Y020039D02*
X002791Y020039D01*
X002791Y020157D02*
X003169Y020157D01*
X003120Y020276D02*
X002791Y020276D01*
X002791Y020394D02*
X003118Y020394D01*
X003129Y020513D02*
X002791Y020513D01*
X002791Y020631D02*
X003178Y020631D01*
X003273Y020750D02*
X002791Y020750D01*
X002791Y020868D02*
X003466Y020868D01*
X003303Y020987D02*
X002791Y020987D01*
X002791Y021105D02*
X003191Y021105D01*
X003142Y021224D02*
X002791Y021224D01*
X002791Y021342D02*
X003118Y021342D01*
X003118Y021461D02*
X002791Y021461D01*
X002791Y021579D02*
X003157Y021579D01*
X003221Y021698D02*
X002791Y021698D01*
X002791Y021816D02*
X003340Y021816D01*
X003028Y022172D02*
X002652Y022172D01*
X002735Y022053D02*
X007251Y022053D01*
X007251Y021935D02*
X002784Y021935D01*
X002909Y022290D02*
X002500Y022290D01*
X002791Y022409D02*
X001619Y022409D01*
X001704Y022527D02*
X002708Y022527D01*
X002708Y022646D02*
X001753Y022646D01*
X001761Y022764D02*
X002708Y022764D01*
X002708Y022883D02*
X002454Y022883D01*
X002625Y023001D02*
X002708Y023001D01*
X002708Y023120D02*
X002688Y023120D01*
X002706Y023238D02*
X002708Y023238D01*
X002693Y023357D02*
X002688Y023357D01*
X003148Y023001D02*
X003172Y023001D01*
X003148Y022883D02*
X003257Y022883D01*
X003148Y022764D02*
X003427Y022764D01*
X003176Y022646D02*
X007251Y022646D01*
X007251Y022764D02*
X003828Y022764D01*
X003998Y022883D02*
X007251Y022883D01*
X007251Y023001D02*
X006193Y023001D01*
X006193Y023120D02*
X007251Y023120D01*
X007251Y023238D02*
X006193Y023238D01*
X006193Y023357D02*
X007251Y023357D01*
X007272Y023475D02*
X006193Y023475D01*
X006056Y023594D02*
X017199Y023594D01*
X017318Y023475D02*
X009951Y023475D01*
X009972Y023357D02*
X017368Y023357D01*
X017368Y023238D02*
X009972Y023238D01*
X009972Y023120D02*
X017368Y023120D01*
X017368Y023001D02*
X009972Y023001D01*
X009972Y022883D02*
X017368Y022883D01*
X017368Y022764D02*
X009972Y022764D01*
X009972Y022646D02*
X017368Y022646D01*
X017368Y022527D02*
X009972Y022527D01*
X009972Y022409D02*
X017368Y022409D01*
X017368Y022290D02*
X009972Y022290D01*
X009972Y022172D02*
X017368Y022172D01*
X017368Y022053D02*
X009972Y022053D01*
X009972Y021935D02*
X017368Y021935D01*
X017368Y021816D02*
X009972Y021816D01*
X009972Y021698D02*
X017368Y021698D01*
X017368Y021579D02*
X009972Y021579D01*
X009972Y021461D02*
X017368Y021461D01*
X017368Y021342D02*
X009972Y021342D01*
X009972Y021224D02*
X017368Y021224D01*
X017368Y021105D02*
X006142Y021105D01*
X006151Y021111D02*
X006181Y021141D01*
X006202Y021177D01*
X006213Y021218D01*
X006213Y021397D01*
X005776Y021397D01*
X005776Y021079D01*
X006074Y021079D01*
X006115Y021090D01*
X006151Y021111D01*
X006213Y021224D02*
X007251Y021224D01*
X007251Y021342D02*
X006213Y021342D01*
X006213Y021474D02*
X006213Y021654D01*
X006202Y021694D01*
X006181Y021731D01*
X006151Y021761D01*
X006115Y021782D01*
X006074Y021793D01*
X005776Y021793D01*
X005776Y021474D01*
X005699Y021474D01*
X005699Y021397D01*
X005263Y021397D01*
X005263Y021218D01*
X005274Y021177D01*
X005295Y021141D01*
X005325Y021111D01*
X005361Y021090D01*
X005402Y021079D01*
X005699Y021079D01*
X005699Y021397D01*
X005776Y021397D01*
X005776Y021474D01*
X006213Y021474D01*
X006213Y021579D02*
X007251Y021579D01*
X007251Y021461D02*
X005776Y021461D01*
X005699Y021461D02*
X004138Y021461D01*
X004138Y021342D02*
X005263Y021342D01*
X005263Y021224D02*
X004114Y021224D01*
X004064Y021105D02*
X005334Y021105D01*
X005699Y021105D02*
X005776Y021105D01*
X005776Y021224D02*
X005699Y021224D01*
X005699Y021342D02*
X005776Y021342D01*
X005699Y021474D02*
X005263Y021474D01*
X005263Y021654D01*
X005274Y021694D01*
X005295Y021731D01*
X005325Y021761D01*
X005361Y021782D01*
X005402Y021793D01*
X005699Y021793D01*
X005699Y021474D01*
X005699Y021579D02*
X005776Y021579D01*
X005776Y021698D02*
X005699Y021698D01*
X005276Y021698D02*
X004034Y021698D01*
X004098Y021579D02*
X005263Y021579D01*
X006200Y021698D02*
X007251Y021698D01*
X007251Y021816D02*
X003915Y021816D01*
X003952Y020987D02*
X017368Y020987D01*
X017368Y020868D02*
X003789Y020868D01*
X003982Y020750D02*
X017368Y020750D01*
X017368Y020631D02*
X011260Y020631D01*
X011342Y020513D02*
X017368Y020513D01*
X017368Y020394D02*
X011368Y020394D01*
X011351Y020276D02*
X017368Y020276D01*
X017368Y020157D02*
X011282Y020157D01*
X010773Y020157D02*
X004086Y020157D01*
X004004Y020039D02*
X017368Y020039D01*
X017368Y019920D02*
X003843Y019920D01*
X003930Y019802D02*
X017368Y019802D01*
X017368Y019683D02*
X004049Y019683D01*
X004104Y019565D02*
X010778Y019565D01*
X010789Y019091D02*
X004056Y019091D01*
X003938Y018972D02*
X013471Y018972D01*
X013475Y019091D02*
X011266Y019091D01*
X011344Y019209D02*
X013592Y019209D01*
X013789Y019209D02*
X013866Y019209D01*
X013866Y019091D02*
X013789Y019091D01*
X013789Y018972D02*
X013866Y018972D01*
X014064Y019209D02*
X014560Y019209D01*
X014521Y019091D02*
X014180Y019091D01*
X014184Y018972D02*
X014521Y018972D01*
X014521Y018735D02*
X014184Y018735D01*
X014184Y018617D02*
X014530Y018617D01*
X014586Y018498D02*
X014128Y018498D01*
X014164Y018380D02*
X014541Y018380D01*
X014541Y018261D02*
X014164Y018261D01*
X014164Y018143D02*
X014541Y018143D01*
X014436Y018024D02*
X014269Y018024D01*
X014228Y017783D02*
X013882Y018129D01*
X013828Y018129D01*
X014228Y017783D02*
X014228Y015540D01*
X014220Y015732D01*
X013964Y015732D02*
X013964Y016692D01*
X013828Y016829D01*
X013491Y016839D02*
X009626Y016839D01*
X009670Y016721D02*
X013491Y016721D01*
X013491Y016602D02*
X009670Y016602D01*
X009670Y016484D02*
X013561Y016484D01*
X013764Y016365D02*
X009670Y016365D01*
X009661Y016247D02*
X013764Y016247D01*
X013764Y016128D02*
X009661Y016128D01*
X009661Y016010D02*
X013764Y016010D01*
X014476Y015732D02*
X014478Y015584D01*
X014478Y017783D01*
X014823Y018129D01*
X014878Y018179D01*
X015231Y017787D02*
X017676Y017787D01*
X017571Y017669D02*
X015234Y017669D01*
X015234Y017432D02*
X017568Y017432D01*
X017568Y017550D02*
X014916Y017550D01*
X015234Y017313D02*
X017584Y017313D01*
X017588Y017195D02*
X015174Y017195D01*
X015214Y017076D02*
X017588Y017076D01*
X017603Y016958D02*
X015214Y016958D01*
X015214Y016839D02*
X018606Y016839D01*
X018541Y016958D02*
X018352Y016958D01*
X018000Y017179D02*
X018878Y017179D01*
X019214Y016958D02*
X019984Y016958D01*
X019988Y016839D02*
X019149Y016839D01*
X019628Y016533D02*
X015578Y016533D01*
X015244Y016199D01*
X015244Y015732D01*
X015500Y015732D02*
X015500Y016155D01*
X015678Y016333D01*
X019528Y016333D01*
X019778Y016083D01*
X019978Y016183D02*
X019628Y016533D01*
X019723Y016721D02*
X019988Y016721D01*
X019988Y016602D02*
X019841Y016602D01*
X019960Y016484D02*
X019988Y016484D01*
X020378Y016433D02*
X020378Y017683D01*
X020128Y017883D01*
X020188Y019091D02*
X022209Y019091D01*
X022090Y019209D02*
X020069Y019209D01*
X019951Y019328D02*
X022008Y019328D01*
X022008Y019446D02*
X017888Y019446D01*
X017888Y019565D02*
X022008Y019565D01*
X022008Y019683D02*
X017888Y019683D01*
X017888Y019802D02*
X022008Y019802D01*
X022008Y019920D02*
X017888Y019920D01*
X017888Y020039D02*
X022008Y020039D01*
X021938Y020157D02*
X021367Y020157D01*
X021414Y020276D02*
X021891Y020276D01*
X022228Y020479D02*
X021078Y020479D01*
X020078Y020479D01*
X019278Y021279D01*
X018382Y021279D01*
X018278Y021383D01*
X018278Y023183D01*
X018428Y023333D01*
X020184Y023333D01*
X020203Y023353D01*
X020042Y023514D01*
X020042Y023943D01*
X020398Y023949D02*
X024228Y023949D01*
X024228Y023831D02*
X020398Y023831D01*
X020398Y023712D02*
X024228Y023712D01*
X024334Y023594D02*
X023393Y023594D01*
X023448Y023475D02*
X024453Y023475D01*
X024571Y023357D02*
X023448Y023357D01*
X023448Y023238D02*
X024690Y023238D01*
X024808Y023120D02*
X023401Y023120D01*
X023446Y023001D02*
X024927Y023001D01*
X025045Y022883D02*
X023448Y022883D01*
X023448Y022764D02*
X025164Y022764D01*
X025243Y022646D02*
X023422Y022646D01*
X023439Y022527D02*
X025218Y022527D01*
X025218Y022409D02*
X023448Y022409D01*
X023448Y022290D02*
X025255Y022290D01*
X025318Y022172D02*
X023437Y022172D01*
X023426Y022053D02*
X025436Y022053D01*
X025485Y021935D02*
X023448Y021935D01*
X023448Y021853D02*
X022853Y021853D01*
X022853Y021853D01*
X022853Y022353D01*
X022853Y022353D01*
X022853Y022133D01*
X022853Y021853D01*
X022853Y021853D01*
X023448Y021853D01*
X023448Y021816D02*
X025339Y021816D01*
X025264Y021698D02*
X023444Y021698D01*
X023334Y021579D02*
X025218Y021579D01*
X025194Y021461D02*
X022564Y021461D01*
X022853Y021573D02*
X022853Y021853D01*
X022853Y021573D01*
X022853Y021579D02*
X022853Y021579D01*
X022853Y021698D02*
X022853Y021698D01*
X022853Y021816D02*
X022853Y021816D01*
X022853Y021853D02*
X022853Y021853D01*
X022853Y021935D02*
X022853Y021935D01*
X022853Y022053D02*
X022853Y022053D01*
X022853Y022172D02*
X022853Y022172D01*
X022853Y022290D02*
X022853Y022290D01*
X022853Y022409D02*
X022853Y022409D01*
X022853Y022527D02*
X022853Y022527D01*
X022853Y022646D02*
X022853Y022646D01*
X022853Y022764D02*
X022853Y022764D01*
X022853Y022883D02*
X022853Y022883D01*
X022853Y023001D02*
X022853Y023001D01*
X022853Y023120D02*
X022853Y023120D01*
X022853Y023238D02*
X022853Y023238D01*
X022853Y023357D02*
X022853Y023357D01*
X022853Y023475D02*
X022853Y023475D01*
X022853Y023594D02*
X022853Y023594D01*
X022313Y023594D02*
X020715Y023594D01*
X020778Y023475D02*
X022258Y023475D01*
X022258Y023357D02*
X020778Y023357D01*
X020778Y023238D02*
X022258Y023238D01*
X022304Y023120D02*
X020723Y023120D01*
X020222Y022833D02*
X021878Y022833D01*
X022228Y022483D01*
X022228Y021188D01*
X022273Y021233D01*
X023078Y021233D01*
X023150Y021160D01*
X023150Y020533D01*
X022885Y020513D02*
X022564Y020513D01*
X022564Y020631D02*
X022885Y020631D01*
X022885Y020750D02*
X022564Y020750D01*
X022564Y020754D02*
X022485Y020833D01*
X022564Y020913D01*
X022564Y021033D01*
X022950Y021033D01*
X022950Y020906D01*
X022885Y020841D01*
X022885Y020225D01*
X022967Y020143D01*
X023302Y020143D01*
X023318Y020134D01*
X023359Y020123D01*
X023502Y020123D01*
X023502Y020531D01*
X023507Y020531D01*
X023507Y020123D01*
X023651Y020123D01*
X023691Y020134D01*
X023728Y020155D01*
X023758Y020185D01*
X023779Y020222D01*
X023790Y020262D01*
X023790Y020531D01*
X023507Y020531D01*
X023507Y020536D01*
X023502Y020536D01*
X023502Y020943D01*
X023359Y020943D01*
X023350Y020941D01*
X023350Y021243D01*
X023350Y021105D02*
X024958Y021105D01*
X024958Y020987D02*
X023350Y020987D01*
X023507Y020943D02*
X023507Y020536D01*
X023790Y020536D01*
X023790Y020804D01*
X023779Y020845D01*
X023758Y020882D01*
X023728Y020911D01*
X023691Y020932D01*
X023651Y020943D01*
X023507Y020943D01*
X023502Y020868D02*
X023507Y020868D01*
X023502Y020750D02*
X023507Y020750D01*
X023502Y020631D02*
X023507Y020631D01*
X023502Y020513D02*
X023507Y020513D01*
X023502Y020394D02*
X023507Y020394D01*
X023502Y020276D02*
X023507Y020276D01*
X023502Y020157D02*
X023507Y020157D01*
X023730Y020157D02*
X024440Y020157D01*
X024322Y020039D02*
X022448Y020039D01*
X022448Y020122D02*
X022482Y020122D01*
X022564Y020204D01*
X022564Y020754D01*
X022520Y020868D02*
X022912Y020868D01*
X022950Y020987D02*
X022564Y020987D01*
X022564Y020394D02*
X022885Y020394D01*
X022885Y020276D02*
X022564Y020276D01*
X022517Y020157D02*
X022953Y020157D01*
X022448Y020122D02*
X022448Y019503D01*
X023786Y019503D01*
X024958Y020674D01*
X024958Y021224D01*
X025075Y021342D02*
X023251Y021342D01*
X023765Y020868D02*
X024958Y020868D01*
X024958Y020750D02*
X023790Y020750D01*
X023790Y020631D02*
X024914Y020631D01*
X024796Y020513D02*
X023790Y020513D01*
X023790Y020394D02*
X024677Y020394D01*
X024559Y020276D02*
X023790Y020276D01*
X024203Y019920D02*
X022448Y019920D01*
X022448Y019802D02*
X024085Y019802D01*
X023966Y019683D02*
X022448Y019683D01*
X022448Y019565D02*
X023848Y019565D01*
X025728Y022483D02*
X024428Y023783D01*
X024428Y026333D01*
X024175Y025964D02*
X023680Y025964D01*
X023677Y025960D02*
X023801Y026084D01*
X023868Y026246D01*
X023868Y026421D01*
X023801Y026583D01*
X023677Y026706D01*
X023515Y026773D01*
X023340Y026773D01*
X023178Y026706D01*
X023055Y026583D01*
X022988Y026421D01*
X022988Y026246D01*
X023055Y026084D01*
X023178Y025960D01*
X023340Y025893D01*
X023515Y025893D01*
X023677Y025960D01*
X023799Y026082D02*
X024056Y026082D01*
X024006Y026201D02*
X023849Y026201D01*
X023868Y026319D02*
X023988Y026319D01*
X023995Y026438D02*
X023860Y026438D01*
X023811Y026556D02*
X023936Y026556D01*
X023817Y026675D02*
X023708Y026675D01*
X023699Y026793D02*
X022236Y026793D01*
X022118Y026912D02*
X023580Y026912D01*
X023462Y027030D02*
X021999Y027030D01*
X021881Y027149D02*
X023343Y027149D01*
X023225Y027267D02*
X021762Y027267D01*
X021668Y027386D02*
X022506Y027386D01*
X022388Y027504D02*
X021668Y027504D01*
X021668Y027623D02*
X021695Y027623D01*
X021288Y027623D02*
X021251Y027623D01*
X021288Y027504D02*
X020525Y027504D01*
X020644Y027386D02*
X021288Y027386D01*
X021288Y027267D02*
X020762Y027267D01*
X020881Y027149D02*
X021343Y027149D01*
X021462Y027030D02*
X020999Y027030D01*
X021118Y026912D02*
X021580Y026912D01*
X021699Y026793D02*
X021236Y026793D01*
X020995Y026438D02*
X020860Y026438D01*
X020868Y026319D02*
X020988Y026319D01*
X021006Y026201D02*
X020849Y026201D01*
X020799Y026082D02*
X021056Y026082D01*
X021175Y025964D02*
X020680Y025964D01*
X020428Y026333D02*
X020428Y026533D01*
X020436Y026793D02*
X020699Y026793D01*
X020708Y026675D02*
X020817Y026675D01*
X020811Y026556D02*
X020936Y026556D01*
X020580Y026912D02*
X020318Y026912D01*
X020199Y027030D02*
X020462Y027030D01*
X020343Y027149D02*
X020081Y027149D01*
X019962Y027267D02*
X020225Y027267D01*
X020106Y027386D02*
X019844Y027386D01*
X019725Y027504D02*
X019988Y027504D01*
X019695Y027623D02*
X019668Y027623D01*
X019428Y027033D02*
X019928Y026533D01*
X019928Y025133D01*
X020178Y024883D01*
X020491Y025016D02*
X024228Y025016D01*
X024228Y025134D02*
X020407Y025134D01*
X020518Y024897D02*
X024228Y024897D01*
X024228Y024779D02*
X020502Y024779D01*
X020435Y024660D02*
X024228Y024660D01*
X024228Y024542D02*
X019447Y024542D01*
X019329Y024423D02*
X024228Y024423D01*
X024228Y024305D02*
X019210Y024305D01*
X019295Y024186D02*
X019372Y024186D01*
X019372Y024068D02*
X019295Y024068D01*
X019295Y023949D02*
X017579Y023949D01*
X017498Y024031D02*
X017498Y024031D01*
X017461Y024068D02*
X018957Y024068D01*
X018963Y024186D02*
X016335Y024186D01*
X015720Y024186D02*
X004138Y024186D01*
X004138Y024068D02*
X005794Y024068D01*
X005676Y023949D02*
X004138Y023949D01*
X004138Y023831D02*
X005557Y023831D01*
X005485Y023712D02*
X003804Y023712D01*
X003988Y023594D02*
X005478Y023594D01*
X005283Y023475D02*
X004079Y023475D01*
X004083Y023001D02*
X005283Y023001D01*
X004138Y024305D02*
X015688Y024305D01*
X015697Y024423D02*
X004138Y024423D01*
X004138Y024542D02*
X015293Y024542D01*
X015181Y024660D02*
X004138Y024660D01*
X003118Y024660D02*
X002998Y024660D01*
X002998Y024779D02*
X015138Y024779D01*
X015138Y024897D02*
X002998Y024897D01*
X002998Y025016D02*
X015185Y025016D01*
X015316Y025134D02*
X002998Y025134D01*
X002998Y025253D02*
X017036Y025253D01*
X017154Y025371D02*
X002998Y025371D01*
X002998Y025490D02*
X017273Y025490D01*
X017391Y025608D02*
X002914Y025608D01*
X002795Y025727D02*
X017510Y025727D01*
X017628Y025845D02*
X002677Y025845D01*
X002680Y025964D02*
X003175Y025964D01*
X003056Y026082D02*
X002799Y026082D01*
X002849Y026201D02*
X003006Y026201D01*
X002988Y026319D02*
X002868Y026319D01*
X002860Y026438D02*
X002995Y026438D01*
X003044Y026556D02*
X002933Y026556D01*
X003052Y026675D02*
X003147Y026675D01*
X003170Y026793D02*
X003605Y026793D01*
X003723Y026912D02*
X003289Y026912D01*
X003407Y027030D02*
X003842Y027030D01*
X003960Y027149D02*
X003526Y027149D01*
X003644Y027267D02*
X004079Y027267D01*
X004378Y027283D02*
X005628Y027283D01*
X005973Y027629D01*
X005973Y028003D01*
X005646Y028334D02*
X005299Y028334D01*
X005388Y028215D02*
X005558Y028215D01*
X005509Y028097D02*
X005437Y028097D01*
X005438Y027978D02*
X005508Y027978D01*
X005529Y027860D02*
X005417Y027860D01*
X005368Y027741D02*
X005578Y027741D01*
X005684Y027623D02*
X005251Y027623D01*
X005566Y027504D02*
X004931Y027504D01*
X004628Y027483D02*
X004973Y027829D01*
X004973Y028003D01*
X004646Y028334D02*
X004438Y028334D01*
X004438Y028215D02*
X004558Y028215D01*
X004509Y028097D02*
X004438Y028097D01*
X004438Y027978D02*
X004508Y027978D01*
X004529Y027860D02*
X004438Y027860D01*
X004438Y027741D02*
X004578Y027741D01*
X004628Y027483D02*
X003578Y027483D01*
X002428Y026333D01*
X001841Y025608D02*
X001761Y025608D01*
X001754Y025490D02*
X001960Y025490D01*
X002021Y025371D02*
X001704Y025371D01*
X001621Y025253D02*
X001966Y025253D01*
X001954Y025134D02*
X001646Y025134D01*
X001722Y025016D02*
X001977Y025016D01*
X001882Y024897D02*
X001722Y024897D01*
X001722Y024779D02*
X001835Y024779D01*
X001835Y024660D02*
X001722Y024660D01*
X001722Y024542D02*
X001855Y024542D01*
X001855Y024423D02*
X001722Y024423D01*
X001722Y024305D02*
X001855Y024305D01*
X001855Y024186D02*
X001688Y024186D01*
X001722Y024068D02*
X001855Y024068D01*
X001855Y023949D02*
X001722Y023949D01*
X001722Y023831D02*
X001855Y023831D01*
X001855Y023712D02*
X001722Y023712D01*
X001722Y023594D02*
X001855Y023594D01*
X001925Y023475D02*
X001722Y023475D01*
X001722Y023357D02*
X001972Y023357D01*
X001954Y023238D02*
X001496Y023238D01*
X001635Y023120D02*
X001972Y023120D01*
X002035Y023001D02*
X001710Y023001D01*
X001759Y022883D02*
X002206Y022883D01*
X003030Y024542D02*
X003118Y024542D01*
X003680Y025964D02*
X004175Y025964D01*
X004178Y025960D02*
X004340Y025893D01*
X004515Y025893D01*
X004677Y025960D01*
X004801Y026084D01*
X004868Y026246D01*
X004868Y026421D01*
X004801Y026583D01*
X004677Y026706D01*
X004515Y026773D01*
X004340Y026773D01*
X004178Y026706D01*
X004055Y026583D01*
X003988Y026421D01*
X003988Y026246D01*
X004055Y026084D01*
X004178Y025960D01*
X004056Y026082D02*
X003799Y026082D01*
X003849Y026201D02*
X004006Y026201D01*
X003988Y026319D02*
X003868Y026319D01*
X003860Y026438D02*
X003995Y026438D01*
X004044Y026556D02*
X003933Y026556D01*
X004052Y026675D02*
X004147Y026675D01*
X004170Y026793D02*
X005619Y026793D01*
X005737Y026912D02*
X004289Y026912D01*
X004407Y027030D02*
X005856Y027030D01*
X005776Y027149D02*
X005974Y027149D01*
X005894Y027267D02*
X006093Y027267D01*
X006013Y027386D02*
X006211Y027386D01*
X006288Y027504D02*
X006131Y027504D01*
X006251Y027623D02*
X006288Y027623D01*
X006630Y027267D02*
X008783Y027267D01*
X008783Y027149D02*
X006512Y027149D01*
X006393Y027030D02*
X008783Y027030D01*
X008783Y026957D02*
X008574Y026749D01*
X008515Y026773D01*
X008340Y026773D01*
X008178Y026706D01*
X008055Y026583D01*
X007988Y026421D01*
X007988Y026246D01*
X008055Y026084D01*
X008178Y025960D01*
X008340Y025893D01*
X008515Y025893D01*
X008677Y025960D01*
X008801Y026084D01*
X008868Y026246D01*
X008868Y026421D01*
X008843Y026480D01*
X009052Y026689D01*
X009163Y026800D01*
X009163Y027578D01*
X009236Y027608D01*
X009288Y027660D01*
X009288Y026752D01*
X009178Y026706D01*
X009055Y026583D01*
X008988Y026421D01*
X008988Y026246D01*
X009055Y026084D01*
X009178Y025960D01*
X009340Y025893D01*
X009515Y025893D01*
X009677Y025960D01*
X009801Y026084D01*
X009868Y026246D01*
X009868Y026421D01*
X009801Y026583D01*
X009677Y026706D01*
X009668Y026710D01*
X009668Y027650D01*
X009709Y027608D01*
X009880Y027538D01*
X010065Y027538D01*
X010236Y027608D01*
X010367Y027739D01*
X010438Y027910D01*
X010438Y028095D01*
X010367Y028266D01*
X010236Y028397D01*
X010065Y028468D01*
X009880Y028468D01*
X009709Y028397D01*
X009668Y028355D01*
X009668Y028625D01*
X009719Y028588D01*
X009787Y028553D01*
X009859Y028530D01*
X009933Y028518D01*
X009933Y028963D01*
X010013Y028963D01*
X010013Y029043D01*
X009933Y029043D01*
X009933Y029487D01*
X009859Y029476D01*
X009787Y029452D01*
X009719Y029417D01*
X009657Y029373D01*
X009603Y029319D01*
X009558Y029257D01*
X009523Y029189D01*
X009503Y029126D01*
X009437Y029193D01*
X009397Y029193D01*
X009367Y029266D01*
X009236Y029397D01*
X009065Y029468D01*
X008880Y029468D01*
X008709Y029397D01*
X008579Y029266D01*
X008508Y029095D01*
X008508Y028910D01*
X008579Y028739D01*
X008709Y028608D01*
X008880Y028538D01*
X009065Y028538D01*
X009236Y028608D01*
X009288Y028660D01*
X009288Y028346D01*
X009236Y028397D01*
X009065Y028468D01*
X008880Y028468D01*
X008709Y028397D01*
X008579Y028266D01*
X008508Y028095D01*
X008508Y027910D01*
X008579Y027739D01*
X008709Y027608D01*
X008783Y027578D01*
X008783Y026957D01*
X008737Y026912D02*
X006275Y026912D01*
X006340Y026773D02*
X006178Y026706D01*
X006055Y026583D01*
X005988Y026421D01*
X005988Y026246D01*
X006055Y026084D01*
X006178Y025960D01*
X006340Y025893D01*
X006515Y025893D01*
X006677Y025960D01*
X006801Y026084D01*
X006868Y026246D01*
X006868Y026421D01*
X006801Y026583D01*
X006677Y026706D01*
X006515Y026773D01*
X006340Y026773D01*
X006156Y026793D02*
X008619Y026793D01*
X008919Y026556D02*
X009044Y026556D01*
X009038Y026675D02*
X009147Y026675D01*
X009156Y026793D02*
X009288Y026793D01*
X009288Y026912D02*
X009163Y026912D01*
X009163Y027030D02*
X009288Y027030D01*
X009288Y027149D02*
X009163Y027149D01*
X009163Y027267D02*
X009288Y027267D01*
X009288Y027386D02*
X009163Y027386D01*
X009163Y027504D02*
X009288Y027504D01*
X009288Y027623D02*
X009251Y027623D01*
X008783Y027504D02*
X006668Y027504D01*
X006668Y027386D02*
X008783Y027386D01*
X008695Y027623D02*
X008275Y027623D01*
X008289Y027633D02*
X008343Y027687D01*
X008388Y027748D01*
X008422Y027816D01*
X008446Y027889D01*
X008458Y027963D01*
X008013Y027963D01*
X008013Y028043D01*
X007933Y028043D01*
X007933Y027963D01*
X007488Y027963D01*
X007500Y027889D01*
X007523Y027816D01*
X007558Y027748D01*
X007603Y027687D01*
X007657Y027633D01*
X007719Y027588D01*
X007787Y027553D01*
X007859Y027530D01*
X007933Y027518D01*
X007933Y027963D01*
X008013Y027963D01*
X008013Y027518D01*
X008086Y027530D01*
X008159Y027553D01*
X008227Y027588D01*
X008289Y027633D01*
X008383Y027741D02*
X008578Y027741D01*
X008529Y027860D02*
X008436Y027860D01*
X008508Y027978D02*
X008013Y027978D01*
X008013Y028043D02*
X008458Y028043D01*
X008446Y028116D01*
X008422Y028189D01*
X008388Y028257D01*
X008343Y028319D01*
X008289Y028373D01*
X008227Y028417D01*
X008159Y028452D01*
X008086Y028476D01*
X008013Y028487D01*
X008013Y028043D01*
X008013Y028097D02*
X007933Y028097D01*
X007933Y028215D02*
X008013Y028215D01*
X008013Y028334D02*
X007933Y028334D01*
X007965Y028452D02*
X008013Y028452D01*
X008158Y028452D02*
X008844Y028452D01*
X008800Y028571D02*
X008146Y028571D01*
X008317Y028689D02*
X008628Y028689D01*
X008550Y028808D02*
X008395Y028808D01*
X008438Y028926D02*
X008508Y028926D01*
X008508Y029045D02*
X008438Y029045D01*
X008410Y029163D02*
X008536Y029163D01*
X008594Y029282D02*
X008351Y029282D01*
X008228Y029400D02*
X008718Y029400D01*
X009228Y029400D02*
X009695Y029400D01*
X009576Y029282D02*
X009351Y029282D01*
X009466Y029163D02*
X009515Y029163D01*
X009933Y029163D02*
X010013Y029163D01*
X010013Y029045D02*
X009933Y029045D01*
X010013Y029043D02*
X010013Y029487D01*
X010086Y029476D01*
X010159Y029452D01*
X010227Y029417D01*
X010289Y029373D01*
X010343Y029319D01*
X010388Y029257D01*
X010422Y029189D01*
X010446Y029116D01*
X010458Y029043D01*
X010013Y029043D01*
X010013Y028963D02*
X010458Y028963D01*
X010446Y028889D01*
X010422Y028816D01*
X010388Y028748D01*
X010343Y028687D01*
X010289Y028633D01*
X010227Y028588D01*
X010159Y028553D01*
X010086Y028530D01*
X010013Y028518D01*
X010013Y028963D01*
X010013Y028926D02*
X009933Y028926D01*
X009933Y028808D02*
X010013Y028808D01*
X010013Y028689D02*
X009933Y028689D01*
X009933Y028571D02*
X010013Y028571D01*
X010102Y028452D02*
X010844Y028452D01*
X010880Y028468D02*
X010709Y028397D01*
X010579Y028266D01*
X010508Y028095D01*
X010508Y027910D01*
X010579Y027739D01*
X010709Y027608D01*
X010880Y027538D01*
X011065Y027538D01*
X011236Y027608D01*
X011367Y027739D01*
X011438Y027910D01*
X011438Y028095D01*
X011367Y028266D01*
X011236Y028397D01*
X011065Y028468D01*
X010880Y028468D01*
X010880Y028538D02*
X011065Y028538D01*
X011236Y028608D01*
X011367Y028739D01*
X011438Y028910D01*
X011438Y029095D01*
X011367Y029266D01*
X011236Y029397D01*
X011065Y029468D01*
X010880Y029468D01*
X010709Y029397D01*
X010579Y029266D01*
X010508Y029095D01*
X010508Y028910D01*
X010579Y028739D01*
X010709Y028608D01*
X010880Y028538D01*
X010800Y028571D02*
X010194Y028571D01*
X010345Y028689D02*
X010628Y028689D01*
X010550Y028808D02*
X010418Y028808D01*
X010452Y028926D02*
X010508Y028926D01*
X010508Y029045D02*
X010457Y029045D01*
X010431Y029163D02*
X010536Y029163D01*
X010594Y029282D02*
X010369Y029282D01*
X010250Y029400D02*
X010718Y029400D01*
X011228Y029400D02*
X011718Y029400D01*
X011709Y029397D02*
X011579Y029266D01*
X011508Y029095D01*
X011508Y028910D01*
X011579Y028739D01*
X011709Y028608D01*
X011880Y028538D01*
X012065Y028538D01*
X012236Y028608D01*
X012367Y028739D01*
X012438Y028910D01*
X012438Y029095D01*
X012367Y029266D01*
X012236Y029397D01*
X012065Y029468D01*
X011880Y029468D01*
X011709Y029397D01*
X011594Y029282D02*
X011351Y029282D01*
X011410Y029163D02*
X011536Y029163D01*
X011508Y029045D02*
X011438Y029045D01*
X011438Y028926D02*
X011508Y028926D01*
X011550Y028808D02*
X011395Y028808D01*
X011317Y028689D02*
X011628Y028689D01*
X011800Y028571D02*
X011146Y028571D01*
X011102Y028452D02*
X011844Y028452D01*
X011880Y028468D02*
X011709Y028397D01*
X011579Y028266D01*
X011508Y028095D01*
X011508Y027910D01*
X011579Y027739D01*
X011709Y027608D01*
X011880Y027538D01*
X012065Y027538D01*
X012236Y027608D01*
X012288Y027660D01*
X012288Y026752D01*
X012178Y026706D01*
X012055Y026583D01*
X011988Y026421D01*
X011988Y026246D01*
X012055Y026084D01*
X012178Y025960D01*
X012340Y025893D01*
X012515Y025893D01*
X012677Y025960D01*
X012801Y026084D01*
X012868Y026246D01*
X012868Y026421D01*
X012801Y026583D01*
X012677Y026706D01*
X012668Y026710D01*
X012668Y027650D01*
X012709Y027608D01*
X012783Y027578D01*
X012783Y026709D01*
X012894Y026598D01*
X013012Y026480D01*
X012988Y026421D01*
X012988Y026246D01*
X013055Y026084D01*
X013178Y025960D01*
X013340Y025893D01*
X013515Y025893D01*
X013677Y025960D01*
X013801Y026084D01*
X013868Y026246D01*
X013868Y026421D01*
X013801Y026583D01*
X013677Y026706D01*
X013515Y026773D01*
X013340Y026773D01*
X013281Y026749D01*
X013163Y026867D01*
X013163Y027578D01*
X013236Y027608D01*
X013367Y027739D01*
X013438Y027910D01*
X013438Y028095D01*
X013367Y028266D01*
X013340Y028293D01*
X013606Y028293D01*
X013579Y028266D01*
X013508Y028095D01*
X013508Y027910D01*
X013579Y027739D01*
X013709Y027608D01*
X013783Y027578D01*
X013783Y026709D01*
X013894Y026598D01*
X014012Y026480D01*
X013988Y026421D01*
X013988Y026246D01*
X014055Y026084D01*
X014178Y025960D01*
X014340Y025893D01*
X014515Y025893D01*
X014677Y025960D01*
X014801Y026084D01*
X014868Y026246D01*
X014868Y026421D01*
X014801Y026583D01*
X014677Y026706D01*
X014515Y026773D01*
X014340Y026773D01*
X014281Y026749D01*
X014163Y026867D01*
X014163Y027578D01*
X014236Y027608D01*
X014367Y027739D01*
X014438Y027910D01*
X014438Y028095D01*
X014367Y028266D01*
X014236Y028397D01*
X014065Y028468D01*
X013880Y028468D01*
X013795Y028432D01*
X013901Y028538D01*
X014065Y028538D01*
X014236Y028608D01*
X014367Y028739D01*
X014438Y028910D01*
X014438Y029095D01*
X014367Y029266D01*
X014236Y029397D01*
X014065Y029468D01*
X013880Y029468D01*
X013709Y029397D01*
X013579Y029266D01*
X013508Y029095D01*
X013508Y028910D01*
X013575Y028749D01*
X013499Y028673D01*
X013329Y028673D01*
X013343Y028687D01*
X013388Y028748D01*
X013422Y028816D01*
X013446Y028889D01*
X013458Y028963D01*
X013013Y028963D01*
X013013Y029043D01*
X012933Y029043D01*
X012933Y029487D01*
X012859Y029476D01*
X012787Y029452D01*
X012719Y029417D01*
X012657Y029373D01*
X012603Y029319D01*
X012558Y029257D01*
X012523Y029189D01*
X012500Y029116D01*
X012488Y029043D01*
X012933Y029043D01*
X012933Y028963D01*
X012488Y028963D01*
X012500Y028889D01*
X012523Y028816D01*
X012558Y028748D01*
X012603Y028687D01*
X012616Y028673D01*
X012599Y028673D01*
X012488Y028562D01*
X012288Y028362D01*
X012288Y028346D01*
X012236Y028397D01*
X012065Y028468D01*
X011880Y028468D01*
X012102Y028452D02*
X012378Y028452D01*
X012496Y028571D02*
X012146Y028571D01*
X012317Y028689D02*
X012601Y028689D01*
X012528Y028808D02*
X012395Y028808D01*
X012438Y028926D02*
X012494Y028926D01*
X012488Y029045D02*
X012438Y029045D01*
X012410Y029163D02*
X012515Y029163D01*
X012576Y029282D02*
X012351Y029282D01*
X012228Y029400D02*
X012695Y029400D01*
X012933Y029400D02*
X013013Y029400D01*
X013013Y029487D02*
X013013Y029043D01*
X013458Y029043D01*
X013446Y029116D01*
X013422Y029189D01*
X013388Y029257D01*
X013343Y029319D01*
X013289Y029373D01*
X013227Y029417D01*
X013159Y029452D01*
X013086Y029476D01*
X013013Y029487D01*
X013013Y029282D02*
X012933Y029282D01*
X012933Y029163D02*
X013013Y029163D01*
X013013Y029045D02*
X012933Y029045D01*
X013250Y029400D02*
X013718Y029400D01*
X013594Y029282D02*
X013369Y029282D01*
X013431Y029163D02*
X013536Y029163D01*
X013508Y029045D02*
X013457Y029045D01*
X013452Y028926D02*
X013508Y028926D01*
X013550Y028808D02*
X013418Y028808D01*
X013345Y028689D02*
X013515Y028689D01*
X013815Y028452D02*
X013844Y028452D01*
X014102Y028452D02*
X014844Y028452D01*
X014800Y028571D02*
X014146Y028571D01*
X014317Y028689D02*
X014628Y028689D01*
X014550Y028808D02*
X014395Y028808D01*
X014438Y028926D02*
X014508Y028926D01*
X014508Y029045D02*
X014438Y029045D01*
X014410Y029163D02*
X014536Y029163D01*
X014594Y029282D02*
X014351Y029282D01*
X014228Y029400D02*
X014718Y029400D01*
X015228Y029400D02*
X015718Y029400D01*
X015594Y029282D02*
X015351Y029282D01*
X015410Y029163D02*
X015536Y029163D01*
X015508Y029045D02*
X015438Y029045D01*
X015668Y028650D02*
X015709Y028608D01*
X015880Y028538D01*
X016065Y028538D01*
X016236Y028608D01*
X016285Y028657D01*
X016288Y028655D01*
X016288Y028373D01*
X016227Y028417D01*
X016159Y028452D01*
X016086Y028476D01*
X016013Y028487D01*
X016013Y028043D01*
X015933Y028043D01*
X015933Y028487D01*
X015859Y028476D01*
X015787Y028452D01*
X015719Y028417D01*
X015668Y028380D01*
X015668Y028650D01*
X015668Y028571D02*
X015800Y028571D01*
X015788Y028452D02*
X015668Y028452D01*
X015933Y028452D02*
X016013Y028452D01*
X016013Y028334D02*
X015933Y028334D01*
X015933Y028215D02*
X016013Y028215D01*
X016013Y028097D02*
X015933Y028097D01*
X015933Y027860D02*
X016013Y027860D01*
X016013Y027741D02*
X015933Y027741D01*
X015933Y027623D02*
X016013Y027623D01*
X016275Y027623D02*
X016288Y027623D01*
X016288Y027504D02*
X015668Y027504D01*
X015668Y027386D02*
X016288Y027386D01*
X016288Y027267D02*
X015762Y027267D01*
X015881Y027149D02*
X016343Y027149D01*
X016462Y027030D02*
X015999Y027030D01*
X016118Y026912D02*
X016580Y026912D01*
X016699Y026793D02*
X016236Y026793D01*
X015936Y026556D02*
X015811Y026556D01*
X015817Y026675D02*
X015708Y026675D01*
X015699Y026793D02*
X015236Y026793D01*
X015163Y026912D02*
X015580Y026912D01*
X015462Y027030D02*
X015163Y027030D01*
X015163Y027149D02*
X015343Y027149D01*
X015288Y027267D02*
X015163Y027267D01*
X015163Y027386D02*
X015288Y027386D01*
X015288Y027504D02*
X015163Y027504D01*
X015251Y027623D02*
X015288Y027623D01*
X015668Y027623D02*
X015670Y027623D01*
X015288Y028452D02*
X015102Y028452D01*
X015146Y028571D02*
X015288Y028571D01*
X014646Y028334D02*
X014299Y028334D01*
X014388Y028215D02*
X014558Y028215D01*
X014509Y028097D02*
X014437Y028097D01*
X014438Y027978D02*
X014508Y027978D01*
X014529Y027860D02*
X014417Y027860D01*
X014368Y027741D02*
X014578Y027741D01*
X014695Y027623D02*
X014251Y027623D01*
X014163Y027504D02*
X014783Y027504D01*
X014783Y027386D02*
X014163Y027386D01*
X014163Y027267D02*
X014783Y027267D01*
X014783Y027149D02*
X014163Y027149D01*
X014163Y027030D02*
X014783Y027030D01*
X014783Y026912D02*
X014163Y026912D01*
X014236Y026793D02*
X014783Y026793D01*
X014817Y026675D02*
X014708Y026675D01*
X014811Y026556D02*
X014936Y026556D01*
X014995Y026438D02*
X014860Y026438D01*
X014868Y026319D02*
X014988Y026319D01*
X015006Y026201D02*
X014849Y026201D01*
X014799Y026082D02*
X015056Y026082D01*
X015175Y025964D02*
X014680Y025964D01*
X014175Y025964D02*
X013680Y025964D01*
X013799Y026082D02*
X014056Y026082D01*
X014006Y026201D02*
X013849Y026201D01*
X013868Y026319D02*
X013988Y026319D01*
X013995Y026438D02*
X013860Y026438D01*
X013811Y026556D02*
X013936Y026556D01*
X013817Y026675D02*
X013708Y026675D01*
X013783Y026793D02*
X013236Y026793D01*
X013163Y026912D02*
X013783Y026912D01*
X013783Y027030D02*
X013163Y027030D01*
X013163Y027149D02*
X013783Y027149D01*
X013783Y027267D02*
X013163Y027267D01*
X013163Y027386D02*
X013783Y027386D01*
X013783Y027504D02*
X013163Y027504D01*
X013251Y027623D02*
X013695Y027623D01*
X013578Y027741D02*
X013368Y027741D01*
X013417Y027860D02*
X013529Y027860D01*
X013508Y027978D02*
X013438Y027978D01*
X013437Y028097D02*
X013509Y028097D01*
X013558Y028215D02*
X013388Y028215D01*
X012783Y027504D02*
X012668Y027504D01*
X012668Y027386D02*
X012783Y027386D01*
X012783Y027267D02*
X012668Y027267D01*
X012668Y027149D02*
X012783Y027149D01*
X012783Y027030D02*
X012668Y027030D01*
X012668Y026912D02*
X012783Y026912D01*
X012783Y026793D02*
X012668Y026793D01*
X012708Y026675D02*
X012817Y026675D01*
X012811Y026556D02*
X012936Y026556D01*
X012995Y026438D02*
X012860Y026438D01*
X012868Y026319D02*
X012988Y026319D01*
X013006Y026201D02*
X012849Y026201D01*
X012799Y026082D02*
X013056Y026082D01*
X013175Y025964D02*
X012680Y025964D01*
X012175Y025964D02*
X011680Y025964D01*
X011677Y025960D02*
X011801Y026084D01*
X011868Y026246D01*
X011868Y026421D01*
X011801Y026583D01*
X011677Y026706D01*
X011515Y026773D01*
X011340Y026773D01*
X011178Y026706D01*
X011055Y026583D01*
X010988Y026421D01*
X010988Y026246D01*
X011055Y026084D01*
X011178Y025960D01*
X011340Y025893D01*
X011515Y025893D01*
X011677Y025960D01*
X011799Y026082D02*
X012056Y026082D01*
X012006Y026201D02*
X011849Y026201D01*
X011868Y026319D02*
X011988Y026319D01*
X011995Y026438D02*
X011860Y026438D01*
X011811Y026556D02*
X012044Y026556D01*
X012147Y026675D02*
X011708Y026675D01*
X011147Y026675D02*
X010708Y026675D01*
X010677Y026706D02*
X010515Y026773D01*
X010340Y026773D01*
X010178Y026706D01*
X010055Y026583D01*
X009988Y026421D01*
X009988Y026246D01*
X010055Y026084D01*
X010178Y025960D01*
X010340Y025893D01*
X010515Y025893D01*
X010677Y025960D01*
X010801Y026084D01*
X010868Y026246D01*
X010868Y026421D01*
X010801Y026583D01*
X010677Y026706D01*
X010811Y026556D02*
X011044Y026556D01*
X010995Y026438D02*
X010860Y026438D01*
X010868Y026319D02*
X010988Y026319D01*
X011006Y026201D02*
X010849Y026201D01*
X010799Y026082D02*
X011056Y026082D01*
X011175Y025964D02*
X010680Y025964D01*
X010175Y025964D02*
X009680Y025964D01*
X009799Y026082D02*
X010056Y026082D01*
X010006Y026201D02*
X009849Y026201D01*
X009868Y026319D02*
X009988Y026319D01*
X009995Y026438D02*
X009860Y026438D01*
X009811Y026556D02*
X010044Y026556D01*
X010147Y026675D02*
X009708Y026675D01*
X009668Y026793D02*
X012288Y026793D01*
X012288Y026912D02*
X009668Y026912D01*
X009668Y027030D02*
X012288Y027030D01*
X012288Y027149D02*
X009668Y027149D01*
X009668Y027267D02*
X012288Y027267D01*
X012288Y027386D02*
X009668Y027386D01*
X009668Y027504D02*
X012288Y027504D01*
X012288Y027623D02*
X012251Y027623D01*
X012668Y027623D02*
X012695Y027623D01*
X011695Y027623D02*
X011251Y027623D01*
X011368Y027741D02*
X011578Y027741D01*
X011529Y027860D02*
X011417Y027860D01*
X011438Y027978D02*
X011508Y027978D01*
X011509Y028097D02*
X011437Y028097D01*
X011388Y028215D02*
X011558Y028215D01*
X011646Y028334D02*
X011299Y028334D01*
X010646Y028334D02*
X010299Y028334D01*
X010388Y028215D02*
X010558Y028215D01*
X010509Y028097D02*
X010437Y028097D01*
X010438Y027978D02*
X010508Y027978D01*
X010529Y027860D02*
X010417Y027860D01*
X010368Y027741D02*
X010578Y027741D01*
X010695Y027623D02*
X010251Y027623D01*
X009695Y027623D02*
X009668Y027623D01*
X009668Y028452D02*
X009844Y028452D01*
X009752Y028571D02*
X009668Y028571D01*
X009288Y028571D02*
X009146Y028571D01*
X009102Y028452D02*
X009288Y028452D01*
X008646Y028334D02*
X008327Y028334D01*
X008409Y028215D02*
X008558Y028215D01*
X008509Y028097D02*
X008449Y028097D01*
X008013Y027860D02*
X007933Y027860D01*
X007933Y027978D02*
X007438Y027978D01*
X007437Y028097D02*
X007497Y028097D01*
X007537Y028215D02*
X007388Y028215D01*
X007299Y028334D02*
X007618Y028334D01*
X007550Y028808D02*
X007395Y028808D01*
X007438Y028926D02*
X007508Y028926D01*
X007508Y029045D02*
X007438Y029045D01*
X007410Y029163D02*
X007536Y029163D01*
X007594Y029282D02*
X007351Y029282D01*
X007228Y029400D02*
X007718Y029400D01*
X006718Y029400D02*
X006250Y029400D01*
X006227Y029417D02*
X006159Y029452D01*
X006086Y029476D01*
X006013Y029487D01*
X006013Y029043D01*
X005933Y029043D01*
X005933Y029487D01*
X005859Y029476D01*
X005787Y029452D01*
X005719Y029417D01*
X005657Y029373D01*
X005603Y029319D01*
X005558Y029257D01*
X005523Y029189D01*
X005500Y029116D01*
X005488Y029043D01*
X005933Y029043D01*
X005933Y028963D01*
X005488Y028963D01*
X005500Y028889D01*
X005523Y028816D01*
X005558Y028748D01*
X005603Y028687D01*
X005657Y028633D01*
X005719Y028588D01*
X005787Y028553D01*
X005859Y028530D01*
X005933Y028518D01*
X005933Y028963D01*
X006013Y028963D01*
X006013Y029043D01*
X006458Y029043D01*
X006446Y029116D01*
X006422Y029189D01*
X006388Y029257D01*
X006343Y029319D01*
X006289Y029373D01*
X006227Y029417D01*
X006369Y029282D02*
X006594Y029282D01*
X006536Y029163D02*
X006431Y029163D01*
X006457Y029045D02*
X006508Y029045D01*
X006458Y028963D02*
X006013Y028963D01*
X006013Y028518D01*
X006086Y028530D01*
X006159Y028553D01*
X006227Y028588D01*
X006289Y028633D01*
X006343Y028687D01*
X006388Y028748D01*
X006422Y028816D01*
X006446Y028889D01*
X006458Y028963D01*
X006452Y028926D02*
X006508Y028926D01*
X006550Y028808D02*
X006418Y028808D01*
X006345Y028689D02*
X006515Y028689D01*
X006438Y028612D02*
X006438Y028612D01*
X006396Y028571D02*
X006194Y028571D01*
X006102Y028452D02*
X006288Y028452D01*
X006013Y028571D02*
X005933Y028571D01*
X005933Y028689D02*
X006013Y028689D01*
X006013Y028808D02*
X005933Y028808D01*
X005933Y028926D02*
X006013Y028926D01*
X006013Y029045D02*
X005933Y029045D01*
X005933Y029163D02*
X006013Y029163D01*
X006013Y029282D02*
X005933Y029282D01*
X005933Y029400D02*
X006013Y029400D01*
X005695Y029400D02*
X005228Y029400D01*
X005351Y029282D02*
X005576Y029282D01*
X005515Y029163D02*
X005410Y029163D01*
X005438Y029045D02*
X005488Y029045D01*
X005494Y028926D02*
X005438Y028926D01*
X005395Y028808D02*
X005528Y028808D01*
X005601Y028689D02*
X005317Y028689D01*
X005146Y028571D02*
X005752Y028571D01*
X005844Y028452D02*
X005102Y028452D01*
X004844Y028452D02*
X004371Y028452D01*
X004317Y028689D02*
X004628Y028689D01*
X004800Y028571D02*
X004146Y028571D01*
X003800Y028571D02*
X003648Y028571D01*
X003278Y029045D02*
X003205Y029045D01*
X003142Y029163D02*
X003396Y029163D01*
X003594Y029282D02*
X003049Y029282D01*
X002957Y029400D02*
X003718Y029400D01*
X004228Y029400D02*
X004718Y029400D01*
X004594Y029282D02*
X004351Y029282D01*
X002809Y029519D02*
X024129Y029519D01*
X024001Y029400D02*
X023228Y029400D01*
X023351Y029282D02*
X023876Y029282D01*
X023812Y029163D02*
X023410Y029163D01*
X023499Y029045D02*
X023748Y029045D01*
X023683Y028926D02*
X023617Y028926D01*
X023478Y028783D02*
X023258Y029003D01*
X022973Y029003D01*
X023146Y028571D02*
X023278Y028571D01*
X023278Y028452D02*
X023158Y028452D01*
X023013Y028452D02*
X022933Y028452D01*
X022933Y028334D02*
X023013Y028334D01*
X023013Y028215D02*
X022933Y028215D01*
X022933Y028097D02*
X023013Y028097D01*
X022788Y028452D02*
X022668Y028452D01*
X022668Y028571D02*
X022800Y028571D01*
X022628Y028689D02*
X022555Y028689D01*
X022550Y028808D02*
X022436Y028808D01*
X022438Y028926D02*
X022508Y028926D01*
X022508Y029045D02*
X022438Y029045D01*
X022410Y029163D02*
X022536Y029163D01*
X022594Y029282D02*
X022351Y029282D01*
X022228Y029400D02*
X022718Y029400D01*
X023478Y028783D02*
X023478Y027733D01*
X024278Y026933D01*
X024370Y027123D02*
X023678Y027816D01*
X023678Y028096D01*
X023679Y028087D01*
X023880Y027716D01*
X024190Y027431D01*
X024576Y027261D01*
X024996Y027227D01*
X025405Y027330D01*
X025757Y027561D01*
X026016Y027893D01*
X026123Y028204D01*
X026123Y024837D01*
X026073Y024888D01*
X026005Y024937D01*
X025931Y024975D01*
X025852Y025000D01*
X025769Y025013D01*
X025768Y025013D01*
X025768Y024523D01*
X025688Y024523D01*
X025688Y025013D01*
X025686Y025013D01*
X025603Y025000D01*
X025524Y024975D01*
X025450Y024937D01*
X025382Y024888D01*
X025328Y024833D01*
X025328Y025850D01*
X025370Y025893D01*
X025515Y025893D01*
X025677Y025960D01*
X025801Y026084D01*
X025868Y026246D01*
X025868Y026421D01*
X025801Y026583D01*
X025677Y026706D01*
X025628Y026727D01*
X025628Y026916D01*
X025410Y027133D01*
X024745Y027133D01*
X024735Y027123D01*
X024370Y027123D01*
X024345Y027149D02*
X026123Y027149D01*
X026123Y027267D02*
X025157Y027267D01*
X025328Y026933D02*
X024828Y026933D01*
X024562Y027267D02*
X024226Y027267D01*
X024292Y027386D02*
X024108Y027386D01*
X024110Y027504D02*
X023989Y027504D01*
X023981Y027623D02*
X023871Y027623D01*
X023866Y027741D02*
X023752Y027741D01*
X023802Y027860D02*
X023678Y027860D01*
X023678Y027978D02*
X023738Y027978D01*
X023147Y026675D02*
X022708Y026675D01*
X022811Y026556D02*
X023044Y026556D01*
X022995Y026438D02*
X022860Y026438D01*
X022868Y026319D02*
X022988Y026319D01*
X023006Y026201D02*
X022849Y026201D01*
X022799Y026082D02*
X023056Y026082D01*
X023175Y025964D02*
X022680Y025964D01*
X022175Y025964D02*
X021680Y025964D01*
X021799Y026082D02*
X022056Y026082D01*
X022006Y026201D02*
X021849Y026201D01*
X021868Y026319D02*
X021988Y026319D01*
X021995Y026438D02*
X021860Y026438D01*
X021811Y026556D02*
X021936Y026556D01*
X021817Y026675D02*
X021708Y026675D01*
X022251Y027623D02*
X022288Y027623D01*
X021288Y028452D02*
X021102Y028452D01*
X021146Y028571D02*
X021288Y028571D01*
X020844Y028452D02*
X020102Y028452D01*
X020086Y028530D02*
X020159Y028553D01*
X020227Y028588D01*
X020289Y028633D01*
X020343Y028687D01*
X020388Y028748D01*
X020422Y028816D01*
X020446Y028889D01*
X020458Y028963D01*
X020013Y028963D01*
X020013Y029043D01*
X019933Y029043D01*
X019933Y029487D01*
X019859Y029476D01*
X019787Y029452D01*
X019719Y029417D01*
X019657Y029373D01*
X019603Y029319D01*
X019558Y029257D01*
X019523Y029189D01*
X019500Y029116D01*
X019488Y029043D01*
X019933Y029043D01*
X019933Y028963D01*
X019488Y028963D01*
X019500Y028889D01*
X019523Y028816D01*
X019558Y028748D01*
X019603Y028687D01*
X019657Y028633D01*
X019719Y028588D01*
X019787Y028553D01*
X019859Y028530D01*
X019933Y028518D01*
X019933Y028963D01*
X020013Y028963D01*
X020013Y028518D01*
X020086Y028530D01*
X020013Y028571D02*
X019933Y028571D01*
X019933Y028689D02*
X020013Y028689D01*
X020013Y028808D02*
X019933Y028808D01*
X019933Y028926D02*
X020013Y028926D01*
X020013Y029043D02*
X020458Y029043D01*
X020446Y029116D01*
X020422Y029189D01*
X020388Y029257D01*
X020343Y029319D01*
X020289Y029373D01*
X020227Y029417D01*
X020159Y029452D01*
X020086Y029476D01*
X020013Y029487D01*
X020013Y029043D01*
X020013Y029045D02*
X019933Y029045D01*
X019933Y029163D02*
X020013Y029163D01*
X020013Y029282D02*
X019933Y029282D01*
X019933Y029400D02*
X020013Y029400D01*
X020250Y029400D02*
X020718Y029400D01*
X020594Y029282D02*
X020369Y029282D01*
X020431Y029163D02*
X020536Y029163D01*
X020508Y029045D02*
X020457Y029045D01*
X020452Y028926D02*
X020508Y028926D01*
X020550Y028808D02*
X020418Y028808D01*
X020345Y028689D02*
X020628Y028689D01*
X020800Y028571D02*
X020194Y028571D01*
X020299Y028334D02*
X020646Y028334D01*
X020558Y028215D02*
X020388Y028215D01*
X020437Y028097D02*
X020509Y028097D01*
X020508Y027978D02*
X020438Y027978D01*
X020417Y027860D02*
X020529Y027860D01*
X020578Y027741D02*
X020368Y027741D01*
X020407Y027623D02*
X020695Y027623D01*
X019844Y028452D02*
X019668Y028452D01*
X019659Y028571D02*
X019752Y028571D01*
X019601Y028689D02*
X019540Y028689D01*
X019528Y028808D02*
X019422Y028808D01*
X019438Y028926D02*
X019494Y028926D01*
X019488Y029045D02*
X019438Y029045D01*
X019410Y029163D02*
X019515Y029163D01*
X019576Y029282D02*
X019351Y029282D01*
X019228Y029400D02*
X019695Y029400D01*
X019240Y028452D02*
X019102Y028452D01*
X018844Y028452D02*
X018678Y028452D01*
X018573Y028571D02*
X018800Y028571D01*
X018628Y028689D02*
X018345Y028689D01*
X018418Y028808D02*
X018550Y028808D01*
X018508Y028926D02*
X018452Y028926D01*
X018458Y029043D02*
X018446Y029116D01*
X018422Y029189D01*
X018388Y029257D01*
X018343Y029319D01*
X018289Y029373D01*
X018227Y029417D01*
X018159Y029452D01*
X018086Y029476D01*
X018013Y029487D01*
X018013Y029043D01*
X018458Y029043D01*
X018457Y029045D02*
X018508Y029045D01*
X018536Y029163D02*
X018431Y029163D01*
X018369Y029282D02*
X018594Y029282D01*
X018718Y029400D02*
X018250Y029400D01*
X018013Y029400D02*
X017933Y029400D01*
X017933Y029282D02*
X018013Y029282D01*
X018013Y029163D02*
X017933Y029163D01*
X017933Y029045D02*
X018013Y029045D01*
X017695Y029400D02*
X017228Y029400D01*
X017351Y029282D02*
X017576Y029282D01*
X017515Y029163D02*
X017410Y029163D01*
X017438Y029045D02*
X017488Y029045D01*
X017494Y028926D02*
X017438Y028926D01*
X017450Y028808D02*
X017528Y028808D01*
X017569Y028689D02*
X017601Y028689D01*
X017492Y028483D02*
X018378Y028483D01*
X018478Y028383D01*
X018478Y027533D01*
X018978Y027033D01*
X019428Y027033D01*
X019385Y026793D02*
X017236Y026793D01*
X017118Y026912D02*
X018816Y026912D01*
X018698Y027030D02*
X016999Y027030D01*
X016881Y027149D02*
X018579Y027149D01*
X018461Y027267D02*
X016762Y027267D01*
X016668Y027386D02*
X018342Y027386D01*
X018278Y027504D02*
X016668Y027504D01*
X016668Y027623D02*
X016695Y027623D01*
X017251Y027623D02*
X017695Y027623D01*
X017578Y027741D02*
X017368Y027741D01*
X017417Y027860D02*
X017529Y027860D01*
X017508Y027978D02*
X017438Y027978D01*
X017437Y028097D02*
X017509Y028097D01*
X017558Y028215D02*
X017388Y028215D01*
X017359Y028334D02*
X017299Y028334D01*
X017240Y028452D02*
X017102Y028452D01*
X016844Y028452D02*
X016668Y028452D01*
X016668Y028571D02*
X016800Y028571D01*
X016973Y029003D02*
X017492Y028483D01*
X016508Y029045D02*
X016438Y029045D01*
X016410Y029163D02*
X016536Y029163D01*
X016594Y029282D02*
X016351Y029282D01*
X016228Y029400D02*
X016718Y029400D01*
X016288Y028571D02*
X016146Y028571D01*
X016158Y028452D02*
X016288Y028452D01*
X016708Y026675D02*
X016817Y026675D01*
X016811Y026556D02*
X016936Y026556D01*
X016995Y026438D02*
X016860Y026438D01*
X016868Y026319D02*
X016988Y026319D01*
X017006Y026201D02*
X016849Y026201D01*
X016799Y026082D02*
X017056Y026082D01*
X017175Y025964D02*
X016680Y025964D01*
X016175Y025964D02*
X015680Y025964D01*
X015799Y026082D02*
X016056Y026082D01*
X016006Y026201D02*
X015849Y026201D01*
X015868Y026319D02*
X015988Y026319D01*
X015995Y026438D02*
X015860Y026438D01*
X015639Y025134D02*
X016917Y025134D01*
X017184Y024779D02*
X019062Y024779D01*
X019180Y024897D02*
X017303Y024897D01*
X017421Y025016D02*
X019208Y025016D01*
X019208Y025134D02*
X017540Y025134D01*
X017658Y025253D02*
X019208Y025253D01*
X019208Y025371D02*
X017777Y025371D01*
X017895Y025490D02*
X019208Y025490D01*
X019208Y025608D02*
X018014Y025608D01*
X018132Y025727D02*
X019208Y025727D01*
X019208Y025845D02*
X018251Y025845D01*
X017984Y026201D02*
X017849Y026201D01*
X017865Y026082D02*
X017799Y026082D01*
X017747Y025964D02*
X017680Y025964D01*
X017868Y026319D02*
X017988Y026319D01*
X017995Y026438D02*
X017860Y026438D01*
X017811Y026556D02*
X018044Y026556D01*
X018147Y026675D02*
X017708Y026675D01*
X018251Y027623D02*
X018278Y027623D01*
X018708Y026675D02*
X019147Y026675D01*
X019044Y026556D02*
X018811Y026556D01*
X018860Y026438D02*
X018995Y026438D01*
X018988Y026319D02*
X018868Y026319D01*
X018849Y026201D02*
X019006Y026201D01*
X019056Y026082D02*
X018799Y026082D01*
X018680Y025964D02*
X019175Y025964D01*
X019648Y025845D02*
X019728Y025845D01*
X019728Y025727D02*
X019648Y025727D01*
X019648Y025608D02*
X019728Y025608D01*
X019728Y025490D02*
X019648Y025490D01*
X019648Y025371D02*
X019728Y025371D01*
X019728Y025253D02*
X019648Y025253D01*
X019648Y025134D02*
X019728Y025134D01*
X019762Y025016D02*
X019648Y025016D01*
X019648Y024897D02*
X019838Y024897D01*
X019853Y024779D02*
X019648Y024779D01*
X019566Y024660D02*
X019920Y024660D01*
X020128Y025253D02*
X024228Y025253D01*
X024228Y025371D02*
X020128Y025371D01*
X020128Y025490D02*
X024228Y025490D01*
X024228Y025608D02*
X020128Y025608D01*
X020128Y025727D02*
X024228Y025727D01*
X024228Y025845D02*
X020128Y025845D01*
X020128Y025964D02*
X020175Y025964D01*
X019728Y025964D02*
X019680Y025964D01*
X020398Y024186D02*
X024228Y024186D01*
X024228Y024068D02*
X020398Y024068D01*
X019691Y023594D02*
X019598Y023594D01*
X019372Y023594D02*
X019295Y023594D01*
X019295Y023586D02*
X019295Y023905D01*
X018957Y023905D01*
X018957Y023725D01*
X018968Y023685D01*
X018989Y023648D01*
X019018Y023618D01*
X019055Y023597D01*
X019096Y023586D01*
X019295Y023586D01*
X019295Y023712D02*
X019372Y023712D01*
X019372Y023831D02*
X019295Y023831D01*
X019068Y023594D02*
X017884Y023594D01*
X017888Y023475D02*
X018287Y023475D01*
X018168Y023357D02*
X017888Y023357D01*
X017888Y023238D02*
X018078Y023238D01*
X018078Y023120D02*
X017888Y023120D01*
X017888Y023001D02*
X018078Y023001D01*
X018078Y022883D02*
X017888Y022883D01*
X017888Y022764D02*
X018078Y022764D01*
X018078Y022646D02*
X017888Y022646D01*
X017888Y022527D02*
X018078Y022527D01*
X018078Y022409D02*
X017888Y022409D01*
X017888Y022290D02*
X018078Y022290D01*
X018078Y022172D02*
X017888Y022172D01*
X017888Y022053D02*
X018078Y022053D01*
X018078Y021935D02*
X017888Y021935D01*
X017888Y021816D02*
X018078Y021816D01*
X018078Y021698D02*
X017888Y021698D01*
X017888Y021579D02*
X018078Y021579D01*
X018078Y021461D02*
X017888Y021461D01*
X017888Y021342D02*
X018078Y021342D01*
X018154Y021224D02*
X017888Y021224D01*
X017888Y021105D02*
X018273Y021105D01*
X017888Y020987D02*
X018958Y020987D01*
X019405Y020868D02*
X017888Y020868D01*
X017888Y020750D02*
X019524Y020750D01*
X019642Y020631D02*
X017888Y020631D01*
X017888Y020513D02*
X019738Y020513D01*
X019745Y020394D02*
X017888Y020394D01*
X017888Y020276D02*
X019800Y020276D01*
X019966Y020157D02*
X017888Y020157D01*
X017368Y019565D02*
X011277Y019565D01*
X011349Y019446D02*
X017368Y019446D01*
X017319Y019328D02*
X011368Y019328D01*
X010795Y020631D02*
X004077Y020631D01*
X004158Y018261D02*
X008387Y018261D01*
X008344Y018143D02*
X004158Y018143D01*
X004158Y018024D02*
X008344Y018024D01*
X008344Y017906D02*
X004116Y017906D01*
X003668Y017906D02*
X003588Y017906D01*
X003588Y018024D02*
X003668Y018024D01*
X003668Y018143D02*
X003588Y018143D01*
X003588Y018261D02*
X003668Y018261D01*
X003098Y018261D02*
X002791Y018261D01*
X002791Y018143D02*
X003098Y018143D01*
X003098Y018024D02*
X002791Y018024D01*
X002791Y017906D02*
X003139Y017906D01*
X002791Y017787D02*
X008344Y017787D01*
X008423Y017669D02*
X002791Y017669D01*
X002791Y017550D02*
X008432Y017550D01*
X008432Y017432D02*
X002791Y017432D01*
X002791Y017313D02*
X008432Y017313D01*
X008432Y017195D02*
X002791Y017195D01*
X002791Y017076D02*
X003299Y017076D01*
X003189Y016958D02*
X002791Y016958D01*
X002791Y016839D02*
X003140Y016839D01*
X003118Y016721D02*
X002791Y016721D01*
X002791Y016602D02*
X003118Y016602D01*
X003158Y016484D02*
X002791Y016484D01*
X002791Y016365D02*
X003224Y016365D01*
X003349Y016247D02*
X002791Y016247D01*
X002791Y016128D02*
X003369Y016128D01*
X003233Y016010D02*
X002791Y016010D01*
X002791Y015891D02*
X003162Y015891D01*
X003118Y015773D02*
X002781Y015773D01*
X002732Y015654D02*
X003118Y015654D01*
X003137Y015536D02*
X002646Y015536D01*
X002485Y015417D02*
X003186Y015417D01*
X003291Y015299D02*
X000908Y015299D01*
X000834Y015180D02*
X003495Y015180D01*
X003285Y015062D02*
X000823Y015062D01*
X000823Y014943D02*
X003183Y014943D01*
X003134Y014825D02*
X000823Y014825D01*
X000823Y014706D02*
X003118Y014706D01*
X003118Y014588D02*
X000823Y014588D01*
X000823Y014469D02*
X003164Y014469D01*
X003239Y014351D02*
X000823Y014351D01*
X000823Y014232D02*
X003384Y014232D01*
X003337Y014114D02*
X000823Y014114D01*
X000823Y013995D02*
X003218Y013995D01*
X003156Y013877D02*
X000823Y013877D01*
X000823Y013758D02*
X003118Y013758D01*
X003118Y013640D02*
X000823Y013640D01*
X000823Y013521D02*
X003143Y013521D01*
X003192Y013403D02*
X000823Y013403D01*
X000823Y013284D02*
X003305Y013284D01*
X003460Y013166D02*
X000823Y013166D01*
X000823Y013047D02*
X003270Y013047D01*
X003177Y012929D02*
X000823Y012929D01*
X000823Y012810D02*
X003128Y012810D01*
X003118Y012692D02*
X000823Y012692D01*
X000823Y012573D02*
X003121Y012573D01*
X003088Y012455D02*
X000823Y012455D01*
X000823Y012336D02*
X002969Y012336D01*
X002851Y012218D02*
X000823Y012218D01*
X000823Y012099D02*
X002732Y012099D01*
X002708Y011981D02*
X000823Y011981D01*
X000823Y011862D02*
X002708Y011862D01*
X002708Y011744D02*
X000823Y011744D01*
X000823Y011625D02*
X002708Y011625D01*
X002708Y011507D02*
X000823Y011507D01*
X000823Y011388D02*
X002708Y011388D01*
X002708Y011270D02*
X000823Y011270D01*
X000823Y011151D02*
X002708Y011151D01*
X002708Y011033D02*
X000823Y011033D01*
X000823Y010914D02*
X002708Y010914D01*
X002708Y010796D02*
X000823Y010796D01*
X000823Y010677D02*
X002708Y010677D01*
X002708Y010559D02*
X000823Y010559D01*
X000823Y010440D02*
X001713Y010440D01*
X001443Y010322D02*
X000823Y010322D01*
X000823Y010203D02*
X001268Y010203D01*
X001140Y010085D02*
X000823Y010085D01*
X000823Y009966D02*
X001028Y009966D01*
X000964Y009848D02*
X000823Y009848D01*
X000823Y009729D02*
X000900Y009729D01*
X000842Y009611D02*
X000823Y009611D01*
X002347Y010440D02*
X002809Y010440D01*
X002928Y010322D02*
X002665Y010322D01*
X002846Y010203D02*
X003046Y010203D01*
X002976Y010085D02*
X003165Y010085D01*
X003068Y009966D02*
X003283Y009966D01*
X003402Y009848D02*
X003161Y009848D01*
X003213Y009729D02*
X003520Y009729D01*
X003639Y009611D02*
X003254Y009611D01*
X003294Y009492D02*
X003757Y009492D01*
X003876Y009374D02*
X003319Y009374D01*
X003319Y009255D02*
X003978Y009255D01*
X004056Y009137D02*
X003319Y009137D01*
X003319Y009018D02*
X004318Y009018D01*
X004323Y008900D02*
X003284Y008900D01*
X003243Y008781D02*
X004318Y008781D01*
X004298Y008663D02*
X003203Y008663D01*
X003137Y008544D02*
X004298Y008544D01*
X004298Y008426D02*
X003045Y008426D01*
X004143Y009729D02*
X004318Y009729D01*
X004318Y009611D02*
X004261Y009611D01*
X004375Y009848D02*
X004024Y009848D01*
X003906Y009966D02*
X004318Y009966D01*
X004318Y010085D02*
X003787Y010085D01*
X003669Y010203D02*
X004318Y010203D01*
X004318Y010322D02*
X003550Y010322D01*
X003432Y010440D02*
X004318Y010440D01*
X004318Y010559D02*
X003313Y010559D01*
X003195Y010677D02*
X004318Y010677D01*
X004352Y010796D02*
X003148Y010796D01*
X003148Y010914D02*
X013731Y010914D01*
X013768Y010796D02*
X012044Y010796D01*
X012205Y010677D02*
X013650Y010677D01*
X013569Y010559D02*
X012286Y010559D01*
X012335Y010440D02*
X013520Y010440D01*
X013518Y010322D02*
X012338Y010322D01*
X012326Y010203D02*
X013529Y010203D01*
X013578Y010085D02*
X012277Y010085D01*
X012182Y009966D02*
X013673Y009966D01*
X013867Y009848D02*
X011988Y009848D01*
X012153Y009729D02*
X013702Y009729D01*
X013590Y009611D02*
X012265Y009611D01*
X012314Y009492D02*
X013541Y009492D01*
X013518Y009374D02*
X012338Y009374D01*
X012338Y009255D02*
X013518Y009255D01*
X013557Y009137D02*
X012298Y009137D01*
X012234Y009018D02*
X013621Y009018D01*
X013741Y008900D02*
X012114Y008900D01*
X012113Y008781D02*
X013518Y008781D01*
X013498Y008663D02*
X012243Y008663D01*
X012315Y008544D02*
X013498Y008544D01*
X013498Y008426D02*
X012350Y008426D01*
X012338Y008189D02*
X013498Y008189D01*
X013498Y008070D02*
X012288Y008070D01*
X011450Y010677D02*
X011205Y010677D01*
X011044Y010796D02*
X011611Y010796D01*
X010611Y010796D02*
X010044Y010796D01*
X010205Y010677D02*
X010450Y010677D01*
X009611Y010796D02*
X009044Y010796D01*
X009205Y010677D02*
X009450Y010677D01*
X008611Y010796D02*
X008044Y010796D01*
X008205Y010677D02*
X008450Y010677D01*
X007611Y010796D02*
X007044Y010796D01*
X007205Y010677D02*
X007450Y010677D01*
X006823Y011334D02*
X006852Y011364D01*
X006873Y011401D01*
X006884Y011441D01*
X006884Y011641D01*
X006566Y011641D01*
X006566Y011302D01*
X006745Y011302D01*
X006786Y011313D01*
X006823Y011334D01*
X006866Y011388D02*
X013691Y011388D01*
X013691Y011270D02*
X004152Y011270D01*
X004147Y011252D02*
X004158Y011292D01*
X004158Y011643D01*
X003668Y011643D01*
X003668Y011153D01*
X004019Y011153D01*
X004059Y011164D01*
X004096Y011185D01*
X004126Y011215D01*
X004147Y011252D01*
X004158Y011388D02*
X006189Y011388D01*
X006171Y011507D02*
X004158Y011507D01*
X004158Y011625D02*
X006171Y011625D01*
X006171Y011744D02*
X004158Y011744D01*
X004158Y011862D02*
X006171Y011862D01*
X006195Y011981D02*
X004158Y011981D01*
X004151Y012099D02*
X006204Y012099D01*
X006191Y012218D02*
X003836Y012218D01*
X004002Y012336D02*
X006191Y012336D01*
X006191Y012455D02*
X004085Y012455D01*
X004134Y012573D02*
X006191Y012573D01*
X006220Y012692D02*
X004138Y012692D01*
X004127Y012810D02*
X006388Y012810D01*
X006388Y012929D02*
X004216Y012929D01*
X004344Y013047D02*
X006388Y013047D01*
X006388Y013166D02*
X004471Y013166D01*
X004599Y013284D02*
X006388Y013284D01*
X006208Y013403D02*
X004727Y013403D01*
X004855Y013521D02*
X006188Y013521D01*
X006188Y013640D02*
X004982Y013640D01*
X004378Y014433D02*
X003628Y013683D01*
X003628Y014683D02*
X006028Y014683D01*
X006878Y015533D01*
X009378Y015533D01*
X009539Y015654D02*
X009690Y015654D01*
X009690Y015536D02*
X009644Y015536D01*
X009668Y015417D02*
X009694Y015417D01*
X009668Y015299D02*
X009736Y015299D01*
X009710Y015180D02*
X009670Y015180D01*
X009670Y015062D02*
X009710Y015062D01*
X009710Y014943D02*
X009670Y014943D01*
X009670Y014825D02*
X009767Y014825D01*
X009808Y014706D02*
X009670Y014706D01*
X009402Y014232D02*
X012048Y014232D01*
X011994Y014351D02*
X010106Y014351D01*
X010225Y014469D02*
X011988Y014469D01*
X012024Y014588D02*
X010248Y014588D01*
X010248Y014706D02*
X012120Y014706D01*
X012067Y014825D02*
X012038Y014825D01*
X012328Y015077D02*
X012328Y014433D01*
X012328Y014160D01*
X012128Y013960D01*
X011517Y014825D02*
X010938Y014825D01*
X010995Y014943D02*
X011460Y014943D01*
X011460Y015062D02*
X010995Y015062D01*
X010995Y015180D02*
X011460Y015180D01*
X011486Y015299D02*
X010969Y015299D01*
X011011Y015417D02*
X011444Y015417D01*
X011440Y015536D02*
X011015Y015536D01*
X011015Y015654D02*
X011440Y015654D01*
X011447Y015773D02*
X011008Y015773D01*
X010686Y015773D02*
X010669Y015773D01*
X010669Y015654D02*
X010686Y015654D01*
X010669Y015598D02*
X010669Y015580D01*
X010340Y015580D01*
X010036Y015580D01*
X010036Y015598D01*
X010669Y015598D01*
X010417Y014825D02*
X010288Y014825D01*
X010036Y015654D02*
X010019Y015654D01*
X010019Y015773D02*
X010036Y015773D01*
X009697Y015773D02*
X009636Y015773D01*
X009661Y015891D02*
X012667Y015891D01*
X012336Y015773D02*
X012319Y015773D01*
X012319Y015654D02*
X012336Y015654D01*
X012319Y015598D02*
X012319Y015580D01*
X011990Y015580D01*
X011786Y015580D01*
X011786Y015598D01*
X012319Y015598D01*
X011786Y015654D02*
X011769Y015654D01*
X011769Y015773D02*
X011786Y015773D01*
X013491Y016958D02*
X008812Y016958D01*
X008812Y017076D02*
X013491Y017076D01*
X013531Y017195D02*
X008812Y017195D01*
X008812Y017313D02*
X013471Y017313D01*
X013471Y017432D02*
X008812Y017432D01*
X008812Y017550D02*
X013789Y017550D01*
X013471Y017669D02*
X009353Y017669D01*
X009431Y017787D02*
X013474Y017787D01*
X013491Y017906D02*
X009431Y017906D01*
X009431Y018024D02*
X013491Y018024D01*
X013491Y018143D02*
X009431Y018143D01*
X009397Y018261D02*
X013491Y018261D01*
X014839Y018972D02*
X014916Y018972D01*
X014916Y019091D02*
X014839Y019091D01*
X014839Y019209D02*
X014916Y019209D01*
X015196Y019209D02*
X017288Y019209D01*
X017298Y019091D02*
X015234Y019091D01*
X015234Y018972D02*
X017358Y018972D01*
X017975Y017787D02*
X017980Y017787D01*
X017975Y017669D02*
X017980Y017669D01*
X017975Y017550D02*
X017980Y017550D01*
X018000Y017179D02*
X017978Y017156D01*
X018388Y017432D02*
X018541Y017432D01*
X018603Y017550D02*
X018388Y017550D01*
X018384Y017669D02*
X018541Y017669D01*
X018541Y017787D02*
X018279Y017787D01*
X019428Y016133D02*
X015828Y016133D01*
X015756Y016061D01*
X015756Y015732D01*
X016011Y015732D02*
X016011Y014849D01*
X016128Y014733D01*
X015990Y014588D02*
X014801Y014588D01*
X014919Y014706D02*
X015872Y014706D01*
X015929Y014649D02*
X015811Y014767D01*
X015811Y015397D01*
X015638Y015397D01*
X015628Y015407D01*
X015618Y015397D01*
X015382Y015397D01*
X015372Y015407D01*
X015362Y015397D01*
X015168Y015397D01*
X015168Y015112D01*
X015168Y014955D01*
X014568Y014355D01*
X014546Y014333D01*
X014747Y014333D01*
X014785Y014372D01*
X014910Y014423D01*
X015045Y014423D01*
X015170Y014372D01*
X015266Y014276D01*
X015318Y014151D01*
X015318Y014016D01*
X015266Y013891D01*
X015184Y013809D01*
X015184Y013790D01*
X015244Y013790D01*
X015244Y013435D01*
X015244Y013435D01*
X015244Y013790D01*
X015325Y013790D01*
X015365Y013779D01*
X015381Y013769D01*
X015382Y013770D01*
X015618Y013770D01*
X015628Y013760D01*
X015638Y013770D01*
X015873Y013770D01*
X015883Y013760D01*
X015893Y013770D01*
X016129Y013770D01*
X016139Y013760D01*
X016149Y013770D01*
X016385Y013770D01*
X016395Y013760D01*
X016405Y013770D01*
X016641Y013770D01*
X016651Y013760D01*
X016661Y013770D01*
X016897Y013770D01*
X016907Y013760D01*
X016917Y013770D01*
X017153Y013770D01*
X017163Y013760D01*
X017173Y013770D01*
X017409Y013770D01*
X017491Y013688D01*
X017491Y013182D01*
X017476Y013166D01*
X017860Y013166D01*
X017860Y013284D02*
X017491Y013284D01*
X017476Y013166D02*
X017566Y013076D01*
X017618Y012951D01*
X017618Y012816D01*
X017596Y012764D01*
X017818Y012511D01*
X017848Y012481D01*
X017851Y012472D01*
X017857Y012466D01*
X017860Y012456D01*
X017860Y015420D01*
X017942Y015616D01*
X017942Y015616D01*
X018069Y015743D01*
X017818Y015743D01*
X017818Y014755D01*
X017718Y014655D01*
X017606Y014543D01*
X016220Y014543D01*
X016210Y014533D01*
X016045Y014533D01*
X015929Y014649D01*
X015811Y014825D02*
X015038Y014825D01*
X015156Y014943D02*
X015811Y014943D01*
X015811Y015062D02*
X015168Y015062D01*
X015168Y015180D02*
X015811Y015180D01*
X015811Y015299D02*
X015168Y015299D01*
X014728Y015536D02*
X014732Y015732D01*
X014728Y015536D02*
X014728Y016683D01*
X014873Y016829D01*
X014878Y016829D01*
X015214Y016721D02*
X015482Y016721D01*
X015364Y016602D02*
X015214Y016602D01*
X015245Y016484D02*
X015144Y016484D01*
X015127Y016365D02*
X014928Y016365D01*
X014928Y016247D02*
X015044Y016247D01*
X015044Y016128D02*
X014928Y016128D01*
X016211Y015397D02*
X016211Y014932D01*
X016220Y014923D01*
X017438Y014923D01*
X017438Y015402D01*
X017413Y015388D01*
X017372Y015377D01*
X017291Y015377D01*
X017291Y015732D01*
X017291Y015732D01*
X017291Y015377D01*
X017210Y015377D01*
X017169Y015388D01*
X017153Y015397D01*
X017153Y015397D01*
X016917Y015397D01*
X016907Y015407D01*
X016897Y015397D01*
X016661Y015397D01*
X016651Y015407D01*
X016641Y015397D01*
X016405Y015397D01*
X016395Y015407D01*
X016385Y015397D01*
X016211Y015397D01*
X016211Y015299D02*
X017438Y015299D01*
X017438Y015180D02*
X016211Y015180D01*
X016211Y015062D02*
X017438Y015062D01*
X017438Y014943D02*
X016211Y014943D01*
X015284Y014232D02*
X017860Y014232D01*
X017860Y014114D02*
X015318Y014114D01*
X015309Y013995D02*
X017860Y013995D01*
X017860Y013877D02*
X015252Y013877D01*
X015244Y013758D02*
X015244Y013758D01*
X015244Y013640D02*
X015244Y013640D01*
X015244Y013521D02*
X015244Y013521D01*
X015244Y013435D02*
X015244Y013080D01*
X015244Y013435D01*
X015244Y013435D01*
X015244Y013403D02*
X015244Y013403D01*
X015244Y013284D02*
X015244Y013284D01*
X015244Y013166D02*
X015244Y013166D01*
X015300Y013047D02*
X014676Y013047D01*
X014732Y013080D02*
X014732Y013435D01*
X014732Y013435D01*
X014732Y013790D01*
X014784Y013790D01*
X014784Y013796D01*
X014689Y013891D01*
X014672Y013933D01*
X014164Y013933D01*
X014164Y013770D01*
X014338Y013770D01*
X014348Y013760D01*
X014358Y013770D01*
X014594Y013770D01*
X014594Y013769D01*
X014610Y013779D01*
X014651Y013790D01*
X014732Y013790D01*
X014732Y013435D01*
X014732Y013080D01*
X014732Y013166D02*
X014732Y013166D01*
X014732Y013284D02*
X014732Y013284D01*
X014732Y013403D02*
X014732Y013403D01*
X014732Y013435D02*
X014732Y013435D01*
X014732Y013521D02*
X014732Y013521D01*
X014732Y013640D02*
X014732Y013640D01*
X014732Y013758D02*
X014732Y013758D01*
X014703Y013877D02*
X014164Y013877D01*
X013964Y014047D02*
X014078Y014133D01*
X014928Y014133D01*
X014978Y014083D01*
X014988Y013623D01*
X014988Y013435D01*
X015106Y013100D02*
X015106Y013100D01*
X015300Y012929D02*
X014656Y012929D01*
X014537Y012810D02*
X015300Y012810D01*
X015300Y012692D02*
X014419Y012692D01*
X014278Y012833D02*
X014476Y013032D01*
X014476Y013435D01*
X014220Y013435D02*
X014220Y013126D01*
X014128Y013033D01*
X013678Y013033D01*
X012928Y012283D01*
X007878Y012283D01*
X008036Y011981D02*
X008038Y011981D01*
X008039Y011862D02*
X006884Y011862D01*
X006884Y011744D02*
X008088Y011744D01*
X008233Y011625D02*
X006884Y011625D01*
X006884Y011507D02*
X013694Y011507D01*
X013728Y011625D02*
X008522Y011625D01*
X008378Y011933D02*
X012928Y011933D01*
X013828Y012833D01*
X014278Y012833D01*
X013850Y012573D02*
X014735Y012573D01*
X014616Y012455D02*
X013732Y012455D01*
X013613Y012336D02*
X014498Y012336D01*
X014379Y012218D02*
X014359Y012218D01*
X014382Y011938D02*
X014928Y012483D01*
X015428Y012483D01*
X015500Y012555D01*
X015500Y013435D01*
X015756Y013435D02*
X015756Y012361D01*
X015678Y012283D01*
X015178Y012283D01*
X015028Y012133D01*
X015028Y011938D01*
X014382Y011938D02*
X014028Y011938D01*
X013691Y011981D02*
X013258Y011981D01*
X013376Y012099D02*
X013691Y012099D01*
X013696Y012218D02*
X013495Y012218D01*
X013691Y011862D02*
X013139Y011862D01*
X013021Y011744D02*
X013691Y011744D01*
X013691Y011151D02*
X003148Y011151D01*
X003148Y011033D02*
X013691Y011033D01*
X013964Y013435D02*
X013964Y014047D01*
X014564Y014351D02*
X014764Y014351D01*
X014682Y014469D02*
X017860Y014469D01*
X017860Y014351D02*
X015191Y014351D01*
X016011Y013435D02*
X016011Y011954D01*
X016028Y011938D01*
X016378Y012383D02*
X016978Y012383D01*
X017028Y012333D01*
X017028Y011938D01*
X017763Y012573D02*
X017860Y012573D01*
X017860Y012692D02*
X017659Y012692D01*
X017615Y012810D02*
X017860Y012810D01*
X017860Y012929D02*
X017618Y012929D01*
X017578Y013047D02*
X017860Y013047D01*
X017860Y013403D02*
X017491Y013403D01*
X017491Y013521D02*
X017860Y013521D01*
X017860Y013640D02*
X017491Y013640D01*
X017420Y013758D02*
X017860Y013758D01*
X017860Y014588D02*
X017651Y014588D01*
X017769Y014706D02*
X017860Y014706D01*
X017860Y014825D02*
X017818Y014825D01*
X017818Y014943D02*
X017860Y014943D01*
X017860Y015062D02*
X017818Y015062D01*
X017818Y015180D02*
X017860Y015180D01*
X017860Y015299D02*
X017818Y015299D01*
X017818Y015417D02*
X017860Y015417D01*
X017818Y015536D02*
X017908Y015536D01*
X017980Y015654D02*
X017818Y015654D01*
X017291Y015654D02*
X017291Y015654D01*
X017291Y015536D02*
X017291Y015536D01*
X017291Y015417D02*
X017291Y015417D01*
X018808Y015654D02*
X019198Y015654D01*
X019198Y015536D02*
X018880Y015536D01*
X018847Y015616D02*
X018847Y015616D01*
X018928Y015417D02*
X019198Y015417D01*
X019198Y015299D02*
X018928Y015299D01*
X018928Y015180D02*
X019198Y015180D01*
X019198Y015062D02*
X018928Y015062D01*
X018928Y014943D02*
X019198Y014943D01*
X019188Y014825D02*
X018928Y014825D01*
X018928Y014706D02*
X019188Y014706D01*
X019118Y014588D02*
X018928Y014588D01*
X018928Y014469D02*
X019108Y014469D01*
X019174Y013758D02*
X018928Y013758D01*
X019578Y015983D02*
X019428Y016133D01*
X016267Y013435D02*
X016267Y012494D01*
X016378Y012383D01*
X017786Y009374D02*
X017860Y009374D01*
X017860Y009255D02*
X017667Y009255D01*
X017549Y009137D02*
X017860Y009137D01*
X017860Y009018D02*
X017434Y009018D01*
X017314Y008900D02*
X017860Y008900D01*
X017869Y008781D02*
X017537Y008781D01*
X017558Y008663D02*
X017918Y008663D01*
X017942Y008606D02*
X017942Y008606D01*
X018003Y008544D02*
X017558Y008544D01*
X017558Y008426D02*
X018164Y008426D01*
X018092Y008456D02*
X018092Y008456D01*
X009378Y013960D02*
X009178Y014183D01*
X009178Y015333D02*
X007028Y015333D01*
X006128Y014433D01*
X004378Y014433D01*
X003628Y015683D02*
X003678Y015733D01*
X009328Y015733D01*
X009228Y015983D02*
X004228Y015983D01*
X003628Y016583D01*
X003628Y016683D01*
X003956Y017076D02*
X008432Y017076D01*
X008432Y016958D02*
X004066Y016958D01*
X004115Y016839D02*
X008432Y016839D01*
X008432Y016721D02*
X004138Y016721D01*
X004138Y016602D02*
X008432Y016602D01*
X008472Y016484D02*
X004097Y016484D01*
X004128Y016365D02*
X008485Y016365D01*
X008524Y016247D02*
X004247Y016247D01*
X006864Y012455D02*
X007581Y012455D01*
X007538Y012336D02*
X006864Y012336D01*
X006864Y012218D02*
X007538Y012218D01*
X007586Y012099D02*
X006851Y012099D01*
X006860Y011981D02*
X007719Y011981D01*
X006566Y011625D02*
X006489Y011625D01*
X006489Y011507D02*
X006566Y011507D01*
X006566Y011388D02*
X006489Y011388D01*
X006611Y010796D02*
X006044Y010796D01*
X006205Y010677D02*
X006450Y010677D01*
X005611Y010796D02*
X005303Y010796D01*
X005338Y010677D02*
X005450Y010677D01*
X003668Y011270D02*
X003588Y011270D01*
X003588Y011388D02*
X003668Y011388D01*
X003668Y011507D02*
X003588Y011507D01*
X003588Y011625D02*
X003668Y011625D01*
X008820Y017669D02*
X008913Y017669D01*
X009125Y017669D02*
X009142Y017669D01*
X009142Y017787D02*
X009125Y017787D01*
X009125Y017906D02*
X009142Y017906D01*
X009133Y017983D02*
X009133Y017239D01*
X009078Y016839D02*
X009078Y016839D01*
X009078Y016247D02*
X009078Y016247D01*
X009125Y018024D02*
X009142Y018024D01*
X009142Y018143D02*
X009125Y018143D01*
X009125Y018261D02*
X009142Y018261D01*
X008870Y018261D02*
X008857Y018261D01*
X008680Y025964D02*
X009175Y025964D01*
X009056Y026082D02*
X008799Y026082D01*
X008849Y026201D02*
X009006Y026201D01*
X008988Y026319D02*
X008868Y026319D01*
X008860Y026438D02*
X008995Y026438D01*
X008147Y026675D02*
X007737Y026675D01*
X007727Y026684D02*
X007669Y026727D01*
X007604Y026760D01*
X007535Y026782D01*
X007468Y026793D01*
X007468Y026373D01*
X007887Y026373D01*
X007876Y026441D01*
X007854Y026510D01*
X007821Y026574D01*
X007778Y026633D01*
X007727Y026684D01*
X007830Y026556D02*
X008044Y026556D01*
X007995Y026438D02*
X007877Y026438D01*
X007887Y026293D02*
X007468Y026293D01*
X007468Y026373D01*
X007388Y026373D01*
X007388Y026293D01*
X007468Y026293D01*
X007468Y025874D01*
X007535Y025885D01*
X007604Y025907D01*
X007669Y025940D01*
X007727Y025982D01*
X007778Y026034D01*
X007821Y026092D01*
X007854Y026157D01*
X007876Y026226D01*
X007887Y026293D01*
X007868Y026201D02*
X008006Y026201D01*
X007988Y026319D02*
X007468Y026319D01*
X007388Y026319D02*
X006868Y026319D01*
X006968Y026293D02*
X006979Y026226D01*
X007001Y026157D01*
X007034Y026092D01*
X007077Y026034D01*
X007128Y025982D01*
X007186Y025940D01*
X007251Y025907D01*
X007320Y025885D01*
X007388Y025874D01*
X007388Y026293D01*
X006968Y026293D01*
X006968Y026373D02*
X007388Y026373D01*
X007388Y026793D01*
X007320Y026782D01*
X007251Y026760D01*
X007186Y026727D01*
X007128Y026684D01*
X007077Y026633D01*
X007034Y026574D01*
X007001Y026510D01*
X006979Y026441D01*
X006968Y026373D01*
X006978Y026438D02*
X006860Y026438D01*
X006811Y026556D02*
X007025Y026556D01*
X007119Y026675D02*
X006708Y026675D01*
X006849Y026201D02*
X006987Y026201D01*
X007041Y026082D02*
X006799Y026082D01*
X006680Y025964D02*
X007153Y025964D01*
X007388Y025964D02*
X007468Y025964D01*
X007468Y026082D02*
X007388Y026082D01*
X007388Y026201D02*
X007468Y026201D01*
X007468Y026438D02*
X007388Y026438D01*
X007388Y026556D02*
X007468Y026556D01*
X007468Y026675D02*
X007388Y026675D01*
X007814Y026082D02*
X008056Y026082D01*
X008175Y025964D02*
X007702Y025964D01*
X007670Y027623D02*
X007251Y027623D01*
X007368Y027741D02*
X007563Y027741D01*
X007509Y027860D02*
X007417Y027860D01*
X007933Y027741D02*
X008013Y027741D01*
X008013Y027623D02*
X007933Y027623D01*
X006695Y027623D02*
X006668Y027623D01*
X006147Y026675D02*
X006038Y026675D01*
X006044Y026556D02*
X005919Y026556D01*
X005860Y026438D02*
X005995Y026438D01*
X005988Y026319D02*
X005868Y026319D01*
X005849Y026201D02*
X006006Y026201D01*
X006056Y026082D02*
X005799Y026082D01*
X005680Y025964D02*
X006175Y025964D01*
X005175Y025964D02*
X004680Y025964D01*
X004799Y026082D02*
X005056Y026082D01*
X005006Y026201D02*
X004849Y026201D01*
X004868Y026319D02*
X004988Y026319D01*
X004995Y026438D02*
X004860Y026438D01*
X004811Y026556D02*
X005044Y026556D01*
X005147Y026675D02*
X004708Y026675D01*
X004378Y027283D02*
X003428Y026333D01*
X002628Y029637D02*
X024333Y029637D01*
X025990Y027860D02*
X026123Y027860D01*
X026123Y027978D02*
X026046Y027978D01*
X026086Y028097D02*
X026123Y028097D01*
X026123Y027741D02*
X025898Y027741D01*
X025806Y027623D02*
X026123Y027623D01*
X026123Y027504D02*
X025671Y027504D01*
X025490Y027386D02*
X026123Y027386D01*
X026123Y027030D02*
X025513Y027030D01*
X025628Y026912D02*
X026123Y026912D01*
X026123Y026793D02*
X025628Y026793D01*
X025708Y026675D02*
X026123Y026675D01*
X026123Y026556D02*
X025811Y026556D01*
X025860Y026438D02*
X026123Y026438D01*
X026123Y026319D02*
X025868Y026319D01*
X025849Y026201D02*
X026123Y026201D01*
X026123Y026082D02*
X025799Y026082D01*
X025680Y025964D02*
X026123Y025964D01*
X026123Y025845D02*
X025328Y025845D01*
X025328Y025727D02*
X026123Y025727D01*
X026123Y025608D02*
X025328Y025608D01*
X025328Y025490D02*
X026123Y025490D01*
X026123Y025371D02*
X025328Y025371D01*
X025328Y025253D02*
X026123Y025253D01*
X026123Y025134D02*
X025328Y025134D01*
X025328Y025016D02*
X026123Y025016D01*
X026123Y024897D02*
X026059Y024897D01*
X025768Y024897D02*
X025688Y024897D01*
X025688Y024779D02*
X025768Y024779D01*
X025768Y024660D02*
X025688Y024660D01*
X025688Y024542D02*
X025768Y024542D01*
X025396Y024897D02*
X025328Y024897D01*
X025128Y024083D02*
X025128Y025933D01*
X025428Y026233D01*
X025428Y026333D01*
X025428Y026833D01*
X025328Y026933D01*
X025128Y024083D02*
X025728Y023483D01*
X022260Y023001D02*
X021992Y023001D01*
X022111Y022883D02*
X022258Y022883D01*
X022258Y022764D02*
X022229Y022764D01*
X021378Y022483D02*
X021228Y022333D01*
X020828Y022333D01*
X021078Y022083D01*
X021078Y021188D01*
X020741Y020276D02*
X020355Y020276D01*
X020189Y020157D02*
X020788Y020157D01*
X020203Y021853D02*
X019413Y021853D01*
X019278Y021988D01*
X019073Y021988D01*
X018678Y022283D01*
X018960Y023712D02*
X017816Y023712D01*
X017698Y023831D02*
X018957Y023831D01*
X020203Y022853D02*
X020222Y022833D01*
X020203Y022353D02*
X020222Y022333D01*
X020828Y022333D01*
X015755Y024542D02*
X015662Y024542D01*
X021228Y029400D02*
X021718Y029400D01*
X021594Y029282D02*
X021351Y029282D01*
X021466Y029163D02*
X021536Y029163D01*
X010013Y029282D02*
X009933Y029282D01*
X009933Y029400D02*
X010013Y029400D01*
D35*
X009478Y028883D02*
X009358Y029003D01*
X008973Y029003D01*
X009478Y028883D02*
X009478Y026383D01*
X009428Y026333D01*
X008973Y026879D02*
X008973Y028003D01*
X007973Y028729D02*
X007973Y029003D01*
X007973Y028729D02*
X007778Y028533D01*
X006628Y028533D01*
X006478Y028383D01*
X006478Y027383D01*
X005428Y026333D01*
X008428Y026333D02*
X008973Y026879D01*
X012428Y026333D02*
X012478Y026383D01*
X012478Y028283D01*
X012678Y028483D01*
X013578Y028483D01*
X013973Y028879D01*
X013973Y029003D01*
X013973Y028003D02*
X013973Y026788D01*
X014428Y026333D01*
X014973Y026788D02*
X014973Y028003D01*
X015478Y027283D02*
X015478Y028733D01*
X015208Y029003D01*
X014973Y029003D01*
X015973Y029003D02*
X016208Y029003D01*
X016478Y028733D01*
X016478Y027283D01*
X017428Y026333D01*
X016428Y026333D02*
X015478Y027283D01*
X014973Y026788D02*
X015428Y026333D01*
X013428Y026333D02*
X012973Y026788D01*
X012973Y028003D01*
X018973Y028988D02*
X018973Y029003D01*
X018973Y028988D02*
X019478Y028483D01*
X019478Y027483D01*
X020428Y026533D01*
X021428Y026333D02*
X019973Y027788D01*
X019973Y028003D01*
X020973Y029003D02*
X021358Y029003D01*
X021478Y028883D01*
X021478Y027283D01*
X022428Y026333D01*
X022678Y027483D02*
X022478Y027683D01*
X022478Y028498D01*
X021973Y029003D01*
X022678Y027483D02*
X023278Y027483D01*
X024428Y026333D01*
X024278Y026933D02*
X024828Y026933D01*
X020032Y017179D02*
X018878Y017179D01*
X020032Y017179D02*
X020178Y017033D01*
X020178Y014733D01*
X020368Y014733D02*
X020378Y014943D01*
X020378Y016433D01*
X019978Y016183D02*
X019978Y014733D01*
X019778Y014733D02*
X019778Y016083D01*
X019578Y015983D02*
X019578Y014733D01*
X019388Y014733D02*
X019388Y015823D01*
X019278Y015933D01*
X017728Y015933D01*
X017628Y015833D01*
X017628Y014833D01*
X017528Y014733D01*
X016128Y014733D01*
X014978Y015033D02*
X014378Y014433D01*
X013678Y014433D01*
X013628Y014383D01*
X013628Y013333D01*
X013028Y012733D01*
X006678Y012733D01*
X006578Y012833D01*
X006578Y012438D01*
X006528Y012388D01*
X006578Y012833D02*
X006578Y013606D01*
X007978Y013606D02*
X007978Y013083D01*
X008128Y012933D01*
X012928Y012933D01*
X013428Y013433D01*
X013428Y014583D01*
X013478Y014633D01*
X014278Y014633D01*
X014728Y015083D01*
X014728Y015478D01*
X014732Y015732D01*
X014988Y015732D02*
X014978Y015522D01*
X014978Y015033D01*
X014478Y015133D02*
X014178Y014833D01*
X013278Y014833D01*
X013228Y014783D01*
X013228Y013533D01*
X012828Y013133D01*
X009528Y013133D01*
X009378Y013283D01*
X009378Y013606D01*
X009178Y014183D02*
X009078Y014283D01*
X009078Y014533D01*
X009128Y014483D01*
X009078Y014533D02*
X009078Y014926D01*
X009274Y014926D02*
X009278Y014929D01*
X009278Y015233D01*
X009178Y015333D01*
X009378Y015533D02*
X009478Y015433D01*
X009478Y014933D01*
X009471Y014926D01*
X008881Y014926D02*
X008881Y014486D01*
X008778Y014383D01*
X008628Y014683D02*
X008684Y014740D01*
X008684Y014926D01*
X009328Y015733D02*
X009471Y015877D01*
X009471Y016540D01*
X009278Y016537D02*
X009278Y016033D01*
X009228Y015983D01*
X009278Y016537D02*
X009274Y016540D01*
X009078Y016540D02*
X009078Y017183D01*
X009133Y017239D01*
X008622Y016603D02*
X008622Y017983D01*
X008622Y016603D02*
X008684Y016540D01*
X010778Y013606D02*
X010728Y013433D01*
X010828Y013333D01*
X012728Y013333D01*
X013028Y013633D01*
X013028Y014933D01*
X013128Y015033D01*
X014028Y015033D01*
X014228Y015233D01*
X014228Y015525D01*
X014220Y015732D01*
X013964Y015732D02*
X012776Y015732D01*
X012678Y015633D01*
X012678Y013683D01*
X012600Y013606D01*
X012128Y013606D01*
X014478Y015133D02*
X014478Y015534D01*
X014476Y015732D01*
X019578Y013933D02*
X019578Y010083D01*
X019978Y010633D02*
X021228Y009383D01*
X021589Y009383D01*
X022239Y008733D01*
X020178Y010733D02*
X020178Y013933D01*
X020368Y013933D02*
X020678Y013933D01*
X019978Y013933D02*
X019978Y010633D01*
D36*
X021828Y010983D03*
X017278Y012883D03*
X016778Y015083D03*
X014978Y014083D03*
X012328Y014433D03*
X015978Y018233D03*
X017628Y019183D03*
X020078Y020479D03*
X018678Y022283D03*
X020178Y024883D03*
X021378Y022483D03*
X024778Y020733D03*
X016028Y024333D03*
X015478Y024833D03*
X011028Y020383D03*
X011028Y019333D03*
X008278Y014783D03*
X007828Y014383D03*
X007878Y012283D03*
X008378Y011933D03*
D37*
X007978Y013960D02*
X006578Y013960D01*
X005005Y013960D01*
X003628Y012683D01*
X002928Y011983D01*
X002928Y010633D01*
X004228Y009333D01*
X007728Y013960D02*
X009378Y013960D01*
X010778Y013960D01*
X012128Y013960D01*
X012328Y015077D02*
X011778Y015077D01*
X010678Y015077D02*
X010028Y015077D01*
X010028Y014583D01*
X009928Y014483D01*
X009128Y014483D01*
X008778Y014383D02*
X007828Y014383D01*
X007978Y013960D02*
X009378Y013960D01*
X008628Y014683D02*
X008378Y014683D01*
X008278Y014783D01*
X011028Y019333D02*
X003678Y019333D01*
X003628Y019383D01*
X003628Y020383D02*
X011028Y020383D01*
X008612Y022333D02*
X007678Y022533D01*
X007528Y022383D01*
X003128Y022383D01*
X002928Y022583D01*
X002928Y023433D01*
X002678Y023683D01*
X002273Y023683D01*
X002271Y023682D01*
X003028Y024233D02*
X002778Y024483D01*
X002778Y025433D01*
X002528Y025683D01*
X002078Y025683D01*
X001928Y025833D01*
X001928Y026833D01*
X002178Y027083D01*
X002828Y027083D01*
X003428Y027683D01*
X003428Y028883D01*
X003547Y029003D01*
X003973Y029003D01*
X004973Y029003D01*
X003628Y024233D02*
X003028Y024233D01*
X003628Y023233D02*
X003630Y023231D01*
X005738Y023231D01*
X015478Y024833D02*
X016928Y024833D01*
X018428Y026333D01*
X019428Y026333D02*
X019428Y024833D01*
X019078Y024483D01*
X016178Y024483D01*
X016028Y024333D01*
X015978Y018233D02*
X018532Y018233D01*
X018878Y017888D01*
X020123Y017888D01*
X020128Y017883D01*
X022228Y019383D02*
X022328Y019283D01*
X023878Y019283D01*
X025178Y020583D01*
X025178Y021133D01*
X025528Y021483D01*
X025728Y021483D01*
X022228Y020479D02*
X022228Y019383D01*
D38*
X020878Y018033D02*
X020878Y013933D01*
X020678Y013933D01*
X020878Y013933D02*
X021223Y013933D01*
X021328Y013929D01*
X017628Y012333D02*
X017278Y012733D01*
X017278Y012883D01*
X017628Y012333D02*
X017628Y009583D01*
X017378Y009333D01*
X017028Y009333D01*
X017028Y010333D02*
X017028Y011229D01*
X016028Y011229D02*
X016028Y010333D01*
X015028Y010333D02*
X015028Y011229D01*
X014028Y011229D02*
X014028Y010333D01*
X011828Y010333D02*
X004828Y010333D01*
X004228Y009333D02*
X011828Y009333D01*
X017628Y019183D02*
X019728Y019183D01*
X020878Y018033D01*
X017628Y019183D02*
X017628Y023533D01*
X017278Y023883D01*
X005978Y023883D01*
X005738Y023644D01*
X005738Y023231D01*
D39*
X021328Y013929D02*
X021928Y013929D01*
M02*
