%
M48
M72
T01C0.0200
T02C0.0236
T03C0.0400
T04C0.0433
T05C0.1102
%
T01
X8378Y11933
X7878Y12283
X7828Y14383
X8278Y14783
X12328Y14433
X14978Y14083
X16778Y15083
X17278Y12883
X21828Y10983
X15978Y18233
X17628Y19183
X20078Y20479
X18678Y22283
X20178Y24883
X21378Y22483
X24778Y20733
X16028Y24333
X15478Y24833
X11028Y20383
X11028Y19333
T02
X2330Y23239
X2330Y25148
T03
X4828Y8333
X5828Y8333
X6828Y8333
X7828Y8333
X8828Y8333
X9828Y8333
X10828Y8333
X11828Y8333
X11828Y9333
X11828Y10333
X10828Y10333
X10828Y9333
X9828Y9333
X9828Y10333
X8828Y10333
X8828Y9333
X7828Y9333
X7828Y10333
X6828Y10333
X6828Y9333
X5828Y9333
X5828Y10333
X4828Y10333
X4828Y9333
X3628Y11683
X3628Y12683
X3628Y13683
X3628Y14683
X3628Y15683
X3628Y16683
X3628Y18383
X3628Y19383
X3628Y20383
X3628Y21383
X3628Y23233
X3628Y24233
X3428Y26333
X2428Y26333
X3973Y28003
X3973Y29003
X4973Y29003
X4973Y28003
X5973Y28003
X5973Y29003
X6973Y29003
X6973Y28003
X7973Y28003
X7973Y29003
X8973Y29003
X8973Y28003
X9973Y28003
X9973Y29003
X10973Y29003
X10973Y28003
X11973Y28003
X11973Y29003
X12973Y29003
X12973Y28003
X13973Y28003
X13973Y29003
X14973Y29003
X14973Y28003
X15973Y28003
X15973Y29003
X16973Y29003
X16973Y28003
X17973Y28003
X17973Y29003
X18973Y29003
X18973Y28003
X19973Y28003
X19973Y29003
X20973Y29003
X21973Y29003
X21973Y28003
X20973Y28003
X21428Y26333
X22428Y26333
X23428Y26333
X24428Y26333
X25428Y26333
X25728Y24483
X25728Y23483
X25728Y22483
X25728Y21483
X25728Y20483
X25728Y19483
X25728Y16733
X25728Y15733
X25728Y14733
X25728Y13733
X25728Y12733
X25728Y11733
X23617Y8733
X22239Y8733
X20861Y8733
X19483Y8733
X17028Y8333
X17028Y9333
X17028Y10333
X16028Y10333
X16028Y9333
X16028Y8333
X15028Y8333
X15028Y9333
X15028Y10333
X14028Y10333
X14028Y9333
X14028Y8333
X14428Y26333
X15428Y26333
X16428Y26333
X17428Y26333
X18428Y26333
X19428Y26333
X20428Y26333
X22973Y28003
X22973Y29003
X13428Y26333
X12428Y26333
X11428Y26333
X10428Y26333
X9428Y26333
X8428Y26333
X7428Y26333
X6428Y26333
X5428Y26333
X4428Y26333
T04
X1228Y25615
X1228Y22772
T05
X2056Y28503
X2056Y9211
X24890Y9211
X24890Y28503
M30
