G75*
%MOIN*%
%OFA0B0*%
%FSLAX24Y24*%
%IPPOS*%
%LPD*%
%AMOC8*
5,1,8,0,0,1.08239X$1,22.5*
%
%ADD10C,0.0040*%
%ADD11C,0.0050*%
%ADD12C,0.0100*%
%ADD13C,0.0080*%
%ADD14C,0.0060*%
%ADD15R,0.0100X0.0250*%
%ADD16R,0.0300X0.0180*%
%ADD17C,0.0220*%
%ADD18C,0.0020*%
%ADD19C,0.0157*%
%ADD20C,0.0160*%
%ADD21R,0.0160X0.0280*%
%ADD22R,0.0250X0.0100*%
%ADD23R,0.0300X0.0340*%
D10*
X000951Y010153D02*
X000898Y010207D01*
X000951Y010260D01*
X000898Y010313D01*
X000951Y010367D01*
X001111Y010367D01*
X001111Y010485D02*
X000951Y010485D01*
X000898Y010538D01*
X000951Y010592D01*
X000898Y010645D01*
X000951Y010698D01*
X001111Y010698D01*
X001111Y010816D02*
X000951Y010816D01*
X000898Y010870D01*
X000951Y010923D01*
X000898Y010976D01*
X000951Y011030D01*
X001111Y011030D01*
X001289Y011109D02*
X001289Y011216D01*
X001289Y011163D02*
X001609Y011163D01*
X001609Y011216D02*
X001609Y011109D01*
X001556Y010991D02*
X001609Y010938D01*
X001609Y010778D01*
X001289Y010778D01*
X001396Y010778D02*
X001396Y010938D01*
X001449Y010991D01*
X001556Y010991D01*
X001556Y010660D02*
X001449Y010660D01*
X001396Y010607D01*
X001396Y010446D01*
X001289Y010446D02*
X001609Y010446D01*
X001609Y010607D01*
X001556Y010660D01*
X001396Y010553D02*
X001289Y010660D01*
X001111Y010153D02*
X000951Y010153D01*
X000951Y011148D02*
X000951Y011201D01*
X000898Y011201D01*
X000898Y011148D01*
X000951Y011148D01*
X000951Y011314D02*
X001004Y011367D01*
X001004Y011527D01*
X001058Y011527D02*
X000898Y011527D01*
X000898Y011367D01*
X000951Y011314D01*
X001111Y011367D02*
X001111Y011474D01*
X001058Y011527D01*
X001058Y011645D02*
X000951Y011645D01*
X000898Y011698D01*
X000898Y011859D01*
X000898Y011976D02*
X001111Y011976D01*
X001004Y011976D02*
X001111Y012083D01*
X001111Y012137D01*
X001058Y012253D02*
X001111Y012306D01*
X001111Y012413D01*
X001058Y012466D01*
X000951Y012466D01*
X000898Y012413D01*
X000898Y012306D01*
X000951Y012253D01*
X001058Y012253D01*
X001289Y012325D02*
X001609Y012538D01*
X001609Y012656D02*
X001609Y012816D01*
X001556Y012870D01*
X001503Y012870D01*
X001449Y012816D01*
X001449Y012656D01*
X001289Y012656D02*
X001289Y012816D01*
X001343Y012870D01*
X001396Y012870D01*
X001449Y012816D01*
X001449Y012988D02*
X001449Y013201D01*
X001343Y013095D02*
X001556Y013095D01*
X001289Y013319D02*
X001609Y013533D01*
X001556Y013651D02*
X001609Y013704D01*
X001609Y013811D01*
X001556Y013864D01*
X001503Y013864D01*
X001289Y013651D01*
X001289Y013864D01*
X001289Y013982D02*
X001609Y014196D01*
X001556Y014314D02*
X001609Y014367D01*
X001609Y014474D01*
X001556Y014527D01*
X001503Y014527D01*
X001449Y014474D01*
X001396Y014527D01*
X001343Y014527D01*
X001289Y014474D01*
X001289Y014367D01*
X001343Y014314D01*
X001449Y014421D02*
X001449Y014474D01*
X001111Y014400D02*
X001111Y014240D01*
X001058Y014186D01*
X000951Y014186D01*
X000898Y014240D01*
X000898Y014400D01*
X000951Y014518D02*
X000898Y014571D01*
X000898Y014678D01*
X000951Y014731D01*
X001058Y014731D01*
X001111Y014678D01*
X001111Y014571D01*
X001058Y014518D01*
X000951Y014518D01*
X000898Y014849D02*
X001111Y014849D01*
X001111Y014903D01*
X001058Y014956D01*
X001111Y015009D01*
X001058Y015063D01*
X000898Y015063D01*
X000898Y014956D02*
X001058Y014956D01*
X000951Y014074D02*
X000898Y014074D01*
X000898Y014021D01*
X000951Y014021D01*
X000951Y014074D01*
X000898Y013903D02*
X000898Y013743D01*
X000951Y013689D01*
X001058Y013689D01*
X001111Y013743D01*
X001111Y013903D01*
X001111Y013522D02*
X000898Y013522D01*
X000898Y013575D02*
X000898Y013468D01*
X000898Y013354D02*
X000951Y013301D01*
X001164Y013301D01*
X001111Y013354D02*
X001111Y013247D01*
X001058Y013129D02*
X001111Y013076D01*
X001111Y012969D01*
X001058Y012916D01*
X000951Y012916D01*
X000898Y012969D01*
X000898Y013076D01*
X000951Y013129D01*
X001058Y013129D01*
X001058Y012798D02*
X001111Y012744D01*
X001111Y012584D01*
X001218Y012584D02*
X000898Y012584D01*
X000898Y012744D01*
X000951Y012798D01*
X001058Y012798D01*
X001289Y012656D02*
X001609Y012656D01*
X001449Y012207D02*
X001449Y011993D01*
X001449Y011875D02*
X001449Y011662D01*
X001503Y011662D02*
X001609Y011769D01*
X001503Y011875D01*
X001289Y011875D01*
X001111Y011859D02*
X001111Y011698D01*
X001058Y011645D01*
X001289Y011662D02*
X001503Y011662D01*
X001556Y012100D02*
X001343Y012100D01*
X001111Y013468D02*
X001111Y013522D01*
X001218Y013522D02*
X001271Y013522D01*
X007098Y013453D02*
X007338Y013453D01*
X007458Y013573D01*
X007338Y013694D01*
X007098Y013694D01*
X007278Y013694D02*
X007278Y013453D01*
X007278Y013822D02*
X007278Y014062D01*
X007458Y014002D02*
X007278Y013822D01*
X007098Y014002D02*
X007458Y014002D01*
X008498Y014002D02*
X008498Y013882D01*
X008558Y013822D01*
X008498Y013694D02*
X008738Y013694D01*
X008858Y013573D01*
X008738Y013453D01*
X008498Y013453D01*
X008678Y013453D02*
X008678Y013694D01*
X008798Y013822D02*
X008858Y013882D01*
X008858Y014002D01*
X008798Y014062D01*
X008738Y014062D01*
X008678Y014002D01*
X008618Y014062D01*
X008558Y014062D01*
X008498Y014002D01*
X008678Y014002D02*
X008678Y013942D01*
X009898Y014062D02*
X009898Y013822D01*
X010138Y014062D01*
X010198Y014062D01*
X010258Y014002D01*
X010258Y013882D01*
X010198Y013822D01*
X010138Y013694D02*
X009898Y013694D01*
X010078Y013694D02*
X010078Y013453D01*
X010138Y013453D02*
X009898Y013453D01*
X010138Y013453D02*
X010258Y013573D01*
X010138Y013694D01*
X011298Y013694D02*
X011538Y013694D01*
X011658Y013573D01*
X011538Y013453D01*
X011298Y013453D01*
X011478Y013453D02*
X011478Y013694D01*
X011538Y013822D02*
X011658Y013942D01*
X011298Y013942D01*
X011298Y013822D02*
X011298Y014062D01*
X012648Y014002D02*
X012648Y013882D01*
X012708Y013822D01*
X012948Y014062D01*
X012708Y014062D01*
X012648Y014002D01*
X012708Y013822D02*
X012948Y013822D01*
X013008Y013882D01*
X013008Y014002D01*
X012948Y014062D01*
X012888Y013694D02*
X012648Y013694D01*
X012828Y013694D02*
X012828Y013453D01*
X012888Y013453D02*
X013008Y013573D01*
X012888Y013694D01*
X012888Y013453D02*
X012648Y013453D01*
X013408Y012025D02*
X013348Y011965D01*
X013348Y011845D01*
X013408Y011785D01*
X013648Y012025D01*
X013408Y012025D01*
X013648Y012025D02*
X013708Y011965D01*
X013708Y011845D01*
X013648Y011785D01*
X013408Y011785D01*
X013348Y011657D02*
X013348Y011417D01*
X013348Y011537D02*
X013708Y011537D01*
X013588Y011417D01*
X013648Y011289D02*
X013528Y011289D01*
X013468Y011229D01*
X013468Y011048D01*
X013348Y011048D02*
X013708Y011048D01*
X013708Y011229D01*
X013648Y011289D01*
X013468Y011168D02*
X013348Y011289D01*
X014348Y011289D02*
X014468Y011168D01*
X014468Y011229D02*
X014468Y011048D01*
X014348Y011048D02*
X014708Y011048D01*
X014708Y011229D01*
X014648Y011289D01*
X014528Y011289D01*
X014468Y011229D01*
X014588Y011417D02*
X014708Y011537D01*
X014348Y011537D01*
X014348Y011417D02*
X014348Y011657D01*
X014348Y011785D02*
X014348Y012025D01*
X014348Y011905D02*
X014708Y011905D01*
X014588Y011785D01*
X015348Y011785D02*
X015588Y012025D01*
X015648Y012025D01*
X015708Y011965D01*
X015708Y011845D01*
X015648Y011785D01*
X015708Y011537D02*
X015348Y011537D01*
X015348Y011417D02*
X015348Y011657D01*
X015348Y011785D02*
X015348Y012025D01*
X015708Y011537D02*
X015588Y011417D01*
X015648Y011289D02*
X015528Y011289D01*
X015468Y011229D01*
X015468Y011048D01*
X015348Y011048D02*
X015708Y011048D01*
X015708Y011229D01*
X015648Y011289D01*
X015468Y011168D02*
X015348Y011289D01*
X016348Y011289D02*
X016468Y011168D01*
X016468Y011229D02*
X016468Y011048D01*
X016348Y011048D02*
X016708Y011048D01*
X016708Y011229D01*
X016648Y011289D01*
X016528Y011289D01*
X016468Y011229D01*
X016588Y011417D02*
X016708Y011537D01*
X016348Y011537D01*
X016348Y011417D02*
X016348Y011657D01*
X016408Y011785D02*
X016348Y011845D01*
X016348Y011965D01*
X016408Y012025D01*
X016468Y012025D01*
X016528Y011965D01*
X016528Y011905D01*
X016528Y011965D02*
X016588Y012025D01*
X016648Y012025D01*
X016708Y011965D01*
X016708Y011845D01*
X016648Y011785D01*
X013758Y015021D02*
X013758Y015141D01*
X013758Y015081D02*
X013398Y015081D01*
X013398Y015021D02*
X013398Y015141D01*
X013458Y015267D02*
X013398Y015327D01*
X013398Y015447D01*
X013458Y015507D01*
X013398Y015635D02*
X013398Y015875D01*
X013398Y015755D02*
X013758Y015755D01*
X013638Y015635D01*
X013698Y015507D02*
X013758Y015447D01*
X013758Y015327D01*
X013698Y015267D01*
X013458Y015267D01*
X012508Y016077D02*
X012448Y016017D01*
X012208Y016017D01*
X012148Y016077D01*
X012148Y016197D01*
X012208Y016257D01*
X012208Y016385D02*
X012148Y016385D01*
X012208Y016385D02*
X012448Y016625D01*
X012508Y016625D01*
X012508Y016385D01*
X012448Y016257D02*
X012508Y016197D01*
X012508Y016077D01*
X011958Y016077D02*
X011898Y016017D01*
X011658Y016017D01*
X011598Y016077D01*
X011598Y016197D01*
X011658Y016257D01*
X011658Y016385D02*
X011598Y016445D01*
X011598Y016565D01*
X011658Y016625D01*
X011718Y016625D01*
X011778Y016565D01*
X011778Y016385D01*
X011658Y016385D01*
X011778Y016385D02*
X011898Y016505D01*
X011958Y016625D01*
X011898Y016257D02*
X011958Y016197D01*
X011958Y016077D01*
X013148Y017167D02*
X013508Y017167D01*
X013508Y017347D01*
X013448Y017407D01*
X013328Y017407D01*
X013268Y017347D01*
X013268Y017167D01*
X013268Y017287D02*
X013148Y017407D01*
X013208Y017535D02*
X013148Y017595D01*
X013148Y017715D01*
X013208Y017775D01*
X013328Y017775D01*
X013388Y017715D01*
X013388Y017655D01*
X013328Y017535D01*
X013508Y017535D01*
X013508Y017775D01*
X013508Y018467D02*
X013148Y018467D01*
X013268Y018467D02*
X013268Y018647D01*
X013328Y018707D01*
X013448Y018707D01*
X013508Y018647D01*
X013508Y018467D01*
X013268Y018587D02*
X013148Y018707D01*
X013208Y018835D02*
X013148Y018895D01*
X013148Y019015D01*
X013208Y019075D01*
X013268Y019075D01*
X013328Y019015D01*
X013328Y018835D01*
X013208Y018835D01*
X013328Y018835D02*
X013448Y018955D01*
X013508Y019075D01*
X014198Y018885D02*
X014258Y018885D01*
X014498Y019125D01*
X014558Y019125D01*
X014558Y018885D01*
X014498Y018757D02*
X014378Y018757D01*
X014318Y018697D01*
X014318Y018517D01*
X014318Y018637D02*
X014198Y018757D01*
X014198Y018517D02*
X014558Y018517D01*
X014558Y018697D01*
X014498Y018757D01*
X014498Y017775D02*
X014438Y017775D01*
X014378Y017715D01*
X014378Y017595D01*
X014438Y017535D01*
X014498Y017535D01*
X014558Y017595D01*
X014558Y017715D01*
X014498Y017775D01*
X014378Y017715D02*
X014318Y017775D01*
X014258Y017775D01*
X014198Y017715D01*
X014198Y017595D01*
X014258Y017535D01*
X014318Y017535D01*
X014378Y017595D01*
X014378Y017407D02*
X014318Y017347D01*
X014318Y017167D01*
X014318Y017287D02*
X014198Y017407D01*
X014378Y017407D02*
X014498Y017407D01*
X014558Y017347D01*
X014558Y017167D01*
X014198Y017167D01*
X017048Y017158D02*
X017108Y017098D01*
X017348Y017098D01*
X017408Y017158D01*
X017408Y017279D01*
X017348Y017339D01*
X017108Y017339D01*
X017048Y017279D01*
X017048Y017158D01*
X017048Y016970D02*
X017408Y016970D01*
X017288Y016850D01*
X017408Y016730D01*
X017048Y016730D01*
X017048Y017467D02*
X017048Y017647D01*
X017108Y017707D01*
X017348Y017707D01*
X017408Y017647D01*
X017408Y017467D01*
X017048Y017467D01*
X017048Y017835D02*
X017048Y018075D01*
X017228Y017955D02*
X017228Y017835D01*
X017408Y017835D02*
X017048Y017835D01*
X017408Y017835D02*
X017408Y018075D01*
X019198Y017770D02*
X019558Y017770D01*
X019378Y017590D01*
X019378Y017830D01*
X019198Y017462D02*
X019198Y017222D01*
X019198Y017342D02*
X019558Y017342D01*
X019438Y017222D01*
X019498Y017094D02*
X019378Y017094D01*
X019318Y017033D01*
X019318Y016853D01*
X019318Y016973D02*
X019198Y017094D01*
X019198Y016853D02*
X019558Y016853D01*
X019558Y017033D01*
X019498Y017094D01*
X021148Y015602D02*
X021148Y015482D01*
X021208Y015422D01*
X021208Y015294D02*
X021148Y015233D01*
X021148Y015113D01*
X021208Y015053D01*
X021448Y015053D01*
X021508Y015113D01*
X021508Y015233D01*
X021448Y015294D01*
X021448Y015422D02*
X021508Y015482D01*
X021508Y015602D01*
X021448Y015662D01*
X021388Y015662D01*
X021328Y015602D01*
X021268Y015662D01*
X021208Y015662D01*
X021148Y015602D01*
X021328Y015602D02*
X021328Y015542D01*
X021748Y015662D02*
X021748Y015422D01*
X021988Y015662D01*
X022048Y015662D01*
X022108Y015602D01*
X022108Y015482D01*
X022048Y015422D01*
X022048Y015294D02*
X022108Y015233D01*
X022108Y015113D01*
X022048Y015053D01*
X021808Y015053D01*
X021748Y015113D01*
X021748Y015233D01*
X021808Y015294D01*
X022448Y015299D02*
X022508Y015239D01*
X022628Y015239D01*
X022688Y015299D01*
X022688Y015419D01*
X022628Y015479D01*
X022568Y015479D01*
X022568Y015239D01*
X022448Y015299D02*
X022448Y015419D01*
X022448Y015607D02*
X022448Y015727D01*
X022448Y015667D02*
X022808Y015667D01*
X022808Y015607D01*
X023048Y015665D02*
X023048Y015545D01*
X023108Y015484D01*
X023228Y015545D02*
X023228Y015665D01*
X023168Y015725D01*
X023108Y015725D01*
X023048Y015665D01*
X023228Y015545D02*
X023288Y015484D01*
X023348Y015484D01*
X023408Y015545D01*
X023408Y015665D01*
X023348Y015725D01*
X023288Y015853D02*
X023288Y015973D01*
X023348Y015913D02*
X023108Y015913D01*
X023048Y015973D01*
X023108Y016098D02*
X023048Y016158D01*
X023048Y016279D01*
X023168Y016339D02*
X023168Y016098D01*
X023228Y016098D02*
X023288Y016158D01*
X023288Y016279D01*
X023228Y016339D01*
X023168Y016339D01*
X023288Y016467D02*
X023288Y016647D01*
X023228Y016707D01*
X023108Y016707D01*
X023048Y016647D01*
X023048Y016467D01*
X022927Y016467D02*
X023288Y016467D01*
X023228Y016098D02*
X023108Y016098D01*
X022808Y016341D02*
X022688Y016221D01*
X022568Y016221D01*
X022448Y016341D01*
X022448Y016467D02*
X022448Y016587D01*
X022448Y016527D02*
X022808Y016527D01*
X022808Y016467D02*
X022808Y016587D01*
X022748Y016712D02*
X022808Y016772D01*
X022808Y016892D01*
X022748Y016952D01*
X022688Y016952D01*
X022448Y016712D01*
X022448Y016952D01*
X022508Y017081D02*
X022448Y017141D01*
X022448Y017261D01*
X022508Y017321D01*
X022508Y017449D02*
X022448Y017449D01*
X022448Y017509D01*
X022508Y017509D01*
X022508Y017449D01*
X022628Y017449D02*
X022688Y017449D01*
X022688Y017509D01*
X022628Y017509D01*
X022628Y017449D01*
X022748Y017321D02*
X022808Y017261D01*
X022808Y017141D01*
X022748Y017081D01*
X022508Y017081D01*
X022927Y016835D02*
X023288Y016835D01*
X023288Y017015D01*
X023228Y017075D01*
X023108Y017075D01*
X023048Y017015D01*
X023048Y016835D01*
X023108Y017203D02*
X023048Y017263D01*
X023048Y017383D01*
X023168Y017443D02*
X023168Y017203D01*
X023228Y017203D02*
X023288Y017263D01*
X023288Y017383D01*
X023228Y017443D01*
X023168Y017443D01*
X023168Y017572D02*
X023288Y017692D01*
X023288Y017752D01*
X023288Y017572D02*
X023048Y017572D01*
X023108Y017203D02*
X023228Y017203D01*
X023648Y017261D02*
X023708Y017321D01*
X023648Y017261D02*
X023648Y017141D01*
X023708Y017081D01*
X023948Y017081D01*
X024008Y017141D01*
X024008Y017261D01*
X023948Y017321D01*
X023888Y017449D02*
X023828Y017449D01*
X023828Y017509D01*
X023888Y017509D01*
X023888Y017449D01*
X023708Y017449D02*
X023648Y017449D01*
X023648Y017509D01*
X023708Y017509D01*
X023708Y017449D01*
X023708Y018001D02*
X023948Y018242D01*
X023708Y018242D01*
X023648Y018181D01*
X023648Y018061D01*
X023708Y018001D01*
X023948Y018001D01*
X024008Y018061D01*
X024008Y018181D01*
X023948Y018242D01*
X023888Y018370D02*
X023648Y018610D01*
X023828Y018738D02*
X023828Y018978D01*
X023888Y019106D02*
X023828Y019166D01*
X023828Y019286D01*
X023768Y019346D01*
X023708Y019346D01*
X023648Y019286D01*
X023648Y019166D01*
X023708Y019106D01*
X023768Y019106D01*
X023828Y019166D01*
X023888Y019106D02*
X023948Y019106D01*
X024008Y019166D01*
X024008Y019286D01*
X023948Y019346D01*
X023888Y019346D01*
X023828Y019286D01*
X024008Y019475D02*
X023888Y019595D01*
X023768Y019595D01*
X023648Y019475D01*
X023648Y018918D02*
X024008Y018918D01*
X023828Y018738D01*
X023888Y018610D02*
X023648Y018370D01*
X022808Y018181D02*
X022748Y018242D01*
X022508Y018001D01*
X022448Y018061D01*
X022448Y018181D01*
X022508Y018242D01*
X022748Y018242D01*
X022808Y018181D02*
X022808Y018061D01*
X022748Y018001D01*
X022508Y018001D01*
X022448Y018370D02*
X022688Y018610D01*
X022628Y018738D02*
X022628Y018978D01*
X022748Y019106D02*
X022808Y019166D01*
X022808Y019286D01*
X022748Y019346D01*
X022508Y019106D01*
X022448Y019166D01*
X022448Y019286D01*
X022508Y019346D01*
X022748Y019346D01*
X022808Y019475D02*
X022688Y019595D01*
X022568Y019595D01*
X022448Y019475D01*
X022508Y019106D02*
X022748Y019106D01*
X022808Y018918D02*
X022448Y018918D01*
X022628Y018738D02*
X022808Y018918D01*
X022448Y018610D02*
X022688Y018370D01*
X023648Y016952D02*
X023648Y016712D01*
X023888Y016952D01*
X023948Y016952D01*
X024008Y016892D01*
X024008Y016772D01*
X023948Y016712D01*
X024008Y016587D02*
X024008Y016467D01*
X024008Y016527D02*
X023648Y016527D01*
X023648Y016467D02*
X023648Y016587D01*
X023648Y016341D02*
X023768Y016221D01*
X023888Y016221D01*
X024008Y016341D01*
X024008Y015667D02*
X023648Y015667D01*
X023648Y015607D02*
X023648Y015727D01*
X023768Y015479D02*
X023768Y015239D01*
X023828Y015239D02*
X023888Y015299D01*
X023888Y015419D01*
X023828Y015479D01*
X023768Y015479D01*
X023648Y015419D02*
X023648Y015299D01*
X023708Y015239D01*
X023828Y015239D01*
X023828Y015111D02*
X023648Y015111D01*
X023828Y015111D02*
X023888Y015051D01*
X023888Y014871D01*
X023648Y014871D01*
X023648Y014743D02*
X023828Y014743D01*
X023888Y014682D01*
X023888Y014502D01*
X023648Y014502D01*
X023648Y014374D02*
X023648Y014194D01*
X023708Y014134D01*
X023768Y014194D01*
X023768Y014374D01*
X023828Y014374D02*
X023648Y014374D01*
X023828Y014374D02*
X023888Y014314D01*
X023888Y014194D01*
X023828Y014006D02*
X023648Y014006D01*
X023828Y014006D02*
X023888Y013946D01*
X023888Y013826D01*
X023828Y013766D01*
X023948Y013638D02*
X024008Y013578D01*
X024008Y013457D01*
X023948Y013397D01*
X023708Y013397D01*
X023648Y013457D01*
X023648Y013578D01*
X023708Y013638D01*
X023648Y013766D02*
X024008Y013766D01*
X023828Y013269D02*
X023828Y013029D01*
X023828Y012901D02*
X023828Y012661D01*
X024008Y012841D01*
X023648Y012841D01*
X023408Y012841D02*
X023408Y012721D01*
X023348Y012661D01*
X023408Y012841D02*
X023348Y012901D01*
X023288Y012901D01*
X023048Y012661D01*
X023048Y012901D01*
X023228Y013029D02*
X023228Y013269D01*
X023408Y013397D02*
X023408Y013578D01*
X023348Y013638D01*
X023108Y013638D01*
X023048Y013578D01*
X023048Y013397D01*
X023408Y013397D01*
X023348Y013766D02*
X023108Y013766D01*
X023048Y013826D01*
X023048Y013946D01*
X023108Y014006D01*
X023108Y014194D02*
X023048Y014194D01*
X023048Y014254D01*
X023108Y014254D01*
X023108Y014194D01*
X023048Y014254D02*
X022927Y014134D01*
X022688Y014194D02*
X022688Y014314D01*
X022628Y014374D01*
X022448Y014374D01*
X022448Y014194D01*
X022508Y014134D01*
X022568Y014194D01*
X022568Y014374D01*
X022448Y014502D02*
X022688Y014502D01*
X022688Y014682D01*
X022628Y014743D01*
X022448Y014743D01*
X022448Y014871D02*
X022688Y014871D01*
X022688Y015051D01*
X022628Y015111D01*
X022448Y015111D01*
X023048Y014988D02*
X023048Y014748D01*
X023048Y014868D02*
X023408Y014868D01*
X023288Y014748D01*
X023228Y015116D02*
X023228Y015356D01*
X024008Y015607D02*
X024008Y015667D01*
X023348Y014006D02*
X023408Y013946D01*
X023408Y013826D01*
X023348Y013766D01*
X022808Y013766D02*
X022448Y013766D01*
X022508Y013638D02*
X022448Y013578D01*
X022448Y013457D01*
X022508Y013397D01*
X022748Y013397D01*
X022808Y013457D01*
X022808Y013578D01*
X022748Y013638D01*
X022628Y013766D02*
X022688Y013826D01*
X022688Y013946D01*
X022628Y014006D01*
X022448Y014006D01*
X022628Y013269D02*
X022628Y013029D01*
X022628Y012901D02*
X022628Y012661D01*
X022808Y012841D01*
X022448Y012841D01*
X022448Y012168D02*
X022448Y012108D01*
X022508Y012108D01*
X022508Y012168D01*
X022448Y012168D01*
X022628Y012168D02*
X022628Y012108D01*
X022688Y012108D01*
X022688Y012168D01*
X022628Y012168D01*
X022808Y011980D02*
X022448Y011980D01*
X022448Y011740D02*
X022808Y011740D01*
X022688Y011860D01*
X022808Y011980D01*
X023048Y011860D02*
X023408Y011860D01*
X023408Y011740D02*
X023408Y011980D01*
X023288Y012108D02*
X023228Y012108D01*
X023228Y012168D01*
X023288Y012168D01*
X023288Y012108D01*
X023108Y012108D02*
X023048Y012108D01*
X023048Y012168D01*
X023108Y012168D01*
X023108Y012108D01*
X023108Y011612D02*
X023048Y011552D01*
X023048Y011432D01*
X023108Y011372D01*
X023348Y011372D01*
X023408Y011432D01*
X023408Y011552D01*
X023348Y011612D01*
X023108Y011612D01*
X023048Y011244D02*
X023408Y011244D01*
X023288Y011123D01*
X023408Y011003D01*
X023048Y011003D01*
X022808Y011003D02*
X022808Y011183D01*
X022748Y011244D01*
X022628Y011244D01*
X022568Y011183D01*
X022568Y011003D01*
X022448Y011003D02*
X022808Y011003D01*
X022808Y011372D02*
X022448Y011372D01*
X022568Y011492D01*
X022448Y011612D01*
X022808Y011612D01*
X023648Y011552D02*
X023648Y011372D01*
X024008Y011372D01*
X024008Y011552D01*
X023948Y011612D01*
X023708Y011612D01*
X023648Y011552D01*
X023708Y011740D02*
X023648Y011800D01*
X023648Y011920D01*
X023708Y011980D01*
X023708Y012108D02*
X023648Y012108D01*
X023648Y012168D01*
X023708Y012168D01*
X023708Y012108D01*
X023828Y012108D02*
X023888Y012108D01*
X023888Y012168D01*
X023828Y012168D01*
X023828Y012108D01*
X023948Y011980D02*
X024008Y011920D01*
X024008Y011800D01*
X023948Y011740D01*
X023708Y011740D01*
X023648Y011244D02*
X023888Y011244D01*
X024008Y011123D01*
X023888Y011003D01*
X023648Y011003D01*
X023828Y011003D02*
X023828Y011244D01*
X020728Y012993D02*
X020428Y012993D01*
X020368Y013053D01*
X020368Y013173D01*
X020428Y013234D01*
X020728Y013234D01*
X020608Y013362D02*
X020728Y013482D01*
X020368Y013482D01*
X020368Y013362D02*
X020368Y013602D01*
X021548Y020553D02*
X021908Y020553D01*
X021908Y020733D01*
X021848Y020794D01*
X021728Y020794D01*
X021668Y020733D01*
X021668Y020553D01*
X021668Y020673D02*
X021548Y020794D01*
X021608Y020922D02*
X021548Y020982D01*
X021548Y021102D01*
X021608Y021162D01*
X021668Y021162D01*
X021728Y021102D01*
X021728Y021042D01*
X021728Y021102D02*
X021788Y021162D01*
X021848Y021162D01*
X021908Y021102D01*
X021908Y020982D01*
X021848Y020922D01*
X020758Y020833D02*
X020758Y020653D01*
X020398Y020653D01*
X020518Y020653D02*
X020518Y020833D01*
X020578Y020894D01*
X020698Y020894D01*
X020758Y020833D01*
X020638Y021022D02*
X020758Y021142D01*
X020398Y021142D01*
X020398Y021022D02*
X020398Y021262D01*
X020398Y020894D02*
X020518Y020773D01*
X018958Y021303D02*
X018958Y021483D01*
X018898Y021544D01*
X018778Y021544D01*
X018718Y021483D01*
X018718Y021303D01*
X018718Y021423D02*
X018598Y021544D01*
X018598Y021672D02*
X018838Y021912D01*
X018898Y021912D01*
X018958Y021852D01*
X018958Y021732D01*
X018898Y021672D01*
X018598Y021672D02*
X018598Y021912D01*
X018598Y021303D02*
X018958Y021303D01*
X019409Y024263D02*
X019649Y024263D01*
X019529Y024263D02*
X019529Y024624D01*
X019649Y024504D01*
X019777Y024564D02*
X019837Y024624D01*
X019957Y024624D01*
X020018Y024564D01*
X020018Y024323D01*
X019957Y024263D01*
X019837Y024263D01*
X019777Y024323D01*
X010858Y016625D02*
X010858Y016385D01*
X010678Y016385D01*
X010738Y016505D01*
X010738Y016565D01*
X010678Y016625D01*
X010558Y016625D01*
X010498Y016565D01*
X010498Y016445D01*
X010558Y016385D01*
X010558Y016257D02*
X010498Y016197D01*
X010498Y016077D01*
X010558Y016017D01*
X010798Y016017D01*
X010858Y016077D01*
X010858Y016197D01*
X010798Y016257D01*
X010158Y016197D02*
X010158Y016077D01*
X010098Y016017D01*
X009858Y016017D01*
X009798Y016077D01*
X009798Y016197D01*
X009858Y016257D01*
X009978Y016385D02*
X009978Y016625D01*
X010158Y016565D02*
X009978Y016385D01*
X010098Y016257D02*
X010158Y016197D01*
X010158Y016565D02*
X009798Y016565D01*
X009917Y017803D02*
X010037Y017923D01*
X009977Y017923D02*
X010158Y017923D01*
X010158Y017803D02*
X010158Y018164D01*
X009977Y018164D01*
X009917Y018104D01*
X009917Y017983D01*
X009977Y017923D01*
X009789Y017983D02*
X009609Y018164D01*
X009609Y017803D01*
X009549Y017983D02*
X009789Y017983D01*
X008271Y016067D02*
X008211Y016067D01*
X007970Y015827D01*
X007970Y016067D01*
X008271Y016067D02*
X008331Y016007D01*
X008331Y015887D01*
X008271Y015827D01*
X008331Y015699D02*
X008030Y015699D01*
X007970Y015639D01*
X007970Y015519D01*
X008030Y015459D01*
X008331Y015459D01*
X007284Y020453D02*
X007164Y020453D01*
X007104Y020513D01*
X007104Y020754D01*
X007164Y020814D01*
X007284Y020814D01*
X007344Y020754D01*
X007344Y020513D01*
X007284Y020453D01*
X007224Y020573D02*
X007104Y020453D01*
X006976Y020453D02*
X006736Y020453D01*
X006856Y020453D02*
X006856Y020814D01*
X006976Y020694D01*
D11*
X008628Y016833D02*
X008728Y016833D01*
X007228Y012369D02*
X006928Y012369D01*
X006853Y012294D01*
X006853Y012144D01*
X006928Y012069D01*
X007078Y012144D02*
X007078Y012369D01*
X007228Y012369D02*
X007303Y012294D01*
X007303Y012144D01*
X007228Y012069D01*
X007153Y012069D01*
X007078Y012144D01*
X007078Y011909D02*
X007003Y011834D01*
X007003Y011608D01*
X006853Y011608D02*
X007303Y011608D01*
X007303Y011834D01*
X007228Y011909D01*
X007078Y011909D01*
X007003Y011758D02*
X006853Y011909D01*
X002525Y011985D02*
X002450Y011910D01*
X002149Y011910D01*
X002074Y011985D01*
X002074Y012135D01*
X002149Y012211D01*
X002450Y012211D01*
X002525Y012135D01*
X002525Y011985D01*
X002525Y011750D02*
X002525Y011450D01*
X002525Y011600D02*
X002074Y011600D01*
X002149Y011290D02*
X002074Y011215D01*
X002074Y011065D01*
X002149Y010989D01*
X002450Y010989D01*
X002525Y011065D01*
X002525Y011215D01*
X002450Y011290D01*
X002149Y011290D01*
X002074Y010829D02*
X002525Y010829D01*
X002374Y010679D01*
X002525Y010529D01*
X002074Y010529D01*
X002074Y012371D02*
X002525Y012371D01*
X002525Y012596D01*
X002450Y012671D01*
X002299Y012671D01*
X002224Y012596D01*
X002224Y012371D01*
X002224Y012521D02*
X002074Y012671D01*
X002074Y013291D02*
X002525Y013291D01*
X002299Y013291D02*
X002299Y013592D01*
X002299Y013752D02*
X002299Y014052D01*
X002374Y014052D02*
X002074Y014052D01*
X002074Y013752D02*
X002374Y013752D01*
X002525Y013902D01*
X002374Y014052D01*
X002525Y014212D02*
X002525Y014512D01*
X002525Y014362D02*
X002074Y014362D01*
X002074Y013592D02*
X002525Y013592D01*
X020546Y023778D02*
X020546Y024228D01*
X020696Y024078D01*
X020846Y024228D01*
X020846Y023778D01*
X021006Y023853D02*
X021006Y024153D01*
X021081Y024228D01*
X021231Y024228D01*
X021306Y024153D01*
X021306Y023853D01*
X021231Y023778D01*
X021081Y023778D01*
X021006Y023853D01*
X021466Y023778D02*
X021617Y023928D01*
X021541Y023928D02*
X021767Y023928D01*
X021767Y023778D02*
X021767Y024228D01*
X021541Y024228D01*
X021466Y024153D01*
X021466Y024003D01*
X021541Y023928D01*
X021927Y024003D02*
X021927Y024153D01*
X022002Y024228D01*
X022227Y024228D01*
X022227Y023778D01*
X022227Y023928D02*
X022002Y023928D01*
X021927Y024003D01*
X022387Y024228D02*
X022687Y024228D01*
X022687Y023778D01*
X022387Y023778D01*
X022537Y024003D02*
X022687Y024003D01*
X022848Y024228D02*
X023148Y024228D01*
X023148Y023778D01*
X022848Y023778D01*
X022998Y024003D02*
X023148Y024003D01*
X023506Y022291D02*
X023656Y022291D01*
X023656Y022141D01*
X023506Y022291D02*
X023431Y022216D01*
X023431Y022066D01*
X023506Y021990D01*
X023806Y021990D01*
X023881Y022066D01*
X023881Y022216D01*
X023806Y022291D01*
X024181Y022291D02*
X024631Y022291D01*
X024481Y022141D01*
X024631Y021990D01*
X024181Y021990D01*
X024256Y021830D02*
X024556Y021830D01*
X024631Y021755D01*
X024631Y021605D01*
X024556Y021530D01*
X024256Y021530D01*
X024181Y021605D01*
X024181Y021755D01*
X024256Y021830D01*
X024181Y021370D02*
X024331Y021220D01*
X024331Y021295D02*
X024331Y021070D01*
X024181Y021070D02*
X024631Y021070D01*
X024631Y021295D01*
X024556Y021370D01*
X024406Y021370D01*
X024331Y021295D01*
X024406Y020910D02*
X024331Y020834D01*
X024331Y020609D01*
X024181Y020609D02*
X024631Y020609D01*
X024631Y020834D01*
X024556Y020910D01*
X024406Y020910D01*
X024181Y020449D02*
X024181Y020149D01*
X024631Y020149D01*
X024631Y020449D01*
X024406Y020299D02*
X024406Y020149D01*
X024181Y019989D02*
X024181Y019688D01*
X024631Y019688D01*
X024631Y019989D01*
X024406Y019839D02*
X024406Y019688D01*
X023806Y021070D02*
X023506Y021070D01*
X023431Y021145D01*
X023431Y021295D01*
X023506Y021370D01*
X023431Y021530D02*
X023881Y021530D01*
X023881Y021830D01*
X023656Y021680D02*
X023656Y021530D01*
X023806Y021370D02*
X023881Y021295D01*
X023881Y021145D01*
X023806Y021070D01*
D12*
X003273Y027603D02*
X003273Y028353D01*
D13*
X004328Y007833D02*
X012328Y007833D01*
X012328Y008833D01*
X012328Y009833D01*
X012328Y010833D01*
X004328Y010833D01*
X004328Y009833D01*
X012328Y009833D01*
X004328Y009833D01*
X004328Y008833D01*
X012328Y008833D01*
X004328Y008833D01*
X004328Y007833D01*
X004128Y011183D02*
X003128Y011183D01*
X003128Y017183D01*
X004128Y017183D01*
X004128Y011183D01*
X006184Y013468D02*
X006184Y014098D01*
X006971Y014098D02*
X006971Y013468D01*
X007584Y013468D02*
X007584Y014098D01*
X008371Y014098D02*
X008371Y013468D01*
X008984Y013468D02*
X008984Y014098D01*
X009771Y014098D02*
X009771Y013468D01*
X010384Y013468D02*
X010384Y014098D01*
X011171Y014098D02*
X011171Y013468D01*
X011734Y013468D02*
X011734Y014098D01*
X012521Y014098D02*
X012521Y013468D01*
X013528Y010833D02*
X014528Y010833D01*
X015528Y010833D01*
X016528Y010833D01*
X017528Y010833D01*
X017528Y007833D01*
X016528Y007833D01*
X016528Y010833D01*
X016528Y007833D01*
X015528Y007833D01*
X015528Y010833D01*
X015528Y007833D01*
X014528Y007833D01*
X014528Y010833D01*
X014528Y007833D01*
X013528Y007833D01*
X013528Y010833D01*
X009639Y015182D02*
X009639Y016285D01*
X008517Y016285D02*
X008517Y015182D01*
X004128Y017883D02*
X003128Y017883D01*
X003128Y021883D01*
X004128Y021883D01*
X004128Y017883D01*
X006778Y021043D02*
X009138Y021043D01*
X009138Y023623D02*
X006778Y023623D01*
X006778Y021043D01*
X004128Y022733D02*
X003128Y022733D01*
X003128Y024733D01*
X004128Y024733D01*
X004128Y022733D01*
X001850Y022855D02*
X001850Y025532D01*
X001720Y025532D01*
X000657Y025532D02*
X000657Y022855D01*
X001720Y022855D02*
X001850Y022855D01*
X003473Y027503D02*
X003473Y029503D01*
X023473Y029503D01*
X023473Y027503D01*
X003473Y027503D01*
X017584Y017648D02*
X017584Y017018D01*
X018371Y017018D02*
X018371Y017648D01*
X023013Y020140D02*
X023643Y020140D01*
X023643Y020927D02*
X023013Y020927D01*
X025228Y018983D02*
X025228Y024983D01*
X026228Y024983D01*
X026228Y018983D01*
X025228Y018983D01*
X025228Y017233D02*
X026228Y017233D01*
X026228Y011233D01*
X025228Y011233D01*
X025228Y017233D01*
X024306Y010072D02*
X021550Y010072D01*
X018794Y010072D01*
X018794Y007851D01*
X021550Y007851D01*
X021550Y010072D01*
X021550Y007851D01*
X021550Y007316D01*
X018794Y007316D01*
X018794Y007851D01*
X021550Y007851D02*
X021550Y007316D01*
X024306Y007316D01*
X024306Y007851D01*
X021550Y007851D01*
X024306Y007851D02*
X024306Y010072D01*
D14*
X020588Y013923D02*
X020478Y013923D01*
X020588Y013923D02*
X020588Y014743D01*
X020478Y014743D01*
X019278Y014743D02*
X019168Y014743D01*
X019168Y013923D01*
X019278Y013923D01*
X017385Y013685D02*
X017385Y015482D01*
X014108Y015183D02*
X014110Y015204D01*
X014116Y015225D01*
X014125Y015245D01*
X014138Y015262D01*
X014153Y015277D01*
X014171Y015289D01*
X014191Y015297D01*
X014212Y015302D01*
X014233Y015303D01*
X014255Y015300D01*
X014275Y015293D01*
X014294Y015283D01*
X014311Y015270D01*
X014325Y015254D01*
X014336Y015235D01*
X014344Y015215D01*
X014348Y015194D01*
X014348Y015172D01*
X014344Y015151D01*
X014336Y015131D01*
X014325Y015112D01*
X014311Y015096D01*
X014294Y015083D01*
X014275Y015073D01*
X014255Y015066D01*
X014233Y015063D01*
X014212Y015064D01*
X014191Y015069D01*
X014171Y015077D01*
X014153Y015089D01*
X014138Y015104D01*
X014125Y015121D01*
X014116Y015141D01*
X014110Y015162D01*
X014108Y015183D01*
X013870Y015482D02*
X013870Y013685D01*
X020523Y021673D02*
X022533Y021673D01*
X022533Y023533D02*
X020523Y023533D01*
D15*
X023423Y023353D03*
D16*
X022228Y020833D03*
X021078Y020833D03*
X019278Y021633D03*
X018878Y017533D03*
X014878Y017183D03*
X013828Y017183D03*
X013828Y018483D03*
X014878Y018533D03*
X015028Y011583D03*
X016028Y011583D03*
X017028Y011583D03*
X014028Y011583D03*
X006528Y012033D03*
D17*
X019688Y023931D02*
X019688Y023955D01*
X021316Y014283D02*
X021340Y014283D01*
X021916Y014283D02*
X021940Y014283D01*
D18*
X002527Y014954D02*
X002527Y014944D01*
X002525Y014931D01*
X002524Y014919D01*
X002521Y014906D01*
X002519Y014891D01*
X002516Y014877D01*
X002513Y014862D01*
X002510Y014847D01*
X002507Y014832D01*
X002503Y014817D01*
X002500Y014803D01*
X002496Y014789D01*
X002492Y014776D01*
X002489Y014764D01*
X002485Y014753D01*
X002481Y014743D01*
X002478Y014736D01*
X002475Y014729D01*
X002472Y014724D01*
X002469Y014723D01*
X002467Y014722D01*
X002464Y014721D01*
X002462Y014721D01*
X002459Y014720D01*
X002456Y014720D01*
X002454Y014720D01*
X002451Y014720D01*
X002448Y014720D01*
X002446Y014720D01*
X002443Y014720D01*
X002440Y014720D01*
X002438Y014721D01*
X002435Y014721D01*
X002433Y014721D01*
X002431Y014722D01*
X002428Y014722D01*
X002426Y014722D01*
X002424Y014722D01*
X002422Y014722D01*
X002420Y014722D01*
X002419Y014722D01*
X002417Y014722D01*
X002415Y014721D01*
X002414Y014720D01*
X002413Y014719D01*
X002412Y014718D01*
X002410Y014715D01*
X002408Y014713D01*
X002407Y014710D01*
X002405Y014706D01*
X002403Y014702D01*
X002401Y014698D01*
X002399Y014694D01*
X002397Y014689D01*
X002395Y014684D01*
X002391Y014674D01*
X002389Y014669D01*
X002386Y014665D01*
X002384Y014660D01*
X002382Y014655D01*
X002379Y014651D01*
X002377Y014646D01*
X002374Y014642D01*
X002372Y014639D01*
X002370Y014635D01*
X002367Y014632D01*
X002365Y014630D01*
X002363Y014628D01*
X002359Y014626D01*
X002353Y014625D01*
X002348Y014624D01*
X002341Y014623D01*
X002334Y014623D01*
X002326Y014622D01*
X002318Y014623D01*
X002309Y014623D01*
X002300Y014623D01*
X002291Y014624D01*
X002282Y014624D01*
X002273Y014625D01*
X002264Y014626D01*
X002255Y014627D01*
X002247Y014628D01*
X002239Y014629D01*
X002232Y014630D01*
X002224Y014631D01*
X002218Y014632D01*
X002213Y014632D01*
X002208Y014633D01*
X002205Y014634D01*
X002203Y014634D01*
X002202Y014634D01*
X002200Y014634D01*
X002198Y014632D01*
X002196Y014630D01*
X002195Y014628D01*
X002194Y014626D01*
X002193Y014624D01*
X002192Y014621D01*
X002190Y014619D01*
X002189Y014616D01*
X002187Y014613D01*
X002185Y014611D01*
X002182Y014608D01*
X002179Y014605D01*
X002176Y014603D01*
X002173Y014601D01*
X002169Y014599D01*
X002164Y014597D01*
X002159Y014595D01*
X002153Y014595D01*
X002147Y014594D01*
X002140Y014594D01*
X002132Y014594D01*
X002124Y014595D01*
X002117Y014596D01*
X002111Y014598D01*
X002105Y014601D01*
X002101Y014603D01*
X002097Y014606D01*
X002093Y014609D01*
X002090Y014613D01*
X002088Y014617D01*
X002085Y014620D01*
X002084Y014624D01*
X002082Y014628D01*
X002081Y014632D01*
X002080Y014636D01*
X002079Y014640D01*
X002079Y014644D01*
X002078Y014648D01*
X002076Y014654D01*
X002076Y014657D01*
X002074Y014659D01*
X002073Y014662D01*
X002072Y014664D01*
X002069Y014665D01*
X002067Y014666D01*
X002064Y014667D01*
X002059Y014667D01*
X002054Y014668D01*
X002049Y014669D01*
X002042Y014670D01*
X002036Y014671D01*
X002029Y014672D01*
X002021Y014673D01*
X002014Y014674D01*
X002006Y014675D01*
X001998Y014676D01*
X001990Y014678D01*
X001982Y014679D01*
X001974Y014682D01*
X001967Y014684D01*
X001959Y014686D01*
X001953Y014689D01*
X001946Y014692D01*
X001939Y014695D01*
X001934Y014699D01*
X001929Y014702D01*
X001925Y014707D01*
X001921Y014712D01*
X001920Y014714D01*
X001918Y014719D01*
X001918Y014724D01*
X001917Y014729D01*
X001917Y014735D01*
X001917Y014750D01*
X001918Y014758D01*
X001919Y014767D01*
X001920Y014776D01*
X001921Y014786D01*
X001923Y014797D01*
X001924Y014808D01*
X001926Y014819D01*
X001928Y014831D01*
X001930Y014843D01*
X001932Y014856D01*
X001934Y014869D01*
X001936Y014882D01*
X001938Y014896D01*
X001941Y014910D01*
X001943Y014925D01*
X001945Y014939D01*
X001947Y014954D01*
X001949Y014970D01*
X001952Y014986D01*
X001954Y015001D01*
X001956Y015016D01*
X001959Y015031D01*
X001961Y015046D01*
X001964Y015060D01*
X001966Y015074D01*
X001969Y015087D01*
X001971Y015100D01*
X001974Y015113D01*
X001977Y015124D01*
X001979Y015136D01*
X001982Y015147D01*
X001984Y015157D01*
X001987Y015166D01*
X001989Y015175D01*
X001992Y015183D01*
X001994Y015191D01*
X001996Y015197D01*
X001999Y015202D01*
X002001Y015208D01*
X002003Y015212D01*
X002005Y015214D01*
X002007Y015217D01*
X002010Y015219D01*
X002012Y015220D01*
X002015Y015222D01*
X002018Y015223D01*
X002021Y015225D01*
X002024Y015226D01*
X002027Y015227D01*
X002031Y015228D01*
X002034Y015228D01*
X002038Y015229D01*
X002042Y015229D01*
X002046Y015229D01*
X002050Y015230D01*
X002054Y015230D01*
X002058Y015230D01*
X002063Y015229D01*
X002072Y015229D01*
X002076Y015228D01*
X002081Y015228D01*
X002086Y015227D01*
X002090Y015227D01*
X002095Y015226D01*
X002101Y015225D01*
X002106Y015224D01*
X002111Y015223D01*
X002117Y015222D01*
X002122Y015221D01*
X002127Y015219D01*
X002132Y015218D01*
X002138Y015217D01*
X002142Y015215D01*
X002147Y015214D01*
X002152Y015212D01*
X002156Y015211D01*
X002160Y015210D01*
X002164Y015208D01*
X002172Y015206D01*
X002175Y015205D01*
X002178Y015204D01*
X002181Y015203D01*
X002183Y015203D01*
X002185Y015202D01*
X002187Y015202D01*
X002189Y015202D01*
X002190Y015202D01*
X002191Y015202D01*
X002193Y015203D01*
X002194Y015205D01*
X002195Y015206D01*
X002197Y015208D01*
X002198Y015209D01*
X002200Y015211D01*
X002201Y015213D01*
X002203Y015216D01*
X002205Y015218D01*
X002207Y015220D01*
X002209Y015222D01*
X002212Y015225D01*
X002214Y015227D01*
X002218Y015229D01*
X002221Y015231D01*
X002225Y015232D01*
X002230Y015233D01*
X002235Y015235D01*
X002240Y015236D01*
X002246Y015236D01*
X002252Y015236D01*
X002259Y015236D01*
X002268Y015235D01*
X002272Y015234D01*
X002275Y015234D01*
X002279Y015233D01*
X002282Y015233D01*
X002286Y015232D01*
X002289Y015231D01*
X002292Y015230D01*
X002294Y015230D01*
X002297Y015229D01*
X002299Y015228D01*
X002302Y015227D01*
X002304Y015226D01*
X002306Y015225D01*
X002308Y015224D01*
X002311Y015221D01*
X002313Y015220D01*
X002316Y015218D01*
X002317Y015216D01*
X002318Y015215D01*
X002319Y015214D01*
X002320Y015212D01*
X002321Y015211D01*
X002322Y015209D01*
X002323Y015207D01*
X002324Y015205D01*
X002324Y015203D01*
X002325Y015201D01*
X002325Y015199D01*
X002326Y015198D01*
X002326Y015195D01*
X002326Y015193D01*
X002326Y015191D01*
X002326Y015190D01*
X002326Y015188D01*
X002326Y015186D01*
X002326Y015184D01*
X002326Y015182D01*
X002326Y015180D01*
X002326Y015179D01*
X002327Y015177D01*
X002327Y015176D01*
X002327Y015175D01*
X002327Y015174D01*
X002328Y015172D01*
X002329Y015171D01*
X002330Y015170D01*
X002333Y015169D01*
X002338Y015168D01*
X002342Y015167D01*
X002348Y015165D01*
X002354Y015164D01*
X002361Y015163D01*
X002368Y015162D01*
X002376Y015160D01*
X002384Y015159D01*
X002392Y015158D01*
X002401Y015156D01*
X002409Y015155D01*
X002418Y015153D01*
X002426Y015151D01*
X002434Y015150D01*
X002441Y015148D01*
X002448Y015146D01*
X002455Y015144D01*
X002461Y015142D01*
X002466Y015139D01*
X002470Y015137D01*
X002474Y015134D01*
X002476Y015131D01*
X002477Y015128D01*
X002478Y015124D01*
X002479Y015120D01*
X002480Y015115D01*
X002480Y015109D01*
X002480Y015103D01*
X002480Y015097D01*
X002479Y015091D01*
X002479Y015084D01*
X002478Y015077D01*
X002477Y015070D01*
X002476Y015063D01*
X002476Y015057D01*
X002475Y015050D01*
X002474Y015044D01*
X002473Y015037D01*
X002472Y015032D01*
X002471Y015022D01*
X002470Y015017D01*
X002470Y015014D01*
X002470Y015011D01*
X002470Y015009D01*
X002471Y015008D01*
X002472Y015007D01*
X002473Y015006D01*
X002474Y015005D01*
X002476Y015005D01*
X002478Y015004D01*
X002480Y015003D01*
X002482Y015003D01*
X002484Y015002D01*
X002487Y015001D01*
X002489Y015000D01*
X002492Y014999D01*
X002495Y014998D01*
X002498Y014997D01*
X002501Y014996D01*
X002503Y014995D01*
X002506Y014994D01*
X002509Y014992D01*
X002512Y014991D01*
X002514Y014989D01*
X002517Y014988D01*
X002519Y014985D01*
X002521Y014983D01*
X002523Y014981D01*
X002525Y014979D01*
X002527Y014976D01*
X002528Y014970D01*
X002528Y014962D01*
X002527Y014954D01*
X002514Y014956D02*
X002370Y014956D01*
X002358Y014956D02*
X002298Y014956D01*
X002299Y014963D02*
X002304Y014964D01*
X002308Y014966D01*
X002313Y014967D01*
X002317Y014969D01*
X002321Y014972D01*
X002325Y014974D01*
X002329Y014977D01*
X002333Y014980D01*
X002336Y014983D01*
X002339Y014987D01*
X002342Y014990D01*
X002345Y014994D01*
X002347Y014998D01*
X002350Y015002D01*
X002352Y015007D01*
X002353Y015011D01*
X002355Y015016D01*
X002356Y015020D01*
X002357Y015025D01*
X002357Y015030D01*
X002357Y015040D01*
X002357Y015045D01*
X002356Y015050D01*
X002355Y015055D01*
X002353Y015059D01*
X002352Y015064D01*
X002350Y015068D01*
X002347Y015072D01*
X002345Y015076D01*
X002342Y015080D01*
X002339Y015084D01*
X002336Y015087D01*
X002333Y015090D01*
X002329Y015093D01*
X002325Y015096D01*
X002321Y015099D01*
X002317Y015101D01*
X002308Y015105D01*
X002304Y015106D01*
X002299Y015107D01*
X002294Y015108D01*
X002289Y015109D01*
X002279Y015109D01*
X002274Y015108D01*
X002270Y015107D01*
X002265Y015106D01*
X002260Y015105D01*
X002251Y015101D01*
X002247Y015099D01*
X002243Y015096D01*
X002240Y015093D01*
X002236Y015090D01*
X002233Y015087D01*
X002229Y015084D01*
X002226Y015080D01*
X002224Y015076D01*
X002221Y015072D01*
X002219Y015068D01*
X002217Y015064D01*
X002215Y015059D01*
X002214Y015055D01*
X002213Y015050D01*
X002212Y015045D01*
X002211Y015040D01*
X002211Y015030D01*
X002212Y015025D01*
X002213Y015020D01*
X002214Y015016D01*
X002215Y015011D01*
X002217Y015007D01*
X002219Y015002D01*
X002221Y014998D01*
X002224Y014994D01*
X002226Y014990D01*
X002229Y014987D01*
X002233Y014983D01*
X002236Y014980D01*
X002240Y014977D01*
X002243Y014974D01*
X002247Y014972D01*
X002251Y014969D01*
X002256Y014967D01*
X002260Y014966D01*
X002265Y014964D01*
X002270Y014963D01*
X002274Y014962D01*
X002279Y014962D01*
X002289Y014962D01*
X002294Y014962D01*
X002299Y014963D01*
X002288Y014953D02*
X002228Y014973D01*
X002198Y015023D01*
X002118Y015043D01*
X002108Y015003D01*
X002088Y014913D01*
X002018Y014933D01*
X002018Y014913D01*
X002088Y014893D01*
X002068Y014823D01*
X002008Y014833D01*
X002008Y014843D01*
X002038Y014993D01*
X002037Y014993D02*
X001963Y014993D01*
X001965Y015011D02*
X002045Y015011D01*
X002038Y015013D02*
X002058Y015103D01*
X002138Y015083D01*
X002128Y015053D01*
X002198Y015033D01*
X002218Y015093D01*
X002288Y015123D01*
X002378Y015073D01*
X002418Y015153D01*
X002308Y015163D01*
X002308Y015213D01*
X002248Y015233D01*
X002198Y015183D01*
X002078Y015223D01*
X002028Y015223D01*
X001978Y015103D01*
X001928Y014723D01*
X001998Y014683D01*
X002078Y014673D01*
X002108Y014613D01*
X002148Y014603D01*
X002188Y014633D01*
X002198Y014643D01*
X002348Y014633D01*
X002398Y014713D01*
X002418Y014743D01*
X002458Y014733D01*
X002488Y014793D01*
X002498Y014863D01*
X002518Y014973D01*
X002458Y015013D01*
X002468Y015123D01*
X002428Y015143D01*
X002368Y015103D01*
X002358Y014983D01*
X002358Y014823D01*
X002298Y014713D01*
X002238Y014703D01*
X002148Y014713D01*
X002108Y014793D01*
X002158Y014903D01*
X002178Y014913D01*
X002288Y014913D01*
X002348Y014813D01*
X002378Y014913D01*
X002368Y014973D01*
X002288Y014953D01*
X002280Y014956D02*
X002097Y014956D01*
X002091Y014959D02*
X002092Y014967D01*
X002094Y014975D01*
X002096Y014983D01*
X002088Y014984D01*
X002074Y014986D01*
X002066Y014987D01*
X002059Y014988D01*
X002044Y014990D01*
X002037Y014991D01*
X002036Y014983D01*
X002033Y014968D01*
X002032Y014960D01*
X002031Y014952D01*
X002029Y014937D01*
X002027Y014929D01*
X002034Y014928D01*
X002041Y014927D01*
X002048Y014925D01*
X002055Y014924D01*
X002062Y014923D01*
X002069Y014922D01*
X002076Y014920D01*
X002083Y014919D01*
X002084Y014927D01*
X002086Y014935D01*
X002088Y014943D01*
X002089Y014951D01*
X002091Y014959D01*
X002101Y014974D02*
X002227Y014974D01*
X002216Y014993D02*
X002117Y014993D01*
X002118Y014993D02*
X002038Y015013D01*
X002046Y015021D02*
X002069Y015017D01*
X002076Y015016D01*
X002084Y015015D01*
X002107Y015011D01*
X002109Y015019D01*
X002111Y015027D01*
X002112Y015035D01*
X002114Y015043D01*
X002115Y015051D01*
X002119Y015067D01*
X002120Y015075D01*
X002112Y015076D01*
X002097Y015078D01*
X002089Y015079D01*
X002081Y015081D01*
X002073Y015082D01*
X002065Y015083D01*
X002057Y015084D01*
X002056Y015076D01*
X002054Y015068D01*
X002053Y015060D01*
X002051Y015052D01*
X002050Y015044D01*
X002048Y015037D01*
X002047Y015029D01*
X002046Y015021D01*
X002041Y015030D02*
X001968Y015030D01*
X001970Y015048D02*
X002045Y015048D01*
X002049Y015067D02*
X001973Y015067D01*
X001975Y015085D02*
X002054Y015085D01*
X002129Y015085D02*
X002215Y015085D01*
X002209Y015067D02*
X002132Y015067D01*
X002145Y015048D02*
X002203Y015048D01*
X002171Y015030D02*
X002114Y015030D01*
X002110Y015011D02*
X002205Y015011D01*
X002118Y014993D02*
X002108Y014983D01*
X002038Y014993D01*
X002040Y014993D02*
X002105Y014993D01*
X002093Y014937D02*
X002358Y014937D01*
X002374Y014937D02*
X002511Y014937D01*
X002508Y014919D02*
X002377Y014919D01*
X002374Y014900D02*
X002504Y014900D01*
X002501Y014882D02*
X002368Y014882D01*
X002358Y014882D02*
X002306Y014882D01*
X002303Y014877D02*
X002299Y014881D01*
X002294Y014886D01*
X002289Y014890D01*
X002284Y014894D01*
X002278Y014897D01*
X002273Y014900D01*
X002267Y014903D01*
X002260Y014906D01*
X002254Y014907D01*
X002248Y014909D01*
X002241Y014910D01*
X002234Y014911D01*
X002220Y014911D01*
X002213Y014910D01*
X002207Y014909D01*
X002200Y014907D01*
X002194Y014906D01*
X002188Y014903D01*
X002182Y014900D01*
X002176Y014897D01*
X002171Y014894D01*
X002165Y014890D01*
X002160Y014886D01*
X002156Y014881D01*
X002151Y014877D01*
X002147Y014871D01*
X002143Y014866D01*
X002140Y014861D01*
X002137Y014855D01*
X002134Y014849D01*
X002131Y014843D01*
X002129Y014836D01*
X002128Y014830D01*
X002127Y014823D01*
X002126Y014816D01*
X002126Y014802D01*
X002127Y014795D01*
X002128Y014789D01*
X002129Y014782D01*
X002131Y014776D01*
X002134Y014770D01*
X002137Y014764D01*
X002140Y014758D01*
X002143Y014752D01*
X002147Y014747D01*
X002151Y014742D01*
X002156Y014737D01*
X002160Y014733D01*
X002165Y014729D01*
X002171Y014725D01*
X002176Y014721D01*
X002182Y014718D01*
X002188Y014715D01*
X002194Y014713D01*
X002200Y014711D01*
X002213Y014708D01*
X002220Y014708D01*
X002234Y014708D01*
X002241Y014708D01*
X002248Y014710D01*
X002254Y014711D01*
X002260Y014713D01*
X002267Y014715D01*
X002273Y014718D01*
X002278Y014721D01*
X002284Y014725D01*
X002289Y014729D01*
X002294Y014733D01*
X002299Y014737D01*
X002303Y014742D01*
X002307Y014747D01*
X002311Y014752D01*
X002315Y014758D01*
X002318Y014764D01*
X002320Y014770D01*
X002323Y014776D01*
X002325Y014782D01*
X002326Y014789D01*
X002328Y014795D01*
X002328Y014802D01*
X002328Y014816D01*
X002328Y014823D01*
X002326Y014830D01*
X002325Y014836D01*
X002323Y014843D01*
X002320Y014849D01*
X002318Y014855D01*
X002315Y014861D01*
X002311Y014866D01*
X002307Y014871D01*
X002303Y014877D01*
X002317Y014863D02*
X002358Y014863D01*
X002363Y014863D02*
X002498Y014863D01*
X002495Y014845D02*
X002358Y014845D01*
X002357Y014845D02*
X002329Y014845D01*
X002340Y014826D02*
X002351Y014826D01*
X002358Y014826D02*
X002492Y014826D01*
X002490Y014808D02*
X002349Y014808D01*
X002339Y014789D02*
X002486Y014789D01*
X002476Y014771D02*
X002329Y014771D01*
X002319Y014752D02*
X002467Y014752D01*
X002458Y014734D02*
X002455Y014734D01*
X002411Y014734D02*
X002309Y014734D01*
X002299Y014715D02*
X002399Y014715D01*
X002387Y014697D02*
X001974Y014697D01*
X001941Y014715D02*
X002147Y014715D01*
X002137Y014734D02*
X001929Y014734D01*
X001931Y014752D02*
X002128Y014752D01*
X002119Y014771D02*
X001934Y014771D01*
X001936Y014789D02*
X002110Y014789D01*
X002114Y014808D02*
X001939Y014808D01*
X001941Y014826D02*
X002049Y014826D01*
X002052Y014833D02*
X002059Y014832D01*
X002066Y014831D01*
X002067Y014839D01*
X002069Y014846D01*
X002070Y014854D01*
X002073Y014870D01*
X002075Y014878D01*
X002076Y014885D01*
X002077Y014893D01*
X002070Y014894D01*
X002063Y014896D01*
X002056Y014897D01*
X002049Y014898D01*
X002042Y014899D01*
X002035Y014901D01*
X002028Y014902D01*
X002021Y014903D01*
X002019Y014895D01*
X002018Y014887D01*
X002017Y014880D01*
X002015Y014872D01*
X002014Y014864D01*
X002011Y014848D01*
X002010Y014841D01*
X002017Y014839D01*
X002024Y014838D01*
X002031Y014837D01*
X002038Y014836D01*
X002045Y014834D01*
X002052Y014833D01*
X002068Y014826D02*
X002123Y014826D01*
X002131Y014845D02*
X002074Y014845D01*
X002079Y014863D02*
X002139Y014863D01*
X002148Y014882D02*
X002084Y014882D01*
X002063Y014900D02*
X002156Y014900D01*
X002198Y014846D02*
X002201Y014848D01*
X002203Y014849D01*
X002206Y014851D01*
X002208Y014852D01*
X002211Y014853D01*
X002214Y014854D01*
X002217Y014855D01*
X002220Y014855D01*
X002223Y014856D01*
X002229Y014856D01*
X002232Y014855D01*
X002235Y014855D01*
X002238Y014854D01*
X002241Y014853D01*
X002244Y014852D01*
X002247Y014851D01*
X002249Y014849D01*
X002252Y014848D01*
X002254Y014846D01*
X002256Y014844D01*
X002258Y014842D01*
X002260Y014840D01*
X002262Y014838D01*
X002264Y014835D01*
X002266Y014833D01*
X002267Y014830D01*
X002268Y014828D01*
X002269Y014825D01*
X002270Y014822D01*
X002271Y014819D01*
X002271Y014816D01*
X002272Y014813D01*
X002272Y014807D01*
X002271Y014803D01*
X002271Y014800D01*
X002270Y014797D01*
X002269Y014795D01*
X002268Y014792D01*
X002267Y014789D01*
X002266Y014786D01*
X002264Y014784D01*
X002262Y014782D01*
X002260Y014779D01*
X002258Y014777D01*
X002256Y014775D01*
X002254Y014773D01*
X002252Y014772D01*
X002249Y014770D01*
X002247Y014769D01*
X002244Y014767D01*
X002241Y014766D01*
X002238Y014765D01*
X002235Y014765D01*
X002232Y014764D01*
X002229Y014764D01*
X002223Y014764D01*
X002220Y014764D01*
X002217Y014765D01*
X002214Y014765D01*
X002211Y014766D01*
X002208Y014767D01*
X002206Y014769D01*
X002203Y014770D01*
X002201Y014772D01*
X002198Y014773D01*
X002196Y014775D01*
X002192Y014779D01*
X002190Y014782D01*
X002188Y014784D01*
X002187Y014786D01*
X002185Y014789D01*
X002184Y014792D01*
X002183Y014795D01*
X002182Y014797D01*
X002181Y014800D01*
X002181Y014803D01*
X002180Y014807D01*
X002180Y014813D01*
X002181Y014816D01*
X002181Y014819D01*
X002182Y014822D01*
X002183Y014825D01*
X002184Y014828D01*
X002185Y014830D01*
X002187Y014833D01*
X002188Y014835D01*
X002190Y014838D01*
X002192Y014840D01*
X002194Y014842D01*
X002196Y014844D01*
X002198Y014846D01*
X002295Y014900D02*
X002358Y014900D01*
X002358Y014919D02*
X002089Y014919D01*
X002068Y014919D02*
X002023Y014919D01*
X002018Y014919D02*
X001953Y014919D01*
X001956Y014937D02*
X002026Y014937D01*
X002030Y014956D02*
X001958Y014956D01*
X001961Y014974D02*
X002034Y014974D01*
X002019Y014900D02*
X001951Y014900D01*
X001948Y014882D02*
X002015Y014882D01*
X002012Y014863D02*
X001946Y014863D01*
X001944Y014845D02*
X002008Y014845D01*
X001912Y014858D02*
X001911Y014850D01*
X001910Y014843D01*
X001909Y014836D01*
X001908Y014829D01*
X001907Y014823D01*
X001905Y014817D01*
X001904Y014811D01*
X001903Y014806D01*
X001901Y014801D01*
X001900Y014797D01*
X001898Y014793D01*
X001897Y014789D01*
X001895Y014787D01*
X001893Y014784D01*
X001892Y014782D01*
X001890Y014781D01*
X001887Y014780D01*
X001884Y014779D01*
X001881Y014778D01*
X001878Y014776D01*
X001875Y014775D01*
X001871Y014775D01*
X001868Y014774D01*
X001864Y014773D01*
X001860Y014772D01*
X001856Y014772D01*
X001852Y014771D01*
X001843Y014770D01*
X001839Y014770D01*
X001834Y014769D01*
X001829Y014769D01*
X001824Y014769D01*
X001819Y014769D01*
X001814Y014769D01*
X001809Y014769D01*
X001804Y014769D01*
X001799Y014769D01*
X001793Y014769D01*
X001788Y014770D01*
X001782Y014770D01*
X001776Y014770D01*
X001771Y014771D01*
X001765Y014772D01*
X001759Y014772D01*
X001754Y014773D01*
X001748Y014774D01*
X001743Y014775D01*
X001737Y014776D01*
X001732Y014777D01*
X001727Y014778D01*
X001723Y014780D01*
X001718Y014781D01*
X001713Y014783D01*
X001709Y014784D01*
X001705Y014786D01*
X001702Y014788D01*
X001699Y014790D01*
X001695Y014791D01*
X001693Y014793D01*
X001688Y014798D01*
X001687Y014800D01*
X001686Y014802D01*
X001685Y014804D01*
X001685Y014806D01*
X001684Y014809D01*
X001684Y014812D01*
X001684Y014816D01*
X001683Y014821D01*
X001683Y014825D01*
X001683Y014831D01*
X001683Y014837D01*
X001683Y014842D01*
X001684Y014849D01*
X001684Y014856D01*
X001684Y014863D01*
X001685Y014871D01*
X001685Y014879D01*
X001686Y014887D01*
X001686Y014895D01*
X001687Y014904D01*
X001688Y014913D01*
X001688Y014922D01*
X001689Y014931D01*
X001690Y014941D01*
X001691Y014950D01*
X001692Y014960D01*
X001694Y014970D01*
X001694Y014979D01*
X001695Y014989D01*
X001696Y014999D01*
X001697Y015009D01*
X001698Y015019D01*
X001699Y015029D01*
X001700Y015039D01*
X001701Y015049D01*
X001701Y015058D01*
X001702Y015068D01*
X001704Y015086D01*
X001705Y015094D01*
X001706Y015102D01*
X001708Y015110D01*
X001709Y015117D01*
X001710Y015124D01*
X001712Y015131D01*
X001713Y015136D01*
X001715Y015141D01*
X001717Y015146D01*
X001719Y015150D01*
X001721Y015152D01*
X001723Y015155D01*
X001726Y015157D01*
X001729Y015159D01*
X001732Y015161D01*
X001736Y015162D01*
X001740Y015163D01*
X001745Y015164D01*
X001749Y015165D01*
X001754Y015166D01*
X001759Y015166D01*
X001764Y015166D01*
X001770Y015166D01*
X001775Y015166D01*
X001781Y015166D01*
X001786Y015166D01*
X001792Y015166D01*
X001798Y015165D01*
X001804Y015165D01*
X001810Y015164D01*
X001815Y015163D01*
X001821Y015162D01*
X001827Y015162D01*
X001832Y015161D01*
X001837Y015160D01*
X001843Y015159D01*
X001849Y015158D01*
X001855Y015157D01*
X001860Y015156D01*
X001866Y015154D01*
X001871Y015153D01*
X001876Y015152D01*
X001881Y015151D01*
X001886Y015150D01*
X001891Y015148D01*
X001895Y015147D01*
X001900Y015145D01*
X001904Y015144D01*
X001908Y015142D01*
X001911Y015141D01*
X001915Y015139D01*
X001918Y015137D01*
X001921Y015136D01*
X001924Y015134D01*
X001926Y015132D01*
X001928Y015130D01*
X001931Y015128D01*
X001932Y015126D01*
X001934Y015124D01*
X001935Y015121D01*
X001936Y015117D01*
X001937Y015112D01*
X001938Y015107D01*
X001938Y015102D01*
X001938Y015095D01*
X001938Y015089D01*
X001938Y015081D01*
X001938Y015074D01*
X001937Y015066D01*
X001936Y015057D01*
X001935Y015048D01*
X001934Y015039D01*
X001933Y015030D01*
X001932Y015020D01*
X001931Y015010D01*
X001930Y015000D01*
X001928Y014990D01*
X001927Y014980D01*
X001926Y014969D01*
X001924Y014959D01*
X001923Y014949D01*
X001922Y014938D01*
X001921Y014928D01*
X001920Y014918D01*
X001919Y014909D01*
X001918Y014900D01*
X001917Y014891D01*
X001916Y014883D01*
X001915Y014874D01*
X001914Y014866D01*
X001912Y014858D01*
X001902Y014863D02*
X001695Y014863D01*
X001692Y014845D02*
X001898Y014845D01*
X001894Y014826D02*
X001690Y014826D01*
X001688Y014808D02*
X001890Y014808D01*
X001888Y014793D02*
X001918Y014943D01*
X001868Y014953D01*
X001818Y014893D01*
X001738Y014923D01*
X001758Y015023D01*
X001838Y015043D01*
X001878Y014963D01*
X001918Y014953D01*
X001928Y015123D01*
X001858Y015153D01*
X001768Y015163D01*
X001728Y015143D01*
X001688Y014803D01*
X001798Y014773D01*
X001888Y014793D01*
X001870Y014789D02*
X001739Y014789D01*
X001762Y014723D02*
X001763Y014723D01*
X001767Y014725D01*
X001769Y014725D01*
X001771Y014726D01*
X001773Y014726D01*
X001775Y014727D01*
X001777Y014727D01*
X001780Y014728D01*
X001782Y014728D01*
X001784Y014728D01*
X001787Y014728D01*
X001789Y014728D01*
X001792Y014729D01*
X001795Y014729D01*
X001797Y014729D01*
X001800Y014729D01*
X001803Y014729D01*
X001806Y014729D01*
X001809Y014729D01*
X001812Y014729D01*
X001815Y014729D01*
X001818Y014729D01*
X001821Y014729D01*
X001824Y014729D01*
X001827Y014728D01*
X001830Y014728D01*
X001833Y014728D01*
X001839Y014728D01*
X001842Y014727D01*
X001844Y014727D01*
X001847Y014727D01*
X001850Y014727D01*
X001852Y014726D01*
X001854Y014726D01*
X001857Y014725D01*
X001858Y014725D01*
X001861Y014724D01*
X001862Y014723D01*
X001864Y014723D01*
X001865Y014722D01*
X001867Y014721D01*
X001868Y014720D01*
X001869Y014719D01*
X001870Y014718D01*
X001870Y014717D01*
X001871Y014716D01*
X001871Y014713D01*
X001870Y014708D01*
X001869Y014703D01*
X001868Y014697D01*
X001867Y014690D01*
X001866Y014683D01*
X001864Y014675D01*
X001862Y014667D01*
X001861Y014658D01*
X001859Y014649D01*
X001857Y014641D01*
X001855Y014632D01*
X001853Y014623D01*
X001851Y014615D01*
X001849Y014607D01*
X001847Y014599D01*
X001845Y014586D01*
X001844Y014580D01*
X001843Y014576D01*
X001843Y014572D01*
X001843Y014569D01*
X001843Y014568D01*
X001844Y014567D01*
X001845Y014567D01*
X001846Y014566D01*
X001848Y014565D01*
X001849Y014565D01*
X001851Y014564D01*
X001853Y014564D01*
X001854Y014563D01*
X001856Y014563D01*
X001858Y014562D01*
X001860Y014562D01*
X001862Y014561D01*
X001864Y014561D01*
X001866Y014560D01*
X001868Y014560D01*
X001870Y014559D01*
X001871Y014559D01*
X001875Y014558D01*
X001876Y014558D01*
X001877Y014557D01*
X001879Y014557D01*
X001880Y014556D01*
X001880Y014555D01*
X001881Y014555D01*
X001882Y014554D01*
X001882Y014553D01*
X001883Y014552D01*
X001883Y014551D01*
X001883Y014550D01*
X001884Y014548D01*
X001884Y014547D01*
X001884Y014546D01*
X001884Y014545D01*
X001884Y014543D01*
X001884Y014542D01*
X001884Y014540D01*
X001884Y014539D01*
X001884Y014538D01*
X001884Y014536D01*
X001884Y014535D01*
X001883Y014534D01*
X001883Y014532D01*
X001883Y014531D01*
X001883Y014530D01*
X001883Y014529D01*
X001883Y014528D01*
X001883Y014528D01*
X001883Y014527D01*
X001882Y014526D01*
X001882Y014525D01*
X001882Y014524D01*
X001882Y014523D01*
X001882Y014521D01*
X001881Y014520D01*
X001881Y014518D01*
X001881Y014517D01*
X001880Y014516D01*
X001880Y014514D01*
X001879Y014512D01*
X001878Y014511D01*
X001878Y014509D01*
X001877Y014508D01*
X001876Y014507D01*
X001875Y014505D01*
X001874Y014504D01*
X001873Y014503D01*
X001872Y014501D01*
X001871Y014501D01*
X001870Y014500D01*
X001869Y014499D01*
X001867Y014498D01*
X001865Y014498D01*
X001864Y014497D01*
X001862Y014497D01*
X001860Y014497D01*
X001858Y014497D01*
X001856Y014497D01*
X001854Y014497D01*
X001852Y014497D01*
X001850Y014497D01*
X001848Y014498D01*
X001846Y014498D01*
X001844Y014498D01*
X001842Y014498D01*
X001840Y014499D01*
X001838Y014499D01*
X001836Y014499D01*
X001834Y014499D01*
X001833Y014499D01*
X001831Y014499D01*
X001830Y014499D01*
X001829Y014499D01*
X001828Y014499D01*
X001827Y014499D01*
X001826Y014498D01*
X001825Y014497D01*
X001824Y014495D01*
X001823Y014493D01*
X001822Y014491D01*
X001821Y014489D01*
X001820Y014486D01*
X001819Y014483D01*
X001817Y014479D01*
X001816Y014476D01*
X001815Y014473D01*
X001814Y014469D01*
X001813Y014466D01*
X001812Y014462D01*
X001811Y014459D01*
X001809Y014455D01*
X001808Y014452D01*
X001807Y014449D01*
X001805Y014446D01*
X001804Y014444D01*
X001802Y014441D01*
X001800Y014439D01*
X001799Y014437D01*
X001797Y014436D01*
X001795Y014435D01*
X001793Y014434D01*
X001790Y014434D01*
X001788Y014433D01*
X001785Y014433D01*
X001783Y014433D01*
X001780Y014434D01*
X001777Y014434D01*
X001774Y014435D01*
X001769Y014436D01*
X001766Y014438D01*
X001759Y014440D01*
X001756Y014442D01*
X001753Y014444D01*
X001750Y014445D01*
X001746Y014447D01*
X001743Y014449D01*
X001739Y014451D01*
X001736Y014453D01*
X001732Y014456D01*
X001729Y014458D01*
X001725Y014460D01*
X001721Y014463D01*
X001717Y014466D01*
X001713Y014469D01*
X001709Y014472D01*
X001705Y014474D01*
X001701Y014477D01*
X001698Y014480D01*
X001695Y014482D01*
X001692Y014485D01*
X001686Y014490D01*
X001683Y014492D01*
X001681Y014495D01*
X001679Y014497D01*
X001677Y014499D01*
X001675Y014501D01*
X001673Y014503D01*
X001672Y014505D01*
X001671Y014508D01*
X001669Y014510D01*
X001668Y014512D01*
X001668Y014513D01*
X001667Y014515D01*
X001666Y014517D01*
X001666Y014519D01*
X001665Y014523D01*
X001666Y014528D01*
X001667Y014536D01*
X001669Y014543D01*
X001672Y014551D01*
X001675Y014561D01*
X001679Y014571D01*
X001683Y014582D01*
X001688Y014593D01*
X001692Y014604D01*
X001698Y014615D01*
X001703Y014627D01*
X001708Y014638D01*
X001714Y014649D01*
X001720Y014660D01*
X001725Y014670D01*
X001731Y014680D01*
X001736Y014689D01*
X001741Y014698D01*
X001746Y014705D01*
X001750Y014711D01*
X001754Y014716D01*
X001758Y014720D01*
X001760Y014722D01*
X001762Y014723D01*
X001768Y014713D02*
X001818Y014723D01*
X001858Y014713D01*
X001838Y014573D01*
X001878Y014543D01*
X001868Y014503D01*
X001828Y014503D01*
X001798Y014443D01*
X001768Y014453D01*
X001698Y014493D01*
X001678Y014523D01*
X001768Y014713D01*
X001778Y014715D02*
X001849Y014715D01*
X001855Y014697D02*
X001760Y014697D01*
X001751Y014678D02*
X001853Y014678D01*
X001850Y014660D02*
X001742Y014660D01*
X001733Y014641D02*
X001847Y014641D01*
X001845Y014623D02*
X001725Y014623D01*
X001716Y014604D02*
X001842Y014604D01*
X001839Y014586D02*
X001707Y014586D01*
X001698Y014567D02*
X001845Y014567D01*
X001870Y014549D02*
X001690Y014549D01*
X001681Y014530D02*
X001874Y014530D01*
X001870Y014512D02*
X001685Y014512D01*
X001697Y014493D02*
X001823Y014493D01*
X001813Y014475D02*
X001730Y014475D01*
X001762Y014456D02*
X001804Y014456D01*
X002037Y014678D02*
X002376Y014678D01*
X002364Y014660D02*
X002084Y014660D01*
X002094Y014641D02*
X002196Y014641D01*
X002174Y014623D02*
X002103Y014623D01*
X002143Y014604D02*
X002149Y014604D01*
X002226Y014641D02*
X002353Y014641D01*
X002358Y014974D02*
X002516Y014974D01*
X002488Y014993D02*
X002358Y014993D01*
X002360Y015011D02*
X002460Y015011D01*
X002459Y015030D02*
X002361Y015030D01*
X002363Y015048D02*
X002461Y015048D01*
X002462Y015067D02*
X002365Y015067D01*
X002366Y015085D02*
X002356Y015085D01*
X002368Y015104D02*
X002322Y015104D01*
X002289Y015122D02*
X002396Y015122D01*
X002402Y015122D02*
X002467Y015122D01*
X002466Y015104D02*
X002393Y015104D01*
X002384Y015085D02*
X002464Y015085D01*
X002432Y015141D02*
X002424Y015141D01*
X002411Y015141D02*
X001993Y015141D01*
X001986Y015122D02*
X002285Y015122D01*
X002242Y015104D02*
X001978Y015104D01*
X001926Y015104D02*
X001723Y015104D01*
X001725Y015122D02*
X001927Y015122D01*
X001925Y015085D02*
X001721Y015085D01*
X001719Y015067D02*
X001924Y015067D01*
X001923Y015048D02*
X001716Y015048D01*
X001714Y015030D02*
X001784Y015030D01*
X001787Y015022D02*
X001784Y015021D01*
X001780Y015019D01*
X001777Y015018D01*
X001774Y015016D01*
X001771Y015014D01*
X001765Y015009D01*
X001763Y015007D01*
X001760Y015004D01*
X001758Y015001D01*
X001756Y014998D01*
X001752Y014991D01*
X001751Y014988D01*
X001750Y014984D01*
X001749Y014980D01*
X001748Y014976D01*
X001748Y014972D01*
X001747Y014968D01*
X001747Y014965D01*
X001748Y014961D01*
X001748Y014957D01*
X001749Y014953D01*
X001750Y014950D01*
X001751Y014946D01*
X001752Y014943D01*
X001754Y014939D01*
X001756Y014936D01*
X001758Y014933D01*
X001760Y014930D01*
X001763Y014927D01*
X001765Y014925D01*
X001768Y014922D01*
X001771Y014920D01*
X001774Y014918D01*
X001777Y014916D01*
X001781Y014914D01*
X001784Y014913D01*
X001788Y014912D01*
X001792Y014911D01*
X001795Y014910D01*
X001799Y014910D01*
X001803Y014909D01*
X001807Y014909D01*
X001811Y014910D01*
X001815Y014910D01*
X001818Y014911D01*
X001822Y014912D01*
X001825Y014913D01*
X001829Y014915D01*
X001832Y014916D01*
X001835Y014918D01*
X001838Y014920D01*
X001844Y014925D01*
X001847Y014928D01*
X001849Y014931D01*
X001851Y014933D01*
X001853Y014936D01*
X001855Y014940D01*
X001857Y014943D01*
X001858Y014947D01*
X001859Y014950D01*
X001861Y014954D01*
X001861Y014958D01*
X001862Y014962D01*
X001862Y014966D01*
X001862Y014970D01*
X001862Y014973D01*
X001861Y014977D01*
X001860Y014981D01*
X001859Y014984D01*
X001858Y014988D01*
X001857Y014991D01*
X001855Y014995D01*
X001853Y014998D01*
X001851Y015001D01*
X001849Y015004D01*
X001846Y015007D01*
X001844Y015009D01*
X001841Y015012D01*
X001838Y015014D01*
X001835Y015016D01*
X001832Y015018D01*
X001828Y015020D01*
X001825Y015021D01*
X001821Y015022D01*
X001818Y015023D01*
X001814Y015024D01*
X001810Y015024D01*
X001806Y015025D01*
X001802Y015025D01*
X001798Y015024D01*
X001795Y015024D01*
X001791Y015023D01*
X001787Y015022D01*
X001755Y015011D02*
X001712Y015011D01*
X001710Y014993D02*
X001751Y014993D01*
X001748Y014974D02*
X001708Y014974D01*
X001705Y014956D02*
X001744Y014956D01*
X001740Y014937D02*
X001703Y014937D01*
X001701Y014919D02*
X001749Y014919D01*
X001699Y014900D02*
X001799Y014900D01*
X001823Y014900D02*
X001909Y014900D01*
X001905Y014882D02*
X001697Y014882D01*
X001666Y014888D02*
X001666Y014890D01*
X001667Y014892D01*
X001667Y014895D01*
X001668Y014897D01*
X001668Y014900D01*
X001668Y014903D01*
X001668Y014906D01*
X001669Y014909D01*
X001669Y014912D01*
X001669Y014915D01*
X001669Y014919D01*
X001669Y014922D01*
X001669Y014925D01*
X001669Y014928D01*
X001669Y014930D01*
X001669Y014933D01*
X001669Y014936D01*
X001669Y014938D01*
X001669Y014941D01*
X001669Y014943D01*
X001668Y014945D01*
X001668Y014947D01*
X001668Y014949D01*
X001667Y014951D01*
X001667Y014952D01*
X001667Y014954D01*
X001666Y014955D01*
X001665Y014956D01*
X001665Y014957D01*
X001664Y014958D01*
X001662Y014959D01*
X001659Y014960D01*
X001656Y014961D01*
X001652Y014962D01*
X001647Y014962D01*
X001642Y014963D01*
X001637Y014964D01*
X001631Y014965D01*
X001624Y014965D01*
X001618Y014966D01*
X001612Y014967D01*
X001605Y014967D01*
X001599Y014967D01*
X001592Y014968D01*
X001586Y014968D01*
X001580Y014968D01*
X001574Y014968D01*
X001569Y014968D01*
X001564Y014968D01*
X001559Y014967D01*
X001556Y014966D01*
X001552Y014966D01*
X001550Y014965D01*
X001549Y014964D01*
X001548Y014963D01*
X001548Y014962D02*
X001547Y014961D01*
X001547Y014959D01*
X001546Y014957D01*
X001546Y014954D01*
X001545Y014952D01*
X001544Y014949D01*
X001543Y014945D01*
X001542Y014941D01*
X001541Y014937D01*
X001541Y014933D01*
X001540Y014929D01*
X001539Y014924D01*
X001538Y014919D01*
X001537Y014914D01*
X001536Y014909D01*
X001535Y014904D01*
X001534Y014898D01*
X001533Y014893D01*
X001532Y014881D01*
X001531Y014876D01*
X001530Y014870D01*
X001530Y014865D01*
X001529Y014860D01*
X001529Y014854D01*
X001529Y014849D01*
X001528Y014844D01*
X001528Y014834D01*
X001528Y014829D01*
X001528Y014825D01*
X001528Y014820D01*
X001528Y014816D01*
X001528Y014812D01*
X001528Y014807D01*
X001528Y014804D01*
X001528Y014800D01*
X001528Y014797D01*
X001528Y014793D01*
X001528Y014791D01*
X001529Y014788D01*
X001529Y014785D01*
X001529Y014784D01*
X001529Y014782D01*
X001530Y014780D01*
X001530Y014780D01*
X001531Y014778D01*
X001532Y014776D01*
X001534Y014775D01*
X001536Y014773D01*
X001538Y014772D01*
X001541Y014770D01*
X001543Y014769D01*
X001546Y014768D01*
X001550Y014767D01*
X001553Y014766D01*
X001557Y014766D01*
X001560Y014765D01*
X001564Y014765D01*
X001567Y014764D01*
X001571Y014764D01*
X001574Y014764D01*
X001578Y014764D01*
X001581Y014764D01*
X001585Y014764D01*
X001588Y014765D01*
X001590Y014765D01*
X001593Y014766D01*
X001596Y014767D01*
X001597Y014768D01*
X001599Y014769D01*
X001600Y014770D01*
X001602Y014773D01*
X001603Y014776D01*
X001604Y014779D01*
X001606Y014786D01*
X001607Y014791D01*
X001608Y014795D01*
X001609Y014800D01*
X001610Y014805D01*
X001611Y014814D01*
X001612Y014819D01*
X001612Y014824D01*
X001613Y014828D01*
X001613Y014832D01*
X001615Y014840D01*
X001615Y014844D01*
X001616Y014849D01*
X001617Y014851D01*
X001618Y014852D01*
X001619Y014853D01*
X001620Y014854D01*
X001621Y014854D01*
X001622Y014855D01*
X001623Y014856D01*
X001627Y014857D01*
X001628Y014857D01*
X001630Y014858D01*
X001632Y014858D01*
X001634Y014858D01*
X001636Y014859D01*
X001638Y014859D01*
X001640Y014859D01*
X001642Y014860D01*
X001644Y014860D01*
X001646Y014860D01*
X001647Y014861D01*
X001649Y014861D01*
X001651Y014862D01*
X001652Y014862D01*
X001654Y014863D01*
X001655Y014864D01*
X001656Y014864D01*
X001657Y014865D01*
X001657Y014866D01*
X001658Y014866D01*
X001658Y014867D01*
X001659Y014868D01*
X001660Y014869D01*
X001660Y014870D01*
X001661Y014872D01*
X001662Y014873D01*
X001662Y014874D01*
X001663Y014876D01*
X001663Y014878D01*
X001664Y014879D01*
X001664Y014881D01*
X001665Y014883D01*
X001665Y014885D01*
X001666Y014888D01*
X001649Y014882D02*
X001549Y014882D01*
X001551Y014900D02*
X001651Y014900D01*
X001653Y014919D02*
X001553Y014919D01*
X001555Y014937D02*
X001656Y014937D01*
X001658Y014953D02*
X001648Y014873D01*
X001608Y014853D01*
X001588Y014773D01*
X001538Y014783D01*
X001558Y014963D01*
X001608Y014963D01*
X001658Y014953D01*
X001664Y014958D02*
X001664Y014958D01*
X001645Y014956D02*
X001557Y014956D01*
X001548Y014962D02*
X001548Y014963D01*
X001584Y015046D02*
X001581Y015047D01*
X001578Y015048D01*
X001575Y015050D01*
X001573Y015051D01*
X001570Y015052D01*
X001568Y015053D01*
X001566Y015054D01*
X001564Y015055D01*
X001562Y015057D01*
X001560Y015058D01*
X001559Y015059D01*
X001556Y015061D01*
X001554Y015062D01*
X001553Y015063D01*
X001552Y015065D01*
X001551Y015066D01*
X001551Y015067D01*
X001550Y015068D01*
X001550Y015069D01*
X001550Y015071D01*
X001550Y015073D01*
X001550Y015075D01*
X001550Y015077D01*
X001550Y015080D01*
X001550Y015083D01*
X001551Y015087D01*
X001551Y015090D01*
X001551Y015094D01*
X001553Y015101D01*
X001553Y015106D01*
X001554Y015110D01*
X001555Y015114D01*
X001556Y015119D01*
X001558Y015128D01*
X001559Y015133D01*
X001560Y015138D01*
X001561Y015142D01*
X001562Y015147D01*
X001563Y015152D01*
X001564Y015156D01*
X001565Y015160D01*
X001567Y015165D01*
X001568Y015169D01*
X001569Y015173D01*
X001570Y015177D01*
X001571Y015181D01*
X001572Y015184D01*
X001573Y015188D01*
X001574Y015192D01*
X001575Y015195D01*
X001576Y015198D01*
X001576Y015201D01*
X001577Y015204D01*
X001578Y015207D01*
X001579Y015209D01*
X001580Y015212D01*
X001580Y015214D01*
X001581Y015216D01*
X001582Y015217D01*
X001582Y015218D01*
X001583Y015220D01*
X001584Y015220D01*
X001584Y015221D01*
X001585Y015221D01*
X001587Y015222D01*
X001589Y015222D01*
X001591Y015222D01*
X001594Y015222D01*
X001597Y015222D01*
X001600Y015222D01*
X001604Y015221D01*
X001607Y015221D01*
X001611Y015220D01*
X001614Y015220D01*
X001618Y015219D01*
X001622Y015218D01*
X001626Y015217D01*
X001629Y015217D01*
X001633Y015216D01*
X001636Y015215D01*
X001639Y015214D01*
X001642Y015213D01*
X001645Y015212D01*
X001649Y015210D01*
X001651Y015209D01*
X001652Y015208D01*
X001652Y015207D01*
X001653Y015205D01*
X001653Y015203D01*
X001654Y015200D01*
X001654Y015197D01*
X001654Y015194D01*
X001654Y015190D01*
X001654Y015187D01*
X001654Y015182D01*
X001653Y015178D01*
X001653Y015174D01*
X001653Y015170D01*
X001653Y015165D01*
X001652Y015161D01*
X001652Y015157D01*
X001652Y015153D01*
X001651Y015149D01*
X001651Y015146D01*
X001651Y015142D01*
X001651Y015139D01*
X001651Y015134D01*
X001651Y015132D01*
X001652Y015131D01*
X001652Y015130D01*
X001653Y015129D01*
X001654Y015129D01*
X001654Y015128D01*
X001655Y015127D01*
X001656Y015127D01*
X001657Y015126D01*
X001657Y015125D01*
X001658Y015125D01*
X001659Y015124D01*
X001661Y015123D01*
X001662Y015122D01*
X001663Y015121D01*
X001664Y015121D01*
X001666Y015120D01*
X001667Y015119D01*
X001668Y015118D01*
X001669Y015117D01*
X001670Y015116D01*
X001671Y015114D01*
X001672Y015113D01*
X001674Y015112D01*
X001674Y015111D01*
X001675Y015110D01*
X001676Y015108D01*
X001676Y015107D01*
X001677Y015106D01*
X001677Y015104D01*
X001677Y015103D01*
X001678Y015101D01*
X001678Y015099D01*
X001678Y015098D01*
X001678Y015096D01*
X001679Y015094D01*
X001679Y015092D01*
X001679Y015090D01*
X001679Y015088D01*
X001679Y015086D01*
X001679Y015083D01*
X001679Y015081D01*
X001679Y015079D01*
X001679Y015076D01*
X001679Y015074D01*
X001679Y015071D01*
X001679Y015068D01*
X001679Y015066D01*
X001679Y015063D01*
X001679Y015060D01*
X001679Y015057D01*
X001679Y015055D01*
X001679Y015052D01*
X001678Y015049D01*
X001678Y015047D01*
X001678Y015044D01*
X001678Y015042D01*
X001677Y015040D01*
X001677Y015038D01*
X001676Y015035D01*
X001676Y015033D01*
X001675Y015032D01*
X001675Y015030D01*
X001674Y015028D01*
X001674Y015027D01*
X001673Y015025D01*
X001672Y015024D01*
X001671Y015023D01*
X001671Y015022D01*
X001670Y015022D01*
X001669Y015021D01*
X001668Y015021D01*
X001667Y015021D01*
X001665Y015021D01*
X001664Y015021D01*
X001662Y015021D01*
X001660Y015022D01*
X001658Y015022D01*
X001655Y015022D01*
X001653Y015023D01*
X001650Y015024D01*
X001647Y015024D01*
X001645Y015025D01*
X001642Y015026D01*
X001639Y015027D01*
X001635Y015028D01*
X001632Y015029D01*
X001629Y015030D01*
X001625Y015031D01*
X001622Y015032D01*
X001618Y015033D01*
X001611Y015036D01*
X001607Y015037D01*
X001604Y015038D01*
X001600Y015040D01*
X001597Y015041D01*
X001593Y015042D01*
X001590Y015044D01*
X001587Y015045D01*
X001584Y015046D01*
X001582Y015067D02*
X001668Y015067D01*
X001668Y015085D02*
X001564Y015085D01*
X001568Y015073D02*
X001558Y015103D01*
X001598Y015213D01*
X001638Y015203D01*
X001638Y015123D01*
X001668Y015103D01*
X001668Y015033D01*
X001658Y015033D01*
X001568Y015073D01*
X001558Y015104D02*
X001667Y015104D01*
X001652Y015131D02*
X001652Y015131D01*
X001639Y015122D02*
X001564Y015122D01*
X001571Y015141D02*
X001638Y015141D01*
X001638Y015159D02*
X001578Y015159D01*
X001585Y015178D02*
X001638Y015178D01*
X001638Y015196D02*
X001591Y015196D01*
X001727Y015141D02*
X001886Y015141D01*
X001891Y015183D02*
X001887Y015183D01*
X001884Y015184D01*
X001881Y015184D01*
X001878Y015185D01*
X001875Y015185D01*
X001872Y015186D01*
X001869Y015186D01*
X001865Y015187D01*
X001862Y015187D01*
X001860Y015188D01*
X001857Y015188D01*
X001855Y015189D01*
X001852Y015189D01*
X001850Y015189D01*
X001848Y015190D01*
X001846Y015190D01*
X001844Y015190D01*
X001842Y015191D01*
X001840Y015191D01*
X001839Y015192D01*
X001837Y015192D01*
X001835Y015193D01*
X001833Y015193D01*
X001832Y015194D01*
X001830Y015195D01*
X001826Y015196D01*
X001825Y015197D01*
X001823Y015199D01*
X001821Y015200D01*
X001819Y015201D01*
X001817Y015203D01*
X001815Y015204D01*
X001811Y015207D01*
X001807Y015212D01*
X001803Y015217D01*
X001798Y015223D01*
X001787Y015238D01*
X001781Y015246D01*
X001768Y015264D01*
X001762Y015274D01*
X001755Y015283D01*
X001749Y015292D01*
X001743Y015302D01*
X001737Y015311D01*
X001731Y015320D01*
X001725Y015328D01*
X001716Y015343D01*
X001712Y015349D01*
X001709Y015354D01*
X001707Y015359D01*
X001705Y015362D01*
X001705Y015363D01*
X001705Y015365D01*
X001705Y015366D01*
X001706Y015368D01*
X001706Y015370D01*
X001707Y015372D01*
X001709Y015375D01*
X001710Y015377D01*
X001711Y015379D01*
X001713Y015382D01*
X001715Y015385D01*
X001717Y015387D01*
X001722Y015392D01*
X001724Y015395D01*
X001727Y015398D01*
X001729Y015400D01*
X001732Y015403D01*
X001735Y015405D01*
X001737Y015407D01*
X001740Y015410D01*
X001742Y015411D01*
X001745Y015413D01*
X001748Y015415D01*
X001750Y015416D01*
X001753Y015418D01*
X001755Y015419D01*
X001761Y015422D01*
X001764Y015423D01*
X001767Y015424D01*
X001770Y015425D01*
X001773Y015426D01*
X001776Y015427D01*
X001779Y015428D01*
X001782Y015429D01*
X001786Y015430D01*
X001789Y015431D01*
X001792Y015432D01*
X001795Y015432D01*
X001798Y015433D01*
X001801Y015433D01*
X001804Y015433D01*
X001807Y015433D01*
X001810Y015433D01*
X001813Y015433D01*
X001816Y015433D01*
X001818Y015433D01*
X001821Y015432D01*
X001823Y015431D01*
X001825Y015430D01*
X001827Y015428D01*
X001830Y015426D01*
X001832Y015423D01*
X001834Y015420D01*
X001836Y015417D01*
X001838Y015413D01*
X001839Y015409D01*
X001841Y015406D01*
X001843Y015402D01*
X001845Y015398D01*
X001847Y015394D01*
X001848Y015390D01*
X001850Y015386D01*
X001851Y015382D01*
X001853Y015378D01*
X001856Y015372D01*
X001858Y015369D01*
X001859Y015367D01*
X001861Y015365D01*
X001862Y015363D01*
X001864Y015362D01*
X001866Y015361D01*
X001867Y015361D01*
X001869Y015360D01*
X001870Y015360D01*
X001872Y015360D01*
X001875Y015360D01*
X001877Y015360D01*
X001878Y015360D01*
X001880Y015360D01*
X001881Y015360D01*
X001883Y015361D01*
X001885Y015361D01*
X001886Y015361D01*
X001888Y015361D01*
X001890Y015361D01*
X001891Y015361D01*
X001894Y015361D01*
X001896Y015361D01*
X001898Y015361D01*
X001899Y015360D01*
X001901Y015359D01*
X001903Y015358D01*
X001904Y015357D01*
X001906Y015356D01*
X001908Y015354D01*
X001909Y015352D01*
X001911Y015349D01*
X001912Y015346D01*
X001914Y015343D01*
X001915Y015340D01*
X001916Y015337D01*
X001918Y015333D01*
X001919Y015330D01*
X001920Y015326D01*
X001920Y015323D01*
X001921Y015319D01*
X001922Y015315D01*
X001922Y015312D01*
X001923Y015309D01*
X001923Y015305D01*
X001923Y015302D01*
X001923Y015299D01*
X001923Y015297D01*
X001923Y015294D01*
X001922Y015292D01*
X001922Y015291D01*
X001921Y015289D01*
X001920Y015288D01*
X001919Y015287D01*
X001918Y015286D01*
X001917Y015285D01*
X001916Y015284D01*
X001915Y015283D01*
X001914Y015283D01*
X001912Y015282D01*
X001911Y015281D01*
X001910Y015281D01*
X001907Y015280D01*
X001906Y015280D01*
X001905Y015279D01*
X001904Y015279D01*
X001903Y015278D01*
X001902Y015278D01*
X001901Y015277D01*
X001900Y015276D01*
X001899Y015276D01*
X001898Y015275D01*
X001898Y015274D01*
X001897Y015271D01*
X001897Y015269D01*
X001898Y015267D01*
X001899Y015264D01*
X001900Y015261D01*
X001902Y015257D01*
X001904Y015253D01*
X001906Y015249D01*
X001909Y015245D01*
X001911Y015241D01*
X001913Y015236D01*
X001916Y015232D01*
X001918Y015227D01*
X001920Y015222D01*
X001922Y015218D01*
X001924Y015213D01*
X001926Y015209D01*
X001928Y015201D01*
X001929Y015198D01*
X001929Y015194D01*
X001929Y015191D01*
X001928Y015189D01*
X001926Y015187D01*
X001925Y015186D01*
X001923Y015185D01*
X001922Y015184D01*
X001920Y015183D01*
X001918Y015183D01*
X001916Y015182D01*
X001914Y015182D01*
X001912Y015182D01*
X001910Y015182D01*
X001907Y015182D01*
X001905Y015182D01*
X001902Y015182D01*
X001899Y015182D01*
X001896Y015182D01*
X001893Y015183D01*
X001891Y015183D01*
X001890Y015196D02*
X001916Y015196D01*
X001918Y015193D02*
X001888Y015273D01*
X001918Y015293D01*
X001898Y015343D01*
X001858Y015353D01*
X001818Y015413D01*
X001768Y015413D01*
X001718Y015363D01*
X001851Y015363D01*
X001839Y015381D02*
X001736Y015381D01*
X001718Y015363D02*
X001828Y015203D01*
X001918Y015193D01*
X001909Y015215D02*
X001820Y015215D01*
X001807Y015233D02*
X001903Y015233D01*
X001896Y015252D02*
X001794Y015252D01*
X001781Y015270D02*
X001889Y015270D01*
X001911Y015289D02*
X001769Y015289D01*
X001756Y015307D02*
X001912Y015307D01*
X001905Y015326D02*
X001743Y015326D01*
X001731Y015344D02*
X001893Y015344D01*
X001826Y015400D02*
X001754Y015400D01*
X001760Y015159D02*
X001803Y015159D01*
X001844Y015030D02*
X001922Y015030D01*
X001921Y015011D02*
X001854Y015011D01*
X001863Y014993D02*
X001920Y014993D01*
X001919Y014974D02*
X001872Y014974D01*
X001907Y014956D02*
X001918Y014956D01*
X001916Y014937D02*
X001854Y014937D01*
X001839Y014919D02*
X001913Y014919D01*
X002001Y015159D02*
X002350Y015159D01*
X002328Y015172D02*
X002328Y015172D01*
X002308Y015178D02*
X002009Y015178D01*
X002016Y015196D02*
X002158Y015196D01*
X002211Y015196D02*
X002308Y015196D01*
X002303Y015215D02*
X002229Y015215D01*
X002103Y015215D02*
X002024Y015215D01*
X001668Y015048D02*
X001624Y015048D01*
X001628Y014863D02*
X001546Y014863D01*
X001544Y014845D02*
X001605Y014845D01*
X001601Y014826D02*
X001542Y014826D01*
X001540Y014808D02*
X001596Y014808D01*
X001592Y014789D02*
X001538Y014789D01*
D19*
X008664Y016147D03*
D20*
X010016Y015333D02*
X010040Y015333D01*
X010666Y015333D02*
X010690Y015333D01*
X011766Y015333D02*
X011790Y015333D01*
X012316Y015333D02*
X012340Y015333D01*
D21*
X008878Y017983D03*
D22*
X013973Y016033D03*
X020378Y013583D03*
D23*
X006588Y022333D03*
M02*
