G75*
%MOIN*%
%OFA0B0*%
%FSLAX24Y24*%
%IPPOS*%
%LPD*%
%AMOC8*
5,1,8,0,0,1.08239X$1,22.5*
%
%ADD10C,0.1182*%
%ADD11C,0.0240*%
%ADD12C,0.0730*%
%ADD13R,0.0730X0.0730*%
%ADD14C,0.0680*%
%ADD15R,0.0820X0.0820*%
%ADD16C,0.0820*%
%ADD17C,0.0552*%
%ADD18C,0.0867*%
%ADD19C,0.0880*%
%ADD20R,0.0880X0.0880*%
D10*
X002056Y009211D03*
X002056Y028503D03*
X024890Y028503D03*
X024890Y009211D03*
D11*
X011828Y009333D02*
X004828Y009333D01*
X004828Y010333D02*
X011828Y010333D01*
X011828Y008333D02*
X004878Y008333D01*
D12*
X004973Y028003D03*
X004973Y029003D03*
X005973Y029003D03*
X005973Y028003D03*
X006973Y028003D03*
X006973Y029003D03*
X007973Y029003D03*
X008973Y029003D03*
X008973Y028003D03*
X007973Y028003D03*
X009973Y028003D03*
X009973Y029003D03*
X010973Y029003D03*
X010973Y028003D03*
X011973Y028003D03*
X011973Y029003D03*
X012973Y029003D03*
X012973Y028003D03*
X013973Y028003D03*
X013973Y029003D03*
X014973Y029003D03*
X014973Y028003D03*
X015973Y028003D03*
X015973Y029003D03*
X016973Y029003D03*
X016973Y028003D03*
X017973Y028003D03*
X017973Y029003D03*
X018973Y029003D03*
X018973Y028003D03*
X019973Y028003D03*
X019973Y029003D03*
X020973Y029003D03*
X021973Y029003D03*
X021973Y028003D03*
X020973Y028003D03*
X022973Y028003D03*
X022973Y029003D03*
X003973Y029003D03*
D13*
X003973Y028003D03*
D14*
X004428Y026333D03*
X005428Y026333D03*
X006428Y026333D03*
X007428Y026333D03*
X008428Y026333D03*
X009428Y026333D03*
X010428Y026333D03*
X011428Y026333D03*
X012428Y026333D03*
X013428Y026333D03*
X014428Y026333D03*
X015428Y026333D03*
X016428Y026333D03*
X017428Y026333D03*
X018428Y026333D03*
X019428Y026333D03*
X020428Y026333D03*
X021428Y026333D03*
X022428Y026333D03*
X023428Y026333D03*
X024428Y026333D03*
X025428Y026333D03*
X003428Y026333D03*
X002428Y026333D03*
D15*
X004828Y008333D03*
X004828Y009333D03*
X004828Y010333D03*
X003628Y011683D03*
X003628Y018383D03*
X003628Y024233D03*
X014028Y008333D03*
X015028Y008333D03*
X016028Y008333D03*
X017028Y008333D03*
X025728Y011733D03*
X025728Y019483D03*
D16*
X025728Y020483D03*
X025728Y021483D03*
X025728Y022483D03*
X025728Y023483D03*
X025728Y024483D03*
X025728Y016733D03*
X025728Y015733D03*
X025728Y014733D03*
X025728Y013733D03*
X025728Y012733D03*
X017028Y010333D03*
X017028Y009333D03*
X016028Y009333D03*
X016028Y010333D03*
X015028Y010333D03*
X015028Y009333D03*
X014028Y009333D03*
X014028Y010333D03*
X011828Y010333D03*
X011828Y009333D03*
X011828Y008333D03*
X010828Y008333D03*
X009828Y008333D03*
X009828Y009333D03*
X010828Y009333D03*
X010828Y010333D03*
X009828Y010333D03*
X008828Y010333D03*
X008828Y009333D03*
X008828Y008333D03*
X007828Y008333D03*
X007828Y009333D03*
X007828Y010333D03*
X006828Y010333D03*
X006828Y009333D03*
X006828Y008333D03*
X005828Y008333D03*
X005828Y009333D03*
X005828Y010333D03*
X003628Y012683D03*
X003628Y013683D03*
X003628Y014683D03*
X003628Y015683D03*
X003628Y016683D03*
X003628Y019383D03*
X003628Y020383D03*
X003628Y021383D03*
X003628Y023233D03*
D17*
X002330Y023239D03*
X002330Y025148D03*
D18*
X001228Y025615D03*
X001228Y022772D03*
D19*
X020861Y008733D03*
X023617Y008733D03*
D20*
X022239Y008733D03*
X019483Y008733D03*
M02*
